<?xml version="1.0" standalone="no"?>
<!DOCTYPE svg PUBLIC "-//W3C//DTD SVG 20010904//EN"
 "http://www.w3.org/TR/2001/REC-SVG-20010904/DTD/svg10.dtd">
<svg version="1.0" xmlns="http://www.w3.org/2000/svg"
 width="640.000000pt" height="640.000000pt" viewBox="0 0 640.000000 640.000000"
 preserveAspectRatio="xMidYMid meet">

<g transform="translate(0.000000,640.000000) scale(0.100000,-0.100000)"
fill="#000000" stroke="none">
<path d="M805 6390 c-33 -4 -228 -5 -433 -2 l-372 4 2 -31 c2 -28 6 -31 36
-31 18 0 31 4 27 9 -10 17 34 23 103 15 l67 -8 -80 -12 -80 -11 140 0 c100 1
123 3 80 7 -60 7 -60 7 -15 10 l45 3 -45 7 c-25 4 89 6 253 6 163 0 285 -4
270 -8 -16 -4 -58 -9 -95 -10 -46 -2 -68 -7 -68 -15 0 -10 -30 -13 -117 -12
-76 1 -107 4 -88 9 l30 8 -32 1 c-18 0 -33 -3 -33 -9 0 -6 -73 -10 -200 -10
l-199 0 -1 -645 0 -644 37 -19 c21 -10 74 -38 118 -62 72 -39 142 -78 397
-221 43 -24 122 -68 175 -98 168 -93 314 -183 309 -188 -3 -3 -11 -1 -18 4 -7
6 -53 32 -103 58 -113 59 -217 118 -275 155 -25 16 -56 29 -68 29 -13 1 -36 9
-50 19 -15 10 -74 42 -132 71 -164 83 -319 172 -338 195 -9 12 -25 27 -35 35
-16 13 -17 -67 -17 -1588 0 -1295 2 -1601 13 -1601 7 0 66 18 132 40 66 23
152 50 190 62 39 11 79 24 90 29 34 15 108 40 170 59 33 9 86 30 118 45 32 15
64 24 72 21 8 -3 15 -2 15 3 0 4 11 13 25 19 33 15 38 15 29 0 -5 -8 -2 -9 12
-3 10 4 33 11 49 15 21 6 24 8 10 10 -22 1 26 18 140 49 68 19 168 30 307 34
38 1 68 3 68 5 0 1 -11 19 -25 40 -32 49 -44 107 -35 173 15 105 62 162 128
154 26 -3 30 -1 25 13 -3 9 -12 24 -19 32 -7 8 -26 46 -43 83 -31 69 -107 193
-140 229 -20 21 -34 58 -22 58 3 0 12 -10 20 -21 11 -18 15 -19 23 -8 8 11 9
10 4 -3 -3 -10 -1 -20 4 -23 6 -4 10 0 10 7 0 16 39 -32 40 -48 0 -6 7 -17 16
-25 9 -8 13 -21 10 -35 -4 -13 -2 -26 4 -29 5 -3 14 -20 18 -38 5 -18 14 -31
20 -30 5 1 8 -7 5 -20 -3 -15 -2 -18 4 -9 7 9 10 3 10 -18 0 -18 4 -35 10 -38
6 -4 18 -22 27 -39 18 -36 31 -44 23 -14 -3 14 -1 18 10 14 8 -3 12 -12 9 -20
-3 -8 -6 -19 -6 -24 0 -5 -19 -9 -42 -9 -24 0 -50 -5 -58 -10 -10 -7 19 -10
91 -10 82 0 109 -3 119 -15 10 -12 10 -15 0 -15 -10 0 -10 -3 0 -15 7 -9 10
-18 7 -22 -4 -3 -2 -11 3 -18 5 -6 11 -37 12 -68 2 -45 -2 -61 -19 -79 -11
-13 -26 -33 -32 -45 -6 -13 -20 -23 -31 -23 -10 0 -22 -5 -26 -12 -4 -6 -3 -8
4 -4 6 3 13 2 17 -4 3 -5 2 -10 -3 -10 -5 0 -19 -9 -32 -20 -13 -11 -35 -20
-49 -20 -21 -1 -23 -3 -10 -10 23 -13 699 -17 724 -3 28 15 85 27 65 13 -27
-18 31 -10 75 10 40 19 38 19 -318 17 -234 -1 -356 1 -354 8 5 14 422 30 1037
41 195 4 357 8 359 10 2 2 5 143 6 314 2 171 6 314 9 317 4 5 3 -330 -2 -682
-1 -22 0 -40 1 -41 9 -7 311 -14 630 -14 273 0 387 -3 387 -11 0 -7 -18 -9
-52 -6 -29 2 -62 1 -73 -4 -16 -6 -13 -8 15 -9 19 -1 42 -3 51 -5 9 -1 56 -5
104 -8 81 -6 86 -5 72 11 -45 51 -88 208 -73 268 6 21 10 23 34 17 15 -4 96
-7 181 -7 132 1 149 -1 125 -12 -16 -7 -23 -13 -16 -13 10 -1 11 -20 6 -83 -3
-46 -7 -93 -8 -105 0 -11 -4 -19 -8 -17 -4 2 -9 0 -13 -6 -12 -20 -62 -11 -79
15 -21 31 -20 52 2 64 16 10 16 10 0 11 -13 0 -17 9 -16 43 0 66 0 67 -33 67
-18 0 -28 -4 -24 -10 4 -6 11 -8 16 -5 14 9 11 -8 -7 -33 -8 -12 -10 -22 -5
-22 6 0 11 -5 11 -11 0 -5 -4 -8 -9 -4 -5 3 -12 1 -16 -5 -3 -5 2 -10 12 -11
10 0 13 -3 6 -5 -9 -4 -6 -16 8 -41 11 -20 18 -44 16 -54 -3 -10 0 -20 7 -22
8 -3 7 -9 -3 -21 -11 -13 -23 -16 -49 -11 -20 4 -32 3 -28 -3 9 -16 61 -21
264 -28 186 -6 192 -5 192 14 0 11 -7 25 -15 32 -19 16 -19 31 0 24 13 -5 15
9 15 90 0 92 1 96 23 97 49 3 522 -3 526 -7 2 -2 -109 -4 -247 -4 l-252 0 0
-60 0 -60 394 0 c232 0 405 4 420 10 14 5 26 16 26 25 0 8 9 15 20 15 14 0 18
5 14 17 -4 11 -2 14 3 8 18 -22 62 -45 68 -35 4 6 12 7 23 1 9 -5 26 -5 38 -1
16 7 24 5 28 -6 5 -12 9 -13 28 -2 13 7 27 11 32 10 4 -2 15 3 24 10 13 11 15
10 10 -2 -3 -9 0 -24 8 -35 12 -16 11 -20 -6 -32 -21 -15 -45 -9 -34 8 3 5 10
7 15 4 5 -4 9 1 9 10 0 9 -4 14 -9 11 -5 -4 -11 -1 -13 5 -4 12 -48 3 -47 -9
3 -18 -3 -21 -28 -12 -26 9 -27 9 -9 -5 11 -8 29 -12 43 -9 15 4 23 2 23 -6 0
-8 -11 -11 -30 -8 -19 3 -29 1 -27 -6 2 -6 17 -11 33 -11 16 -1 34 -4 41 -8 6
-4 13 -2 15 5 3 9 6 9 12 0 4 -7 2 -12 -3 -12 -6 0 -11 -7 -11 -15 0 -8 5 -15
10 -15 6 0 22 -11 35 -25 16 -18 25 -22 28 -13 4 9 6 8 6 -3 1 -17 31 -36 31
-19 0 15 -31 40 -42 34 -7 -5 -9 2 -6 19 4 19 0 27 -14 30 -12 4 -16 10 -11
23 5 13 3 15 -8 10 -8 -4 -4 1 8 12 20 18 21 21 7 33 -8 7 -13 21 -11 31 3 10
1 18 -4 18 -5 0 -8 6 -7 13 2 7 -9 13 -27 14 -20 1 -23 0 -7 -4 38 -8 16 -19
-29 -15 l-43 4 27 15 c55 28 20 48 -71 39 -43 -5 -53 -3 -39 5 12 7 70 10 158
7 76 -1 140 1 142 5 1 5 14 6 29 2 20 -5 25 -12 22 -28 -5 -22 -4 -22 5 0 14
31 37 19 38 -20 1 -86 2 -90 19 -73 8 9 22 16 29 16 15 0 40 -38 31 -47 -3 -3
-8 2 -12 11 -3 9 -16 16 -28 15 -20 0 -20 -1 -1 -9 11 -5 16 -9 10 -10 -5 0 2
-8 18 -16 15 -8 27 -19 27 -24 0 -6 7 -10 15 -10 8 0 12 6 9 15 -5 11 0 13 25
5 17 -4 36 -12 43 -16 8 -5 7 -1 -2 11 -14 17 -14 17 7 5 12 -8 20 -17 18 -20
-2 -3 9 -5 23 -4 l27 1 0 1894 c0 1042 -2 2002 -5 2134 -5 205 -6 169 -10
-245 -2 -267 -3 -555 -3 -640 0 -85 -2 -120 -4 -77 -2 42 -8 77 -13 77 -6 0
-10 18 -10 41 0 22 4 38 8 35 5 -3 5 23 1 57 -13 99 -18 117 -14 47 2 -36 0
-110 -4 -165 -6 -81 -8 -88 -10 -40 0 33 -4 77 -7 98 -6 35 -8 37 -45 37 l-38
0 -4 48 c-3 46 -3 46 -5 -10 -3 -79 -22 -74 -22 5 0 34 -5 69 -10 77 -7 10
-10 -9 -10 -62 0 -43 -4 -78 -8 -78 -15 0 -22 207 -22 628 0 261 -3 402 -10
402 -7 0 -10 -153 -10 -440 0 -287 -3 -440 -10 -440 -6 0 -10 47 -10 122 0 67
-2 119 -5 116 -3 -3 -8 -49 -10 -103 -2 -54 -7 -100 -11 -104 -4 -3 -4 44 -1
104 2 61 3 99 1 85 -3 -14 -7 -40 -10 -58 -4 -28 -8 -31 -20 -22 -9 8 -14 32
-14 65 0 46 -4 56 -27 75 -26 20 -28 29 -34 113 -3 51 -6 73 -7 50 -3 -74 -22
-48 -22 30 0 47 -7 91 -20 126 -16 46 -18 69 -13 167 5 102 4 114 -10 114 -15
0 -17 -22 -19 -202 -1 -152 -3 -182 -8 -118 -4 48 -7 68 -9 45 -1 -22 -6 -49
-11 -60 -7 -14 -8 -8 -4 20 3 22 1 67 -4 100 -9 56 -10 57 -11 18 -1 -36 -4
-43 -21 -43 -17 0 -20 7 -20 40 0 22 -4 40 -10 40 -6 0 -10 33 -10 80 0 79 0
80 -25 80 -17 0 -25 -6 -26 -17 0 -15 -2 -15 -9 2 -7 16 -9 10 -11 -25 l-2
-45 -7 45 c-6 42 -6 43 -12 15 l-5 -30 -2 28 -1 27 -1080 0 -1080 0 0 -55 c0
-30 -4 -55 -9 -55 -5 0 -7 25 -5 55 4 44 2 55 -10 55 -10 0 -16 -13 -19 -37
l-4 -38 -1 38 -2 37 -475 0 c-424 0 -475 -2 -475 -16 0 -8 -4 -12 -10 -9 -11
7 -13 -15 -4 -40 5 -13 8 -14 15 -3 6 9 9 7 9 -9 0 -38 -27 -16 -40 32 l-12
45 -474 0 -474 0 32 -58 c17 -31 94 -167 171 -302 77 -135 154 -275 172 -312
18 -37 42 -80 52 -95 33 -46 124 -225 119 -231 -3 -3 -10 6 -15 19 -8 21 -10
22 -16 7 -9 -22 -27 -24 -19 -3 4 8 1 15 -5 15 -17 0 -13 -25 9 -65 11 -20 20
-39 20 -42 0 -14 -51 63 -57 85 -3 12 -9 22 -14 22 -5 0 -8 3 -8 8 4 24 -3 43
-18 49 -10 4 -24 15 -32 26 -9 12 -21 17 -35 13 -28 -7 -427 -6 -488 1 -40 4
-48 2 -48 -11 0 -9 5 -16 10 -16 6 0 10 -4 10 -10 0 -7 -121 -9 -347 -8 -192
1 -322 3 -290 5 31 2 57 8 57 14 0 5 -12 7 -27 3 -16 -4 -24 -3 -20 2 10 10
-65 33 -143 44 -37 5 22 8 175 10 127 1 280 6 340 9 97 6 86 7 -93 8 -199 1
-289 11 -141 15 41 1 -16 5 -126 8 l-200 6 320 4 320 4 -185 7 c-102 3 -257 8
-345 10 -104 2 -26 6 220 9 l380 5 -365 5 -365 5 565 5 c311 3 576 2 590 -2
l25 -7 -25 0 c-39 2 -47 -2 -25 -11 13 -6 -20 -9 -95 -11 l-115 -2 115 -7 c63
-4 155 -8 204 -9 l90 -1 -22 20 c-12 11 -26 20 -33 20 -8 0 -8 4 -1 13 9 10
-109 13 -626 12 -627 0 -637 0 -667 -21 -16 -11 -68 -40 -115 -64 -47 -24
-128 -67 -181 -96 -66 -36 -107 -52 -133 -52 -20 0 -36 3 -36 8 0 4 -11 5 -25
2 -33 -6 -32 3 2 21 48 25 413 231 525 295 60 34 110 62 113 62 3 0 47 24 98
53 50 30 142 80 202 112 61 32 115 62 122 67 7 6 18 6 24 2 7 -4 9 -3 6 3 -13
22 105 51 137 34 6 -2 76 -5 156 -5 l146 -1 -12 24 c-12 22 -18 24 -71 22 -60
-3 -69 9 -11 14 18 2 38 3 45 4 13 1 -26 81 -85 173 l-37 58 -265 -2 c-146 0
-292 -4 -325 -8z m4935 -160 l-11 -25 6 25 c2 14 6 41 7 60 l1 35 4 -35 c2
-20 -1 -47 -7 -60z m-5627 53 c-7 -2 -19 -2 -25 0 -7 3 -2 5 12 5 14 0 19 -2
13 -5z m536 3 c-9 -8 -218 -13 -213 -5 3 5 53 9 111 9 59 0 104 -2 102 -4z
m1878 -18 c-3 -8 -6 -5 -6 6 -1 11 2 17 5 13 3 -3 4 -12 1 -19z m-1974 -5 c-7
-2 -19 -2 -25 0 -7 3 -2 5 12 5 14 0 19 -2 13 -5z m-80 -30 c-7 -2 -21 -2 -30
0 -10 3 -4 5 12 5 17 0 24 -2 18 -5z m5224 -15 c-3 -8 -6 -5 -6 6 -1 11 2 17
5 13 3 -3 4 -12 1 -19z m-4297 8 c0 -2 -7 -7 -16 -10 -8 -3 -12 -2 -9 4 6 10
25 14 25 6z m-102 -56 c-20 -11 -40 -24 -43 -30 -3 -5 -14 -10 -23 -10 -13 0
-12 3 6 16 32 22 75 44 87 43 6 0 -7 -9 -27 -19z m32 -15 c-7 -8 -20 -15 -29
-15 -11 1 -8 5 9 15 32 18 35 18 20 0z m-50 -25 c0 -5 -5 -10 -11 -10 -5 0 -7
5 -4 10 3 6 8 10 11 10 2 0 4 -4 4 -10z m225 -1 c4 -5 -32 -9 -85 -9 -57 0
-89 4 -85 10 7 12 163 12 170 -1z m35 1 c0 -5 -2 -10 -4 -10 -3 0 -8 5 -11 10
-3 6 -1 10 4 10 6 0 11 -4 11 -10z m-1171 -36 c2 -2 -63 -3 -145 -2 -104 1
-132 3 -94 8 52 6 230 1 239 -6z m5298 -76 c-2 -13 -4 -3 -4 22 0 25 2 35 4
23 2 -13 2 -33 0 -45z m30 0 c-2 -13 -4 -3 -4 22 0 25 2 35 4 23 2 -13 2 -33
0 -45z m-5560 -25 c-20 -2 -52 -2 -70 0 -17 2 0 4 38 4 39 0 53 -2 32 -4z
m5800 -55 c-2 -13 -4 -3 -4 22 0 25 2 35 4 23 2 -13 2 -33 0 -45z m-40 -55
c-3 -10 -5 -4 -5 12 0 17 2 24 5 18 2 -7 2 -21 0 -30z m-4089 -240 c-15 -2
-42 -2 -60 0 -18 2 -6 4 27 4 33 0 48 -2 33 -4z m-1025 -50 c-13 -2 -35 -2
-50 0 -16 2 -5 4 22 4 28 0 40 -2 28 -4z m818 -83 c44 0 68 -4 64 -10 -4 -6
-52 -10 -113 -9 -99 1 -105 2 -77 14 17 8 36 12 43 10 8 -3 45 -5 83 -5z m319
0 c0 -5 -2 -10 -4 -10 -3 0 -8 5 -11 10 -3 6 -1 10 4 10 6 0 11 -4 11 -10z
m-177 -7 c-13 -2 -33 -2 -45 0 -13 2 -3 4 22 4 25 0 35 -2 23 -4z m85 0 c-10
-2 -28 -2 -40 0 -13 2 -5 4 17 4 22 1 32 -1 23 -4z m-395 -10 c-7 -2 -21 -2
-30 0 -10 3 -4 5 12 5 17 0 24 -2 18 -5z m-233 -17 c0 -9 -30 -14 -35 -6 -4 6
3 10 14 10 12 0 21 -2 21 -4z m188 -5 c7 -4 -24 -6 -70 -4 -111 6 -121 11 -23
12 44 0 86 -3 93 -8z m-1088 -105 c47 -33 121 -87 165 -121 44 -33 160 -118
258 -189 97 -71 177 -130 177 -132 0 -9 -19 -3 -32 9 -33 30 -110 77 -119 71
-5 -3 -8 0 -7 8 2 7 -4 12 -14 10 -12 -2 -16 2 -12 13 6 14 -5 19 -33 16 -7
-1 -13 2 -13 7 0 5 -16 17 -35 28 -19 10 -35 22 -35 26 0 8 -41 23 -53 20 -5
-1 -6 2 -2 8 3 5 -11 20 -32 32 -21 13 -38 21 -39 18 0 -3 -8 1 -17 9 -9 7
-14 17 -12 22 6 9 -74 63 -82 55 -3 -2 14 -14 37 -26 23 -12 39 -24 36 -27 -3
-3 -24 7 -47 23 -23 16 -49 34 -58 39 -69 44 -100 69 -94 78 4 6 1 7 -6 2 -7
-4 -22 1 -34 13 -12 11 -35 27 -52 35 -18 10 -23 16 -14 17 9 0 20 7 23 16 7
19 9 18 146 -80z m773 77 c-7 -2 -19 -2 -25 0 -7 3 -2 5 12 5 14 0 19 -2 13
-5z m547 -3 c-51 -5 -35 -7 78 -8 80 -1 142 -6 142 -11 0 -6 15 -12 33 -14 17
-2 -128 -4 -323 -3 -215 0 -306 2 -230 6 108 5 91 7 -135 10 l-260 4 255 6
c253 5 254 5 100 10 -118 4 -88 6 125 6 154 0 251 -2 215 -6z m327 -16 c-3 -3
-12 -4 -19 -1 -8 3 -5 6 6 6 11 1 17 -2 13 -5z m-1839 -19 c2 -1 -3 -5 -10 -8
-8 -2 -23 2 -33 10 -19 13 -18 14 10 7 17 -4 31 -8 33 -9z m1841 -31 c2 -2
-78 -4 -179 -4 -101 0 -181 -2 -179 -5 3 -2 78 -5 167 -5 90 -1 162 -6 162
-11 0 -5 -15 -9 -32 -10 -31 -1 -32 -1 -8 -9 14 -4 -150 -8 -363 -9 -292 -1
-386 2 -381 11 5 8 -6 10 -43 5 -67 -8 -244 4 -218 14 11 4 94 9 185 10 l165
3 -130 6 c-109 4 -86 6 150 10 266 5 695 1 704 -6z m4241 -54 c0 -22 -4 -40
-10 -40 -5 0 -10 18 -10 40 0 22 5 40 10 40 6 0 10 -18 10 -40z m-5122 -17
c-10 -2 -28 -2 -40 0 -13 2 -5 4 17 4 22 1 32 -1 23 -4z m610 0 c-104 -2 -272
-2 -375 0 -104 1 -19 2 187 2 206 0 291 -1 188 -2z m111 -29 c2 -2 -36 -5 -85
-6 l-89 -2 75 -6 c63 -5 53 -7 -69 -8 -79 -1 -142 -4 -139 -7 2 -3 38 -8 79
-11 41 -3 76 -8 78 -10 2 -2 -76 -4 -175 -4 -104 0 -173 4 -165 9 9 6 10 11 2
15 -6 4 -9 11 -6 16 7 11 -59 24 -81 16 -15 -6 -15 -8 1 -26 9 -10 29 -21 44
-23 14 -2 -10 -4 -54 -5 -44 0 -91 4 -105 9 l-25 9 27 -4 c15 -2 44 0 65 4 26
5 3 8 -76 9 -92 1 -113 4 -103 14 7 7 51 14 100 17 97 7 694 1 701 -6z m-338
-76 c-23 -6 -37 -6 -44 1 -8 8 2 11 34 10 l44 -1 -34 -10z m74 2 c-3 -5 -12
-10 -18 -10 -7 0 -6 4 3 10 19 12 23 12 15 0z m4832 -62 c-2 -13 -4 -3 -4 22
0 25 2 35 4 23 2 -13 2 -33 0 -45z m-4748 36 c15 -14 -36 -19 -229 -22 -141
-2 -225 0 -237 7 -13 8 9 10 90 11 60 0 106 3 104 8 -5 7 264 4 272 -4z m4758
-256 c-2 -24 -4 -5 -4 42 0 47 2 66 4 43 2 -24 2 -62 0 -85z m-6167 -73 c37
-19 71 -39 74 -44 5 -8 -139 63 -153 75 -14 12 18 0 79 -31z m20 -50 c79 -41
144 -75 146 -75 7 0 204 -112 204 -116 0 -5 -46 15 -116 53 -159 84 -359 183
-370 183 -7 0 -14 7 -18 15 -3 8 -2 15 3 15 5 0 72 -34 151 -75z m90 -83 l235
-119 6 -109 c4 -60 7 -209 8 -331 1 -193 -1 -223 -14 -223 -19 0 -131 30 -290
77 -66 20 -137 40 -158 45 l-37 10 0 384 c0 211 3 384 8 384 4 0 113 -53 242
-118z m6057 26 c-2 -13 -4 -3 -4 22 0 25 2 35 4 23 2 -13 2 -33 0 -45z m-6007
22 c22 -11 40 -23 40 -25 0 -5 -79 32 -89 41 -11 10 14 2 49 -16z m360 -180
c8 -5 11 -10 5 -10 -5 0 -17 5 -25 10 -8 5 -10 10 -5 10 6 0 17 -5 25 -10z
m-130 -335 c0 -263 -3 -333 -12 -330 -16 6 -13 665 2 665 6 0 10 -124 10 -335z
m217 249 c65 -36 123 -70 128 -76 11 -13 -245 119 -259 133 -26 25 24 3 131
-57z m36 25 c53 -31 42 -32 -25 -1 -21 9 -38 20 -38 25 0 12 8 9 63 -24z
m-206 -461 c-1 -90 -3 -17 -3 162 0 179 2 252 3 163 2 -90 2 -236 0 -325z
m161 406 c59 -32 114 -62 122 -69 8 -7 36 -22 63 -34 l47 -23 0 -275 c0 -258
-1 -275 -17 -268 -10 3 -48 13 -84 20 -36 8 -109 28 -162 45 l-97 31 0 314 c0
219 3 315 11 315 6 0 59 -25 117 -56z m263 -407 c0 -148 -2 -271 -5 -274 -3
-4 -6 119 -6 272 0 153 2 276 5 274 2 -3 5 -125 6 -272z m76 181 c-3 -8 -6 -5
-6 6 -1 11 2 17 5 13 3 -3 4 -12 1 -19z m1975 -210 c2 -119 -1 -176 -9 -187
-6 -9 -15 -13 -19 -8 -4 4 -2 7 4 7 7 0 12 5 12 10 0 7 -163 10 -469 10 -344
0 -472 3 -477 12 -4 6 -3 9 2 6 5 -3 15 0 22 8 11 12 10 14 -5 15 -11 0 -13 3
-5 6 7 3 12 23 12 49 0 26 5 44 11 44 17 0 5 97 -15 118 -24 28 -20 50 12 55
15 2 6 5 -23 5 -27 1 -45 -2 -40 -6 6 -4 11 -91 12 -214 l3 -208 -93 -1 c-50
-1 -116 -3 -144 -4 l-53 -2 0 211 c0 116 4 217 8 223 8 13 91 15 919 21 l332
2 3 -172z m-1965 85 c-3 -10 -5 -2 -5 17 0 19 2 27 5 18 2 -10 2 -26 0 -35z
m20 -290 c-1 -49 -3 -9 -3 87 0 96 2 136 3 88 2 -49 2 -127 0 -175z m-20 115
c-2 -13 -4 -3 -4 22 0 25 2 35 4 23 2 -13 2 -33 0 -45z m-984 27 c143 -38 335
-95 307 -91 -49 7 -395 99 -404 107 -15 13 -3 11 97 -16z m32 -36 c66 -17 171
-44 234 -59 62 -16 115 -30 116 -32 2 -2 6 -396 9 -876 3 -480 8 -877 11 -881
4 -8 -277 -107 -335 -118 -14 -2 -53 -16 -88 -30 -35 -14 -65 -23 -68 -21 -7
7 -12 2048 -5 2048 3 0 60 -14 126 -31z m395 -974 c0 -577 -3 -875 -10 -875
-11 0 -15 1732 -3 1743 3 4 8 7 10 7 2 0 3 -394 3 -875z m134 844 c-1 -3 59
-23 136 -44 138 -37 139 -38 138 -66 -1 -16 2 -32 5 -36 4 -3 7 9 7 27 0 18 2
31 5 29 2 -3 6 -338 8 -745 l4 -740 -146 -48 c-80 -27 -155 -52 -166 -56 -11
-4 -24 -8 -30 -9 -7 -1 -10 288 -11 847 l-2 849 28 -1 c16 -1 26 -4 24 -7z
m1395 -396 c2 -321 -7 -523 -23 -520 -6 1 -10 -2 -9 -8 1 -5 -10 -11 -24 -12
-44 -2 -92 -35 -100 -68 -4 -16 -6 -37 -5 -45 1 -10 -1 -11 -4 -2 -10 22 -24
12 -18 -13 5 -20 2 -25 -12 -26 -11 -1 -5 -4 11 -8 30 -6 30 -6 -22 -28 l-53
-22 -1 82 c-1 92 -6 280 -8 285 -1 2 -13 -11 -27 -28 -39 -45 -66 -101 -68
-135 -1 -26 -6 -30 -34 -33 -19 -2 -32 1 -32 8 0 6 4 8 10 5 6 -3 7 1 4 9 -3
9 -11 16 -18 17 -6 0 -1 4 11 9 12 5 39 33 61 62 43 57 88 102 112 111 12 4
12 6 -2 6 -15 1 -16 29 -17 311 l0 310 133 0 133 0 2 -267z m502 220 c-8 -15
-10 -15 -11 -2 0 17 10 32 18 25 2 -3 -1 -13 -7 -23z m53 13 c-3 -8 -12 -17
-20 -20 -11 -4 -12 -2 -1 14 14 23 29 27 21 6z m292 6 c-3 -2 -20 -6 -38 -8
-21 -3 -28 -1 -19 5 14 9 66 12 57 3z m-236 -18 c0 -2 -9 -4 -20 -4 -11 0 -20
4 -20 9 0 5 9 7 20 4 11 -3 20 -7 20 -9z m-250 -19 c-7 -8 -17 -12 -23 -8 -6
4 -3 9 9 14 27 11 28 11 14 -6z m-13 -51 c-3 -3 -12 -4 -19 -1 -8 3 -5 6 6 6
11 1 17 -2 13 -5z m436 -11 c-3 -7 -6 -13 -8 -13 -2 0 -5 6 -8 13 -3 8 1 14 8
14 7 0 11 -6 8 -14z m-244 -18 c2 -2 0 -25 -3 -50 -8 -48 -27 -64 -21 -16 3
24 0 28 -16 24 -13 -4 -18 -11 -15 -22 4 -12 2 -11 -7 2 -34 52 -35 53 -30 23
5 -25 3 -28 -16 -21 -16 5 -20 3 -15 -9 3 -9 12 -16 20 -16 8 0 14 -4 14 -9 0
-10 -26 -9 -36 2 -12 12 -24 8 -24 -8 0 -26 -52 -23 -92 5 -23 17 -27 17 -32
4 -3 -8 -10 -13 -16 -9 -14 8 12 46 27 40 12 -4 17 13 14 41 -2 14 51 5 61
-10 11 -16 10 -28 -2 -21 -5 3 -18 1 -27 -4 -15 -9 -13 -10 14 -11 17 0 40 -3
50 -6 14 -4 15 -4 4 4 -11 8 -9 11 8 17 11 3 25 3 31 0 5 -3 10 -3 10 2 -1 18
-17 28 -49 28 -19 1 -37 7 -39 14 -6 18 92 5 126 -17 26 -16 26 -16 12 2 -8
10 -23 22 -35 27 -13 6 -4 7 30 3 28 -3 52 -7 54 -9z m345 -10 c11 -8 16 -15
10 -15 -5 0 -18 7 -28 15 -11 8 -16 15 -10 15 5 0 18 -7 28 -15z m-614 -16 c0
-6 -4 -7 -10 -4 -5 3 -10 11 -10 16 0 6 5 7 10 4 6 -3 10 -11 10 -16z m-25 -9
c3 -5 1 -10 -4 -10 -6 0 -11 5 -11 10 0 6 2 10 4 10 3 0 8 -4 11 -10z m380 -2
c5 4 5 2 1 -5 -4 -7 -13 -10 -21 -6 -8 3 -15 -1 -15 -8 0 -7 -2 -10 -5 -7 -3
3 -3 13 1 22 4 12 10 14 19 6 6 -5 16 -6 20 -2z m85 -30 c0 -5 12 -9 28 -8 47
3 62 0 62 -13 0 -7 -9 -13 -20 -13 -11 0 -20 4 -20 9 0 5 -7 4 -15 -3 -11 -9
-19 -9 -28 -2 -7 6 -22 9 -33 6 -12 -3 -26 1 -33 10 -10 12 -11 16 -1 16 7 0
10 6 7 14 -5 12 -1 13 24 4 16 -5 29 -14 29 -20z m290 -5 c0 -25 -3 -33 -9
-25 -6 11 -10 10 -15 -4 -6 -16 -8 -16 -26 1 -24 21 -16 38 13 30 12 -2 16 -2
10 1 -18 8 -16 25 2 18 8 -4 15 -1 15 5 0 6 2 11 5 11 3 0 5 -17 5 -37z m1516
6 c-8 12 13 15 30 3 14 -10 41 -69 54 -123 10 -41 9 -176 -2 -219 -3 -8 -8
-29 -12 -46 -4 -19 -17 -36 -34 -45 -15 -7 -38 -22 -52 -32 -15 -12 -37 -17
-60 -15 -33 3 -36 1 -46 -37 -7 -22 -17 -56 -23 -75 -10 -33 -10 -33 -6 15 3
28 8 62 11 78 5 20 3 27 -9 27 -9 0 -30 12 -48 27 -30 26 -31 26 -20 4 9 -16
11 -47 6 -107 -7 -78 -6 -86 11 -91 11 -2 30 -18 43 -34 l23 -30 -23 -25 c-15
-16 -28 -48 -36 -92 l-13 -67 4 55 c3 30 7 63 11 73 5 12 2 17 -9 17 -20 0
-22 -21 -16 -177 1 -43 5 -67 7 -53 3 14 9 30 14 36 5 6 16 31 24 55 21 59 82
180 107 210 13 15 9 3 -9 -31 -17 -30 -56 -118 -89 -195 -45 -107 -60 -133
-62 -112 -4 33 -22 36 -23 5 -1 -14 -6 -5 -13 22 -11 39 -14 42 -18 20 -4 -20
-6 -18 -7 11 0 20 -4 51 -8 69 -4 24 -3 31 6 26 8 -5 10 5 7 39 -2 31 0 43 6
37 6 -6 9 -42 6 -80 -2 -39 0 -68 4 -66 4 3 8 52 8 110 0 61 -4 103 -9 99 -5
-3 -17 2 -26 11 -21 22 -28 13 -15 -20 5 -15 9 -48 9 -74 -1 -43 -3 -40 -15
31 -7 43 -19 88 -27 100 -14 22 -67 184 -67 206 0 21 39 -8 111 -80 l69 -68 0
83 c0 71 -3 87 -22 112 -20 25 -23 40 -22 114 0 47 3 104 5 128 3 38 5 41 17
25 9 -11 12 -33 9 -58 -3 -22 -2 -58 1 -80 6 -33 14 -43 47 -62 49 -28 65 -30
34 -3 -26 21 -19 26 12 10 22 -12 25 -5 5 15 -7 8 -22 11 -34 9 -11 -3 -23 0
-27 6 -5 9 -1 10 16 5 23 -7 23 -7 7 12 -26 28 -22 40 5 16 25 -22 62 -39 52
-23 -3 6 -13 10 -22 10 -9 0 -13 3 -10 7 9 9 -23 44 -34 37 -5 -3 -6 2 -3 10
5 13 12 11 42 -11 l37 -26 -38 38 c-32 30 -35 36 -15 30 23 -8 23 -8 4 14 -19
21 -19 22 -1 15 15 -6 17 -4 12 10 -6 14 -3 17 10 12 15 -6 15 -4 -2 14 -14
16 -15 20 -4 20 8 0 21 -6 28 -12 10 -11 11 -9 5 6 -7 18 -6 18 22 1 l29 -17
-24 21 c-12 11 -27 19 -31 16 -5 -3 -11 -1 -15 5 -3 6 1 13 9 16 9 3 16 13 16
21 0 13 4 13 26 -2 14 -9 28 -14 31 -12 2 3 -5 10 -16 17 -12 6 -21 15 -21 21
0 6 5 7 10 4 6 -3 13 1 16 9 3 9 13 16 21 16 8 0 11 5 7 11 -4 7 1 7 16 -1 15
-8 20 -8 16 -1z m-1912 -24 c-4 -8 -8 -15 -10 -15 -2 0 -4 7 -4 15 0 8 4 15
10 15 5 0 7 -7 4 -15z m31 6 c3 -5 1 -12 -5 -16 -5 -3 -10 1 -10 9 0 18 6 21
15 7z m-375 -41 c0 -5 -4 -10 -9 -10 -6 0 -13 5 -16 10 -3 6 1 10 9 10 9 0 16
-4 16 -10z m290 -15 c10 -12 10 -15 -1 -16 -10 0 -11 -2 -1 -6 6 -2 12 -8 12
-12 0 -9 -86 -8 -96 2 -4 4 9 7 29 7 26 0 37 4 37 15 0 8 -4 15 -10 15 -5 0
-10 -4 -10 -10 0 -5 -10 -10 -22 -10 -21 0 -21 0 -2 15 25 19 48 19 64 0z m40
0 c0 -8 -4 -15 -9 -15 -5 0 -11 7 -15 15 -3 9 0 15 9 15 8 0 15 -7 15 -15z
m220 6 c0 -5 11 -8 25 -8 14 0 25 3 25 8 0 5 5 9 11 9 5 0 8 -4 5 -9 -4 -5 0
-12 6 -15 7 -3 -2 -4 -20 -3 -18 2 -35 0 -38 -5 -8 -13 -18 -9 -32 12 -10 17
-10 20 3 20 8 0 15 -4 15 -9z m-506 -32 c-3 -5 -13 -9 -22 -8 -11 0 -12 2 -4
6 6 2 10 9 7 14 -4 5 1 6 9 3 9 -3 13 -10 10 -15z m486 5 c0 -8 -4 -12 -10 -9
-5 3 -10 10 -10 16 0 5 5 9 10 9 6 0 10 -7 10 -16z m-170 -8 c0 -2 -9 -6 -20
-9 -11 -3 -20 -1 -20 4 0 5 9 9 20 9 11 0 20 -2 20 -4z m127 -48 c-3 -8 -6 -5
-6 6 -1 11 2 17 5 13 3 -3 4 -12 1 -19z m48 12 c-3 -5 -11 -10 -16 -10 -6 0
-7 5 -4 10 3 6 11 10 16 10 6 0 7 -4 4 -10z m-485 -15 c0 -8 5 -15 10 -15 6 0
10 5 10 11 0 8 5 8 15 -1 21 -17 19 -33 -3 -28 -10 3 -19 0 -19 -6 0 -8 30
-12 91 -13 158 -2 162 -3 148 -12 -8 -4 -14 -12 -14 -17 0 -23 -18 -38 -49
-40 -37 -3 -75 -9 -99 -16 -8 -3 -12 -3 -7 -1 14 9 7 23 -13 23 -10 0 -23 -7
-28 -16 -5 -10 -12 -12 -15 -7 -4 6 1 19 11 29 14 16 26 18 64 14 29 -4 49 -2
52 5 3 6 9 4 15 -5 12 -18 24 -9 15 13 -5 13 -10 14 -30 5 -18 -8 -27 -8 -39
2 -11 9 -19 10 -23 3 -8 -12 -41 -11 -62 2 -13 7 -13 6 -2 -7 17 -22 5 -27
-43 -19 -34 6 -37 8 -18 15 14 4 20 12 16 22 -3 8 1 14 8 14 10 0 10 3 1 12
-15 15 -16 48 -2 48 6 0 10 -7 10 -15z m-30 -11 c0 -2 -7 -4 -15 -4 -8 0 -15
4 -15 10 0 5 7 7 15 4 8 -4 15 -8 15 -10z m-1 -36 c-6 -11 -11 -18 -12 -16 -1
1 -10 12 -20 24 -17 20 -16 20 13 16 26 -4 28 -7 19 -24z m495 20 c-3 -4 -11
-5 -19 -1 -21 7 -19 12 4 10 11 0 18 -5 15 -9z m36 -2 c0 -3 -4 -8 -10 -11 -5
-3 -10 -1 -10 4 0 6 5 11 10 11 6 0 10 -2 10 -4z m188 -103 c-1 -55 -3 -70 -5
-39 -4 46 -5 47 -23 31 -11 -10 -24 -14 -31 -9 -9 5 -7 10 7 15 18 7 17 8 -3
8 -12 1 -25 -3 -28 -9 -3 -5 -13 -10 -22 -10 -11 0 -9 5 8 19 17 13 34 18 59
14 31 -4 33 -3 15 8 -11 6 -21 13 -23 14 -5 4 10 35 18 35 5 0 11 -8 13 -17 4
-14 5 -12 6 5 0 12 3 22 6 22 3 0 4 -39 3 -87z m-391 58 c10 -16 9 -20 -8 -24
-10 -3 -19 -1 -19 4 0 5 5 9 11 9 8 0 8 5 -1 15 -7 8 -8 15 -4 15 5 0 15 -9
21 -19z m113 -5 c0 -2 -7 -9 -15 -16 -13 -11 -14 -10 -9 4 5 14 24 23 24 12z
m-85 -26 c-4 -7 12 -9 44 -7 30 1 49 -2 48 -8 -1 -5 12 -9 28 -8 17 1 22 -1
13 -4 -10 -2 -18 -9 -18 -13 0 -6 11 -6 25 0 20 8 25 6 25 -6 0 -12 -10 -15
-47 -12 -27 2 -54 7 -60 11 -8 5 -13 3 -13 -4 0 -10 -3 -10 -12 -1 -7 7 -25
12 -40 12 -21 0 -28 5 -28 19 0 11 8 22 18 24 9 3 18 5 20 6 2 0 0 -4 -3 -9z
m-54 -37 c-8 -15 -10 -15 -11 -2 0 17 10 32 18 25 2 -3 -1 -13 -7 -23z m-97
-8 c-4 -8 -15 -15 -25 -15 -17 0 -18 2 -7 15 17 19 39 19 32 0z m-59 -15 c-3
-5 -10 -10 -16 -10 -5 0 -9 5 -9 10 0 6 7 10 16 10 8 0 12 -4 9 -10z m462 4
c-3 -3 -12 -4 -19 -1 -8 3 -5 6 6 6 11 1 17 -2 13 -5z m-334 -14 c10 0 15 -5
12 -10 -4 -6 -1 -17 5 -25 9 -11 9 -15 1 -15 -6 0 -11 5 -11 10 0 19 -17 10
-28 -15 -8 -16 -20 -25 -34 -25 -19 0 -20 2 -8 10 13 8 12 10 -4 10 -16 0 -17
3 -8 12 20 20 14 30 -15 28 -47 -3 -50 2 -8 16 22 7 49 11 60 9 11 -3 28 -5
38 -5z m-1053 -29 c0 -16 5 -42 11 -58 6 -15 11 -54 11 -87 0 -32 3 -54 7 -48
3 5 7 -19 8 -53 3 -60 1 -65 -26 -84 -27 -20 -29 -24 -25 -83 2 -47 1 -55 -5
-33 -5 17 -9 47 -10 68 -1 34 -9 42 -34 38 -5 -1 -6 3 -3 8 3 5 -1 22 -9 37
-19 36 -11 191 13 249 29 73 62 97 62 46z m823 11 c-16 -11 -16 -14 -3 -22 12
-8 11 -10 -7 -10 -14 0 -23 6 -23 15 0 9 -6 12 -15 9 -8 -4 -15 -1 -15 6 0 6
4 9 9 5 5 -3 12 -2 14 2 3 5 17 8 31 8 24 0 25 -1 9 -13z m271 2 c3 -8 2 -12
-4 -9 -6 3 -10 10 -10 16 0 14 7 11 14 -7z m210 -11 c-35 -30 -56 -30 -24 0
14 13 31 24 38 24 7 0 1 -11 -14 -24z m74 -1 c2 -7 -2 -10 -12 -6 -9 3 -16 11
-16 16 0 13 23 5 28 -10z m-38 -6 c0 -3 -4 -8 -10 -11 -5 -3 -10 -1 -10 4 0 6
5 11 10 11 6 0 10 -2 10 -4z m157 -78 c-2 -13 -4 -3 -4 22 0 25 2 35 4 23 2
-13 2 -33 0 -45z m-185 20 c-7 -7 -12 -8 -12 -2 0 6 3 14 7 17 3 4 9 5 12 2 2
-3 -1 -11 -7 -17z m198 -69 c0 -6 -4 -7 -10 -4 -5 3 -10 11 -10 16 0 6 5 7 10
4 6 -3 10 -11 10 -16z m889 -48 c36 -15 83 -39 105 -54 l38 -26 -26 -12 c-14
-7 -23 -16 -20 -20 3 -5 -2 -6 -10 -3 -9 3 -16 13 -16 21 0 9 -6 13 -15 9 -8
-3 -14 -2 -12 2 1 4 -6 18 -15 31 -16 23 -18 23 -34 6 -17 -17 -17 -17 6 -10
24 7 24 6 8 -11 -14 -14 -20 -15 -32 -4 -20 16 -20 30 -1 30 8 0 15 4 15 9 0
5 8 11 18 14 9 2 3 4 -15 4 -25 0 -33 -5 -37 -24 -4 -12 -11 -23 -17 -23 -7 0
-9 9 -6 21 4 16 3 18 -8 9 -14 -12 -65 -3 -65 11 0 5 -7 9 -16 9 -8 0 -13 4
-10 9 4 5 0 12 -6 14 -10 4 -9 8 2 16 22 15 92 3 169 -28z m-2598 12 c13 -16
12 -17 -3 -4 -10 7 -18 15 -18 17 0 8 8 3 21 -13z m3329 7 c0 -5 -8 -10 -18
-10 -10 0 -22 -4 -27 -8 -12 -10 -89 -38 -130 -46 -48 -10 -9 12 55 30 30 9
60 20 65 24 6 4 19 10 30 13 11 2 21 5 23 6 1 0 2 -3 2 -9z m-1860 -4 c0 -3
-4 -8 -10 -11 -5 -3 -10 -1 -10 4 0 6 5 11 10 11 6 0 10 -2 10 -4z m-1710
-366 l0 -311 -27 26 -28 25 2 217 c1 230 9 327 24 318 5 -4 9 3 9 14 0 12 5
21 10 21 6 0 10 -110 10 -310z m3443 276 c-15 -13 -30 -23 -32 -20 -5 4 41 43
52 44 4 0 -5 -11 -20 -24z m-93 10 c0 -3 -4 -8 -10 -11 -5 -3 -10 -1 -10 4 0
6 5 11 10 11 6 0 10 -2 10 -4z m-1505 -45 c3 -5 0 -13 -6 -17 -8 -4 -8 -8 0
-13 5 -4 8 -17 4 -29 -8 -33 -60 -31 -69 2 -8 34 12 66 41 66 13 0 26 -4 30
-9z m-1278 -7 c-3 -3 -12 -4 -19 -1 -8 3 -5 6 6 6 11 1 17 -2 13 -5z m250 -45
c2 -16 -1 -19 -9 -11 -5 5 -7 15 -4 21 10 15 12 14 13 -10z m20 -16 c-3 -10
-5 -4 -5 12 0 17 2 24 5 18 2 -7 2 -21 0 -30z m2179 -5 c29 -33 76 -112 109
-186 47 -104 21 -80 -35 34 -29 59 -71 127 -94 152 -22 25 -32 40 -21 34 11
-5 29 -21 41 -34z m-2044 -8 c-3 -32 -28 -50 -68 -50 -36 0 -51 23 -39 60 6
18 14 21 58 18 49 -3 52 -5 49 -28z m-497 -23 c20 26 19 0 -1 -40 -26 -49 -52
-79 -59 -67 -3 5 -1 10 4 10 16 0 38 61 36 100 -2 25 -1 27 2 7 4 -27 5 -28
18 -10z m76 -1 c-7 -8 -9 -21 -5 -27 4 -8 3 -9 -4 -5 -6 4 -17 -2 -24 -14 -7
-11 -17 -20 -21 -20 -8 0 23 48 48 76 15 17 20 7 6 -10z m3439 20 c0 -2 -7 -6
-15 -10 -8 -3 -15 -1 -15 4 0 6 7 10 15 10 8 0 15 -2 15 -4z m-220 -36 c0 -5
-2 -10 -4 -10 -3 0 -8 5 -11 10 -3 6 -1 10 4 10 6 0 11 -4 11 -10z m95 -10 c3
-6 -4 -10 -17 -10 -18 0 -20 2 -8 10 19 12 18 12 25 0z m-2865 -49 c55 3 58 1
56 -33 l-2 -31 -79 2 c-44 2 -91 4 -105 6 -14 2 -34 4 -45 6 -11 1 12 7 50 14
43 8 58 13 38 14 -47 2 -66 11 -53 26 8 9 23 10 58 3 26 -4 63 -8 82 -7z
m2865 1 c-3 -3 -11 0 -18 7 -9 10 -8 11 6 5 10 -3 15 -9 12 -12z m-2391 -2
c120 0 216 -3 212 -7 -4 -4 -118 -8 -254 -10 -136 -1 -268 -2 -294 -3 -37 0
-48 -4 -48 -16 0 -12 4 -14 13 -7 6 5 18 8 25 7 6 -1 20 -2 30 -3 15 -2 14 -3
-3 -11 -14 -6 7 -9 65 -11 75 -2 80 -3 40 -10 -25 -4 4 -5 68 -2 80 4 112 2
112 -6 0 -6 5 -11 11 -11 5 0 7 5 4 10 -4 6 10 10 35 10 32 0 41 -3 37 -14 -5
-13 61 -22 226 -28 36 -1 46 -5 42 -16 -3 -7 -5 -16 -5 -18 0 -2 -162 -4 -360
-4 l-360 0 0 35 c0 27 4 35 18 35 14 0 15 2 2 10 -8 5 -15 24 -16 43 l-3 33
92 -3 c51 -1 191 -2 311 -3z m2406 -25 c11 -13 10 -14 -4 -9 -9 3 -16 10 -16
15 0 13 6 11 20 -6z m81 0 c9 6 11 4 6 -8 -4 -11 1 -20 13 -27 11 -6 20 -16
20 -22 0 -7 -13 0 -28 15 -15 15 -36 27 -45 27 -9 0 -17 5 -17 11 0 5 5 7 10
4 6 -3 10 0 10 7 0 10 2 10 9 -1 5 -8 14 -10 22 -6z m-156 -5 c-3 -5 -11 -10
-16 -10 -6 0 -7 5 -4 10 3 6 11 10 16 10 6 0 7 -4 4 -10z m-2500 -10 c4 -6 11
-7 17 -4 7 4 8 2 4 -4 -4 -6 -12 -9 -19 -6 -7 2 -39 8 -72 13 l-60 9 62 1 c34
0 65 -4 68 -9z m125 0 c0 -5 -4 -10 -10 -10 -5 0 -10 5 -10 10 0 6 5 10 10 10
6 0 10 -4 10 -10z m269 -6 c2 -2 -53 -4 -122 -4 -77 0 -127 4 -127 10 0 9 238
3 249 -6z m46 6 c3 -5 -3 -10 -15 -10 -12 0 -18 5 -15 10 3 6 10 10 15 10 5 0
12 -4 15 -10z m2110 0 c8 -13 -5 -13 -25 0 -13 8 -13 10 2 10 9 0 20 -4 23
-10z m228 0 c3 -3 -6 -6 -20 -7 -31 -1 -50 -18 -32 -28 8 -6 10 -4 4 5 -5 8
-4 11 3 6 6 -4 9 -13 6 -20 -4 -10 2 -12 21 -8 19 3 23 7 14 13 -22 13 -7 17
36 10 45 -8 44 -4 26 -111 -19 -108 -14 -102 -88 -95 -43 4 -70 2 -79 -6 -9
-7 -14 -7 -14 -1 0 9 -56 12 -302 16 -20 1 -34 4 -31 9 2 4 -6 7 -19 7 -18 0
-20 2 -8 10 12 8 10 10 -10 11 -23 1 -23 2 5 9 l30 8 -27 1 c-30 1 -39 20 -10
22 15 1 14 2 -2 6 -15 4 -16 7 -5 15 10 7 8 8 -8 5 -13 -3 -23 -1 -23 4 0 5 6
9 13 10 9 0 9 2 -1 6 -6 2 -10 9 -6 14 3 5 1 9 -3 9 -5 0 -17 13 -26 30 -17
28 -17 29 0 38 27 13 96 15 88 2 -3 -5 -17 -10 -30 -10 -13 0 -26 -4 -29 -8
-3 -5 8 -6 24 -4 17 2 38 1 47 -3 21 -9 60 -13 156 -16 37 -1 70 -6 73 -11 3
-4 -1 -5 -9 -2 -8 3 -17 -2 -20 -10 -5 -12 0 -14 23 -9 19 3 30 1 30 -6 0 -6
8 -11 18 -11 14 0 15 2 2 10 -13 9 -13 11 0 20 13 9 13 11 0 21 -12 9 -11 9 5
3 11 -5 43 -9 72 -9 l51 -2 -15 24 c-14 21 -11 27 10 24 4 0 7 3 7 7 0 9 45
10 53 2z m-3623 -29 c0 -5 -9 -11 -20 -14 -11 -3 -20 -1 -20 3 0 5 8 11 18 13
9 3 18 5 20 6 1 0 2 -3 2 -8z m3335 -1 c3 -5 1 -10 -4 -10 -6 0 -11 5 -11 10
0 6 2 10 4 10 3 0 8 -4 11 -10z m155 -5 c0 -8 -4 -15 -10 -15 -5 0 -10 7 -10
15 0 8 5 15 10 15 6 0 10 -7 10 -15z m-2892 -41 l1 -34 -117 1 c-64 1 -106 4
-92 6 14 3 28 10 32 16 4 6 28 14 55 18 l48 6 -57 2 c-88 2 -81 20 9 23 114 4
120 2 121 -38z m587 35 c-21 -6 -10 -7 35 -4 51 3 59 1 35 -6 -34 -11 -184 -1
-165 11 7 4 37 7 68 7 48 0 52 -2 27 -8z m2925 -65 c0 -8 7 -14 15 -14 17 0
35 -30 35 -59 0 -43 -70 -50 -106 -10 -9 10 -21 16 -25 13 -18 -11 -8 42 10
58 44 38 71 42 71 12z m-1401 -59 c0 -5 -4 -3 -9 5 -5 8 -9 22 -9 30 0 16 17
-16 18 -35z m-2116 28 c-7 -2 -19 -2 -25 0 -7 3 -2 5 12 5 14 0 19 -2 13 -5z
m37 3 c0 -3 -4 -8 -10 -11 -5 -3 -10 -1 -10 4 0 6 5 11 10 11 6 0 10 -2 10 -4z
m155 -1 c-25 -9 -145 -12 -145 -4 0 5 35 9 78 8 42 0 73 -2 67 -4z m52 -1 c-3
-3 -12 -4 -19 -1 -8 3 -5 6 6 6 11 1 17 -2 13 -5z m240 -10 c-3 -3 -12 -4 -19
-1 -8 3 -5 6 6 6 11 1 17 -2 13 -5z m-397 -18 c0 -2 -9 -6 -20 -9 -11 -3 -20
-1 -20 4 0 5 9 9 20 9 11 0 20 -2 20 -4z m495 -24 c-4 -4 -37 -10 -73 -13 -38
-4 -17 -5 46 -2 76 3 112 1 112 -6 0 -6 19 -12 43 -13 23 -1 -1 -5 -53 -8
l-95 -6 93 -2 c53 -1 92 -6 92 -12 0 -6 -111 -9 -317 -8 -175 1 -296 3 -268 5
27 3 54 8 60 13 6 5 48 10 93 11 70 1 82 4 82 19 0 9 2 19 4 21 3 2 46 5 96 6
51 1 89 -1 85 -5z m-548 -24 c-3 -8 -6 -5 -6 6 -1 11 2 17 5 13 3 -3 4 -12 1
-19z m-2240 -365 c-1 -71 -3 -13 -3 127 0 140 2 198 3 128 2 -71 2 -185 0
-255z m2290 371 c-3 -3 -12 -4 -19 -1 -8 3 -5 6 6 6 11 1 17 -2 13 -5z m131
-11 c-10 -2 -26 -2 -35 0 -10 3 -2 5 17 5 19 0 27 -2 18 -5z m579 -9 c-3 -3
-12 -4 -19 -1 -8 3 -5 6 6 6 11 1 17 -2 13 -5z m-734 -11 c-7 -2 -19 -2 -25 0
-7 3 -2 5 12 5 14 0 19 -2 13 -5z m734 -19 c-3 -3 -12 -4 -19 -1 -8 3 -5 6 6
6 11 1 17 -2 13 -5z m2431 -21 c-27 -2 -69 -2 -95 0 -27 2 -5 3 47 3 52 0 74
-1 48 -3z m174 -51 c4 -1 5 -8 2 -16 -4 -12 -10 -12 -35 1 -16 8 -29 16 -29
17 0 3 47 1 62 -2z m164 -3 c3 -6 1 -16 -5 -22 -7 -7 -12 -6 -17 6 -3 9 -11
14 -17 10 -6 -3 -7 -1 -3 5 9 15 33 15 42 1z m518 -49 l21 -22 -24 7 c-20 6
-23 4 -18 -9 4 -9 2 -16 -2 -16 -5 0 -11 7 -15 15 -3 8 -1 15 4 15 18 0 10 16
-7 17 -30 2 -52 9 -60 17 -4 5 12 6 36 3 26 -3 52 -14 65 -27z m-5667 -102
c-2 -18 -4 -6 -4 27 0 33 2 48 4 33 2 -15 2 -42 0 -60z m331 77 c-9 -9 -231
-85 -235 -81 -3 2 15 11 39 20 147 54 174 64 187 65 8 0 12 -1 9 -4z m-378
-133 c0 -7 -62 -29 -299 -107 -24 -7 -39 -9 -34 -4 12 12 219 84 268 93 19 4
35 11 35 16 0 6 7 10 15 10 8 0 15 -4 15 -8z m-470 -162 c-8 -5 -19 -10 -25
-10 -5 0 -3 5 5 10 8 5 20 10 25 10 6 0 3 -5 -5 -10z"/>
<path d="M167 5419 c7 -7 15 -10 18 -7 3 3 -2 9 -12 12 -14 6 -15 5 -6 -5z"/>
<path d="M1498 5433 c6 -2 18 -2 25 0 6 3 1 5 -13 5 -14 0 -19 -2 -12 -5z"/>
<path d="M1568 5413 c39 -2 105 -2 145 0 39 1 7 3 -73 3 -80 0 -112 -2 -72 -3z"/>
<path d="M1283 5363 c9 -2 25 -2 35 0 9 3 1 5 -18 5 -19 0 -27 -2 -17 -5z"/>
<path d="M1413 5363 c9 -2 25 -2 35 0 9 3 1 5 -18 5 -19 0 -27 -2 -17 -5z"/>
<path d="M1188 5333 c17 -2 47 -2 65 0 17 2 3 4 -33 4 -36 0 -50 -2 -32 -4z"/>
<path d="M1643 5333 c9 -2 23 -2 30 0 6 3 -1 5 -18 5 -16 0 -22 -2 -12 -5z"/>
<path d="M1538 5263 c7 -3 16 -2 19 1 4 3 -2 6 -13 5 -11 0 -14 -3 -6 -6z"/>
<path d="M1958 3821 c3 -23 8 -28 24 -23 11 2 17 10 14 18 -3 8 1 14 9 14 7 0
17 5 20 10 4 6 -9 10 -33 10 -37 0 -38 -1 -34 -29z"/>
<path d="M2123 3800 c0 -25 2 -35 4 -22 2 12 2 32 0 45 -2 12 -4 2 -4 -23z"/>
<path d="M1970 3770 c-9 -6 -10 -10 -3 -10 6 0 15 5 18 10 8 12 4 12 -15 0z"/>
<path d="M991 3584 c0 -11 3 -14 6 -6 3 7 2 16 -1 19 -3 4 -6 -2 -5 -13z"/>
<path d="M993 3315 c0 -22 2 -30 4 -17 2 12 2 30 0 40 -3 9 -5 -1 -4 -23z"/>
<path d="M994 3030 c0 -135 0 -143 6 -60 3 52 3 122 0 155 -4 37 -6 1 -6 -95z"/>
<path d="M930 3019 c0 -5 5 -7 10 -4 6 3 10 8 10 11 0 2 -4 4 -10 4 -5 0 -10
-5 -10 -11z"/>
<path d="M991 2746 c-1 -71 1 -127 4 -124 11 10 16 204 6 228 -7 19 -10 -8
-10 -104z"/>
<path d="M993 2360 c0 -25 2 -35 4 -22 2 12 2 32 0 45 -2 12 -4 2 -4 -23z"/>
<path d="M1965 3590 c4 -6 11 -8 16 -5 14 9 11 15 -7 15 -8 0 -12 -5 -9 -10z"/>
<path d="M1990 3576 c0 -2 7 -6 15 -10 8 -3 15 -1 15 4 0 6 -7 10 -15 10 -8 0
-15 -2 -15 -4z"/>
<path d="M1965 3520 c3 -5 8 -10 11 -10 2 0 4 5 4 10 0 6 -5 10 -11 10 -5 0
-7 -4 -4 -10z"/>
<path d="M1970 3476 c0 -8 9 -18 21 -21 29 -10 31 -3 3 18 -20 15 -24 15 -24
3z"/>
<path d="M1967 3414 c-4 -4 -7 -14 -7 -23 0 -11 3 -12 11 -4 6 6 10 16 7 23
-2 6 -7 8 -11 4z"/>
<path d="M1990 3386 c0 -9 5 -16 10 -16 6 0 10 4 10 9 0 6 -4 13 -10 16 -5 3
-10 -1 -10 -9z"/>
<path d="M1960 3340 c0 -5 5 -10 10 -10 6 0 10 5 10 10 0 6 -4 10 -10 10 -5 0
-10 -4 -10 -10z"/>
<path d="M1995 3250 c-3 -5 -1 -10 4 -10 6 0 11 5 11 10 0 6 -2 10 -4 10 -3 0
-8 -4 -11 -10z"/>
<path d="M1966 3205 c-3 -8 -1 -15 4 -15 6 0 10 7 10 15 0 8 -2 15 -4 15 -2 0
-6 -7 -10 -15z"/>
<path d="M1990 3208 c0 -12 7 -18 23 -17 15 0 17 2 7 6 -8 3 -18 11 -22 17 -5
7 -8 4 -8 -6z"/>
<path d="M1970 3133 c0 -10 4 -14 8 -8 4 6 11 13 16 18 5 4 2 7 -7 7 -10 0
-17 -8 -17 -17z"/>
<path d="M1968 3076 c-4 -19 0 -26 16 -30 26 -7 26 -6 6 27 l-17 28 -5 -25z"/>
<path d="M1966 3012 c-2 -4 -1 -14 5 -22 7 -12 9 -10 9 8 0 23 -5 28 -14 14z"/>
<path d="M1999 2998 c-6 -21 -5 -38 1 -38 5 0 8 9 7 20 -1 17 -5 26 -8 18z"/>
<path d="M1969 2968 c-9 -27 -3 -48 13 -48 11 0 17 -4 13 -10 -3 -5 -12 -7
-20 -4 -10 4 -13 -3 -13 -26 1 -17 4 -33 8 -35 11 -7 46 23 37 31 -4 5 -13 2
-18 -6 -9 -13 -10 -13 -6 0 2 8 17 18 33 21 16 4 21 7 12 8 -10 0 -18 8 -18
16 0 8 -9 19 -20 25 -11 6 -18 15 -15 21 4 5 4 9 1 9 -3 0 -6 -1 -7 -2z"/>
<path d="M1875 2730 c-7 -12 2 -12 30 0 19 8 19 9 -2 9 -12 1 -25 -3 -28 -9z"/>
<path d="M1870 2690 c0 -5 5 -10 10 -10 6 0 10 5 10 10 0 6 -4 10 -10 10 -5 0
-10 -4 -10 -10z"/>
<path d="M2478 3423 c7 -3 16 -2 19 1 4 3 -2 6 -13 5 -11 0 -14 -3 -6 -6z"/>
<path d="M2792 3454 c-7 -8 -8 -14 -3 -14 10 0 25 19 20 25 -2 1 -10 -3 -17
-11z"/>
<path d="M4591 3421 c-9 -6 -10 -11 -2 -15 6 -4 11 -2 11 4 0 6 5 8 12 4 7 -4
8 -3 4 4 -8 14 -7 14 -25 3z"/>
<path d="M4615 3330 c-3 -6 1 -7 9 -4 18 7 21 14 7 14 -6 0 -13 -4 -16 -10z"/>
<path d="M4524 3281 c7 -11 46 -35 46 -28 0 3 -12 12 -26 22 -15 9 -23 12 -20
6z"/>
<path d="M4530 3246 c0 -2 8 -10 18 -17 15 -13 16 -12 3 4 -13 16 -21 21 -21
13z"/>
<path d="M4615 3240 c-4 -7 3 -8 22 -4 38 9 42 14 10 14 -14 0 -29 -5 -32 -10z"/>
<path d="M4623 3203 c9 -2 23 -2 30 0 6 3 -1 5 -18 5 -16 0 -22 -2 -12 -5z"/>
<path d="M4603 3173 c9 -2 23 -2 30 0 6 3 -1 5 -18 5 -16 0 -22 -2 -12 -5z"/>
<path d="M4678 3143 c6 -2 18 -2 25 0 6 3 1 5 -13 5 -14 0 -19 -2 -12 -5z"/>
<path d="M4618 3133 c6 -2 18 -2 25 0 6 3 1 5 -13 5 -14 0 -19 -2 -12 -5z"/>
<path d="M4403 3103 c0 -18 9 -31 33 -45 37 -21 45 -34 17 -24 -15 5 -15 3 1
-9 14 -11 23 -12 30 -4 8 7 5 15 -8 25 -21 15 -17 17 24 15 24 0 24 0 -3 9
-16 5 -43 20 -61 34 l-33 25 0 -26z m53 -41 c-4 -3 -14 2 -24 12 -16 18 -16
18 6 6 13 -6 21 -14 18 -18z"/>
<path d="M4568 3123 c7 -3 16 -2 19 1 4 3 -2 6 -13 5 -11 0 -14 -3 -6 -6z"/>
<path d="M4628 3093 c7 -3 16 -2 19 1 4 3 -2 6 -13 5 -11 0 -14 -3 -6 -6z"/>
<path d="M4558 3053 c7 -3 16 -2 19 1 4 3 -2 6 -13 5 -11 0 -14 -3 -6 -6z"/>
<path d="M4393 2665 c0 -22 2 -30 4 -17 2 12 2 30 0 40 -3 9 -5 -1 -4 -23z"/>
<path d="M4403 2575 c0 -27 2 -38 4 -22 2 15 2 37 0 50 -2 12 -4 0 -4 -28z"/>
<path d="M3929 2919 c-13 -10 -19 -19 -13 -19 5 0 14 4 20 9 5 5 18 11 29 13
16 3 17 5 4 10 -8 3 -26 -3 -40 -13z"/>
<path d="M4064 2877 c3 -10 6 -21 6 -23 0 -3 5 -2 10 1 6 3 10 1 10 -4 0 -6
12 -11 28 -11 27 0 26 1 -8 17 -19 10 -39 22 -43 28 -5 6 -6 2 -3 -8z"/>
<path d="M1151 2784 c0 -11 3 -14 6 -6 3 7 2 16 -1 19 -3 4 -6 -2 -5 -13z"/>
<path d="M2313 2553 c15 -2 37 -2 50 0 12 2 0 4 -28 4 -27 0 -38 -2 -22 -4z"/>
<path d="M2928 2493 c6 -2 18 -2 25 0 6 3 1 5 -13 5 -14 0 -19 -2 -12 -5z"/>
<path d="M5065 2470 c-3 -5 -1 -10 4 -10 6 0 11 5 11 10 0 6 -2 10 -4 10 -3 0
-8 -4 -11 -10z"/>
<path d="M5008 2443 c6 -2 18 -2 25 0 6 3 1 5 -13 5 -14 0 -19 -2 -12 -5z"/>
<path d="M4960 2410 c0 -5 5 -10 11 -10 5 0 7 5 4 10 -3 6 -8 10 -11 10 -2 0
-4 -4 -4 -10z"/>
<path d="M4807 2389 c7 -7 15 -10 18 -7 3 3 -2 9 -12 12 -14 6 -15 5 -6 -5z"/>
<path d="M5005 2380 c-19 -8 -19 -9 3 -9 12 -1 22 4 22 9 0 6 -1 10 -2 9 -2 0
-12 -4 -23 -9z"/>
<path d="M4908 2373 c7 -3 16 -2 19 1 4 3 -2 6 -13 5 -11 0 -14 -3 -6 -6z"/>
<path d="M4958 2373 c7 -3 16 -2 19 1 4 3 -2 6 -13 5 -11 0 -14 -3 -6 -6z"/>
<path d="M5118 2373 c7 -3 16 -2 19 1 4 3 -2 6 -13 5 -11 0 -14 -3 -6 -6z"/>
<path d="M2498 2343 c12 -2 32 -2 45 0 12 2 2 4 -23 4 -25 0 -35 -2 -22 -4z"/>
<path d="M98 6343 c12 -2 32 -2 45 0 12 2 2 4 -23 4 -25 0 -35 -2 -22 -4z"/>
<path d="M583 6323 c9 -2 25 -2 35 0 9 3 1 5 -18 5 -19 0 -27 -2 -17 -5z"/>
<path d="M1180 6100 c-9 -6 -10 -10 -3 -10 6 0 15 5 18 10 8 12 4 12 -15 0z"/>
<path d="M1226 6091 c-18 -7 -18 -8 -2 -14 29 -11 366 -8 366 3 0 6 -60 10
-159 10 -88 0 -165 2 -173 4 -7 3 -22 1 -32 -3z"/>
<path d="M1148 6063 c7 -3 16 -2 19 1 4 3 -2 6 -13 5 -11 0 -14 -3 -6 -6z"/>
<path d="M1184 6048 c-3 -4 93 -8 212 -8 120 0 214 3 210 8 -10 10 -416 10
-422 0z"/>
<path d="M1105 5983 c-16 -3 -32 -8 -35 -13 -3 -4 -28 -20 -55 -34 l-50 -25
362 -1 362 0 -26 40 -27 40 -250 -1 c-138 -1 -264 -4 -281 -6z m153 -20 c-16
-2 -40 -2 -55 0 -16 2 -3 4 27 4 30 0 43 -2 28 -4z m160 0 c-15 -2 -42 -2 -60
0 -18 2 -6 4 27 4 33 0 48 -2 33 -4z m125 0 c-13 -2 -33 -2 -45 0 -13 2 -3 4
22 4 25 0 35 -2 23 -4z m102 -3 c3 -5 2 -10 -4 -10 -5 0 -13 5 -16 10 -3 6 -2
10 4 10 5 0 13 -4 16 -10z"/>
<path d="M968 5893 c6 -2 18 -2 25 0 6 3 1 5 -13 5 -14 0 -19 -2 -12 -5z"/>
<path d="M1083 5893 c9 -2 23 -2 30 0 6 3 -1 5 -18 5 -16 0 -22 -2 -12 -5z"/>
<path d="M875 5860 c-4 -7 137 -10 414 -10 274 0 421 3 421 10 0 7 -145 10
-414 10 -266 0 -417 -4 -421 -10z"/>
<path d="M1272 5842 c-252 -1 -441 -6 -438 -11 3 -5 -10 -12 -29 -15 -65 -12
-36 -21 62 -19 54 1 275 2 491 3 259 0 391 3 387 10 -3 6 -16 10 -28 11 -20 0
-21 1 -3 8 11 4 15 9 10 12 -5 2 -208 3 -452 1z m-392 -22 c0 -5 -7 -7 -15 -4
-8 4 -15 8 -15 10 0 2 7 4 15 4 8 0 15 -4 15 -10z m728 5 c-8 -8 -441 -13
-573 -6 -96 5 -38 7 224 8 195 2 352 0 349 -2z"/>
<path d="M727 5778 c-7 -4 223 -8 511 -8 287 0 522 3 522 8 0 9 -1018 9 -1033
0z"/>
<path d="M690 5749 c-32 -4 -13 -6 64 -7 60 -1 107 0 105 2 -9 7 -126 11 -169
5z"/>
<path d="M933 5743 c9 -2 25 -2 35 0 9 3 1 5 -18 5 -19 0 -27 -2 -17 -5z"/>
<path d="M1328 5653 c28 -2 76 -2 105 0 28 2 5 3 -53 3 -58 0 -81 -1 -52 -3z"/>
<path d="M1568 5653 c12 -2 30 -2 40 0 9 3 -1 5 -23 4 -22 0 -30 -2 -17 -4z"/>
<path d="M1248 5623 c7 -3 16 -2 19 1 4 3 -2 6 -13 5 -11 0 -14 -3 -6 -6z"/>
<path d="M1313 5623 c9 -2 25 -2 35 0 9 3 1 5 -18 5 -19 0 -27 -2 -17 -5z"/>
<path d="M1408 5623 c6 -2 18 -2 25 0 6 3 1 5 -13 5 -14 0 -19 -2 -12 -5z"/>
<path d="M1088 5603 c6 -2 18 -2 25 0 6 3 1 5 -13 5 -14 0 -19 -2 -12 -5z"/>
<path d="M1408 5603 c6 -2 18 -2 25 0 6 3 1 5 -13 5 -14 0 -19 -2 -12 -5z"/>
<path d="M1763 5603 c26 -2 67 -2 90 0 23 2 2 3 -48 3 -49 0 -68 -1 -42 -3z"/>
<path d="M1288 5583 c17 -2 47 -2 65 0 17 2 3 4 -33 4 -36 0 -50 -2 -32 -4z"/>
<path d="M1538 5583 c12 -2 32 -2 45 0 12 2 2 4 -23 4 -25 0 -35 -2 -22 -4z"/>
<path d="M1693 5583 c43 -2 110 -2 150 0 40 1 5 3 -78 3 -82 0 -115 -2 -72 -3z"/>
<path d="M1946 5575 c-3 -8 -1 -15 5 -15 19 0 39 -28 32 -46 -5 -13 -3 -16 10
-11 11 4 14 2 11 -7 -3 -8 0 -17 6 -21 8 -5 8 -10 0 -20 -8 -10 -5 -13 15 -11
14 0 25 1 25 1 0 8 -46 86 -60 102 -11 13 -20 28 -20 33 0 15 -17 12 -24 -5z"/>
<path d="M705 5550 c19 -8 93 -14 84 -6 -2 2 -26 6 -54 9 -32 4 -43 3 -30 -3z"/>
<path d="M1580 2510 c0 -5 -8 -10 -17 -11 -10 0 -13 -3 -7 -5 7 -3 8 -23 4
-57 -5 -31 -3 -55 2 -58 6 -4 5 -9 -3 -12 -20 -8 10 -29 34 -23 10 2 17 -2 17
-11 0 -8 -4 -11 -10 -8 -5 3 -10 1 -10 -5 0 -7 6 -10 13 -7 16 5 20 187 4 187
-7 0 -5 5 3 10 12 8 11 10 -7 10 -13 0 -23 -4 -23 -10z"/>
<path d="M4368 2363 c12 -2 30 -2 40 0 9 3 -1 5 -23 4 -22 0 -30 -2 -17 -4z"/>
<path d="M4425 2320 c3 -5 11 -10 16 -10 6 0 7 5 4 10 -3 6 -11 10 -16 10 -6
0 -7 -4 -4 -10z"/>
<path d="M5900 2297 c0 -5 13 -7 29 -5 17 2 28 1 25 -3 -2 -4 3 -15 12 -23 11
-12 12 -16 2 -16 -10 0 -10 -3 2 -9 8 -6 18 -7 22 -4 5 2 15 -1 23 -7 11 -9
12 -17 4 -31 -8 -16 -4 -21 30 -35 37 -14 63 -44 40 -44 -6 0 -7 -4 -4 -10 3
-6 -1 -7 -10 -4 -9 4 -14 13 -11 20 3 9 0 11 -11 7 -11 -4 -14 -2 -9 5 4 7 2
12 -3 12 -19 0 -12 -28 11 -44 26 -19 18 -32 -10 -17 -29 16 -36 -12 -11 -41
11 -13 18 -17 14 -10 -3 6 -2 12 3 12 6 0 13 -7 16 -16 8 -22 8 -26 -4 -19 -6
3 -7 -1 -4 -10 8 -19 -19 -11 -55 17 -13 10 -30 18 -37 18 -8 0 -14 5 -14 10
0 6 -5 10 -11 10 -5 0 -7 -4 -4 -10 3 -6 -1 -7 -10 -4 -9 4 -14 12 -12 19 6
14 -30 38 -60 40 -15 0 -23 -5 -23 -16 0 -25 29 -51 50 -44 23 7 42 -16 30
-35 -8 -12 -10 -11 -11 5 0 11 -3 15 -5 8 -3 -7 -12 -9 -20 -6 -9 3 -12 0 -9
-9 4 -9 -2 -14 -15 -14 -17 0 -20 5 -15 23 4 16 1 23 -9 23 -8 0 -16 -4 -18
-8 -1 -5 -16 0 -33 10 l-30 20 30 -5 c27 -5 28 -4 10 9 -10 8 -25 14 -32 14
-7 0 -13 5 -13 11 0 6 -6 9 -14 6 -8 -3 -22 0 -32 8 -19 13 -48 9 -39 -6 3 -4
12 -6 20 -2 14 5 19 -6 16 -34 -1 -7 5 -13 14 -13 8 0 15 8 15 18 1 12 5 9 16
-10 8 -16 19 -28 24 -28 4 0 11 -13 15 -30 4 -16 13 -30 21 -30 8 0 14 -5 14
-11 0 -6 -6 -9 -14 -6 -11 4 -11 1 -2 -19 14 -30 37 -37 115 -32 54 4 61 2 72
-19 17 -32 30 -9 17 29 -13 37 -2 50 12 14 11 -29 19 -34 68 -40 26 -3 32 0
32 16 0 25 23 32 60 20 28 -10 42 -1 20 13 -5 3 -10 12 -10 18 0 7 4 6 10 -3
7 -11 10 -11 10 -2 0 7 5 10 11 6 8 -4 9 0 4 15 -5 16 -3 20 9 15 13 -5 15 -2
9 12 -6 15 -3 15 17 -4 24 -22 46 -30 35 -12 -3 6 -1 10 5 10 6 0 8 5 4 11 -5
8 -8 8 -13 0 -5 -7 -15 -2 -29 14 -12 14 -31 25 -41 25 -22 0 -40 20 -19 21 7
0 23 2 35 3 14 2 19 -2 16 -11 -3 -8 2 -13 12 -13 11 0 15 -5 11 -16 -3 -8 -2
-12 4 -9 6 3 10 15 10 25 0 24 -53 53 -80 45 -14 -4 -20 -2 -20 9 0 13 -48 47
-65 46 -17 0 -18 1 -5 10 13 8 12 10 -2 10 -10 0 -18 5 -18 11 0 5 -5 7 -11 3
-8 -4 -8 0 0 15 10 17 9 21 -3 21 -8 0 -18 5 -22 12 -5 8 0 9 14 6 19 -5 21
-3 15 20 -6 26 -29 51 -47 52 -4 0 -5 -7 -2 -16 4 -10 1 -14 -6 -11 -7 2 -12
12 -12 21 2 13 -8 16 -57 14 -32 -1 -59 -6 -59 -11z m160 -107 c0 -5 -4 -10
-9 -10 -6 0 -13 5 -16 10 -3 6 1 10 9 10 9 0 16 -4 16 -10z m75 -80 c-3 -5 -1
-10 4 -10 6 0 11 -4 11 -10 0 -12 -10 -13 -29 -1 -14 9 -7 31 10 31 6 0 7 -4
4 -10z m-5 -40 c0 -5 -2 -10 -4 -10 -3 0 -8 5 -11 10 -3 6 -1 10 4 10 6 0 11
-4 11 -10z m32 -35 c2 3 5 -2 5 -10 0 -22 -15 -18 -28 8 -11 19 -10 20 3 10 8
-7 17 -11 20 -8z m-32 -31 c0 -2 -7 -4 -15 -4 -8 0 -15 4 -15 10 0 5 7 7 15 4
8 -4 15 -8 15 -10z m-175 -4 c3 -5 2 -10 -4 -10 -5 0 -13 5 -16 10 -3 6 -2 10
4 10 5 0 13 -4 16 -10z m135 0 c0 -5 -4 -10 -10 -10 -5 0 -10 5 -10 10 0 6 5
10 10 10 6 0 10 -4 10 -10z m-74 -19 c-4 -5 0 -11 6 -14 7 -2 10 -7 7 -11 -3
-3 -18 0 -34 8 -23 12 -24 15 -8 19 30 8 34 7 29 -2z m164 -1 c0 -5 -4 -10 -9
-10 -6 0 -13 5 -16 10 -3 6 1 10 9 10 9 0 16 -4 16 -10z m-275 -30 c4 -6 -5
-10 -19 -10 -14 0 -26 5 -26 10 0 6 9 10 19 10 11 0 23 -4 26 -10z m-75 -21
c3 7 14 9 23 5 9 -3 14 -10 11 -15 -7 -12 -47 -5 -50 10 -2 8 -1 8 3 0 4 -8 7
-8 13 0z"/>
<path d="M1568 2273 c6 -2 18 -2 25 0 6 3 1 5 -13 5 -14 0 -19 -2 -12 -5z"/>
<path d="M1585 2250 c-4 -6 3 -10 14 -10 25 0 27 6 6 13 -8 4 -17 2 -20 -3z"/>
<path d="M5680 2224 c-10 -11 -10 -14 1 -14 8 0 20 4 27 9 11 7 11 9 -1 14 -9
3 -21 -1 -27 -9z"/>
<path d="M5732 2203 c-6 -3 -9 -10 -6 -15 5 -7 2 -8 -5 -4 -7 5 -21 0 -32 -10
-23 -20 -25 -34 -4 -34 9 0 12 6 9 15 -5 11 1 15 22 15 16 0 39 8 51 18 l23
17 -23 1 c-12 1 -28 -1 -35 -3z"/>
<path d="M5608 2183 c6 -2 18 -2 25 0 6 3 1 5 -13 5 -14 0 -19 -2 -12 -5z"/>
<path d="M5785 2170 c-3 -5 -14 -10 -23 -10 -27 0 -62 -29 -56 -45 5 -11 11
-12 26 -4 11 6 17 17 14 25 -4 11 -1 14 12 10 11 -4 22 2 30 14 7 11 10 20 8
20 -3 0 -8 -4 -11 -10z"/>
<path d="M4800 2150 c0 -38 -22 -120 -31 -114 -5 3 -9 0 -9 -5 0 -7 24 -11 60
-11 45 0 60 3 60 14 0 12 -7 13 -32 5 -43 -12 -60 -11 -56 2 5 16 234 25 252
10 18 -15 76 -32 76 -22 0 8 5 8 255 11 100 1 165 6 173 13 10 8 15 8 20 0 5
-8 16 -8 37 1 19 8 25 15 17 20 -7 4 -12 2 -12 -4 0 -6 -4 -8 -10 -5 -12 7
-14 46 -2 43 4 0 15 2 24 6 22 10 13 27 -9 19 -11 -4 -14 -3 -9 6 6 8 2 11
-10 9 -11 -2 -18 2 -16 10 1 9 -81 12 -388 12 -380 0 -390 0 -390 -20z m760
-19 c-9 -19 -70 -35 -70 -19 0 4 9 8 20 8 11 0 25 9 32 19 15 24 32 16 18 -8z
m20 -56 c7 -9 8 -15 2 -15 -5 0 -12 7 -16 15 -3 8 -4 15 -2 15 2 0 9 -7 16
-15z"/>
<path d="M6140 2162 c0 -4 9 -13 20 -19 16 -11 18 -10 14 1 -6 15 -34 30 -34
18z"/>
<path d="M6180 2160 c0 -5 7 -10 16 -10 10 0 14 -5 10 -16 -3 -8 -2 -12 4 -9
16 10 12 23 -10 35 -14 7 -20 7 -20 0z"/>
<path d="M4438 2153 c7 -3 16 -2 19 1 4 3 -2 6 -13 5 -11 0 -14 -3 -6 -6z"/>
<path d="M5790 2118 c0 -25 -3 -29 -12 -20 -15 15 -28 15 -28 1 0 -5 5 -7 10
-4 6 3 10 1 10 -4 0 -6 7 -11 15 -11 8 0 15 7 15 15 0 7 7 18 17 23 14 9 14
11 -5 21 -20 11 -22 9 -22 -21z"/>
<path d="M968 2113 c7 -3 16 -2 19 1 4 3 -2 6 -13 5 -11 0 -14 -3 -6 -6z"/>
<path d="M5640 2068 c0 -4 7 -8 16 -8 14 0 14 -3 4 -15 -10 -12 -10 -15 2 -15
21 0 27 8 21 30 -5 18 -43 25 -43 8z"/>
<path d="M5719 2038 c-2 -3 -6 -30 -11 -63 -2 -11 -7 -24 -13 -28 -6 -5 -3 -7
8 -3 9 3 17 0 17 -6 0 -6 3 -9 6 -5 4 3 13 0 21 -8 8 -8 19 -15 26 -15 6 0 2
7 -9 16 -13 11 -15 17 -6 20 6 3 12 12 12 19 0 19 -27 26 -34 9 -3 -8 -10 -14
-16 -14 -18 0 -10 16 15 30 26 14 25 33 -2 23 -12 -5 -15 -2 -10 10 5 13 1 26
-4 15z"/>
<path d="M4898 2023 c7 -3 16 -2 19 1 4 3 -2 6 -13 5 -11 0 -14 -3 -6 -6z"/>
<path d="M4953 2013 c15 -2 37 -2 50 0 12 2 0 4 -28 4 -27 0 -38 -2 -22 -4z"/>
<path d="M5642 2000 c-12 -10 -18 -21 -13 -25 6 -3 15 4 21 15 14 26 33 16 25
-13 -5 -20 -5 -20 6 -3 9 14 8 21 -2 31 -12 11 -18 11 -37 -5z"/>
<path d="M6340 2016 c0 -2 9 -6 20 -9 11 -3 18 -1 14 4 -5 9 -34 13 -34 5z"/>
<path d="M6320 1990 c0 -5 5 -10 11 -10 5 0 7 5 4 10 -3 6 -8 10 -11 10 -2 0
-4 -4 -4 -10z"/>
<path d="M6235 1961 c-3 -5 0 -13 6 -17 8 -5 9 -3 4 6 -6 10 -4 12 9 7 10 -4
15 -3 11 3 -8 13 -22 13 -30 1z"/>
<path d="M6124 1908 c-5 -8 -2 -9 9 -5 10 3 17 2 17 -4 0 -6 5 -7 10 -4 6 4 8
11 5 16 -8 13 -32 11 -41 -3z"/>
<path d="M6253 1906 c-10 -11 -9 -15 4 -20 9 -4 18 -4 21 -1 3 3 0 5 -6 5 -6
0 -9 7 -6 15 7 18 3 19 -13 1z"/>
<path d="M6180 1889 c0 -5 5 -7 10 -4 6 3 10 8 10 11 0 2 -4 4 -10 4 -5 0 -10
-5 -10 -11z"/>
<path d="M6120 1876 c0 -2 7 -7 16 -10 8 -3 12 -2 9 4 -6 10 -25 14 -25 6z"/>
<path d="M2673 1813 c9 -2 25 -2 35 0 9 3 1 5 -18 5 -19 0 -27 -2 -17 -5z"/>
<path d="M0 1654 l0 -69 1153 3 c633 1 1217 3 1297 4 80 1 782 1 1560 0 1354
-2 1750 2 1733 19 -4 4 -40 10 -79 13 -39 3 -87 12 -106 20 -20 9 -38 12 -42
9 -3 -4 -6 -1 -6 5 0 7 -10 12 -21 12 -18 0 -19 2 -9 15 11 13 7 15 -21 17
-27 1 -24 3 16 8 28 4 -105 8 -294 8 -189 1 -341 -1 -338 -5 4 -4 34 -6 67 -5
71 2 132 -15 65 -19 l-40 -2 35 -7 c19 -4 28 -8 20 -9 -11 -2 -9 -5 5 -11 21
-9 -49 -14 -150 -11 -49 1 -49 1 -25 -13 l25 -15 -23 -1 c-12 0 -25 7 -28 15
-8 19 -24 19 -24 0 0 -22 -17 -18 -23 6 -5 17 -9 19 -26 9 -12 -6 -21 -15 -21
-20 0 -6 -6 -10 -14 -10 -9 0 -12 8 -8 25 3 18 0 25 -11 25 -9 0 -18 -4 -21
-9 -10 -15 -86 -18 -86 -4 0 9 8 11 25 7 15 -4 25 -2 25 5 0 12 -29 15 -54 5
-8 -3 -12 -12 -9 -21 5 -13 1 -15 -23 -8 -16 5 -51 11 -79 15 l-50 7 45 3 c25
1 56 1 70 0 24 -2 25 -1 5 14 -18 14 -8 16 128 15 82 0 151 2 153 4 17 17
-1243 19 -2296 4 -14 0 -47 0 -75 0 -182 1 -301 -3 -284 -9 16 -6 18 -11 9
-28 -8 -15 -8 -20 2 -20 9 0 9 -3 1 -11 -13 -13 -36 -3 -28 12 4 5 -20 9 -55
9 -38 0 -59 -4 -55 -10 9 -15 -28 -12 -51 4 -18 13 -21 12 -32 -5 -11 -17 -9
-19 20 -20 28 0 30 -2 12 -9 -23 -9 -76 -2 -69 10 11 18 -17 21 -41 5 -14 -9
-28 -14 -32 -11 -3 3 1 6 9 6 10 0 11 2 2 8 -6 4 -56 4 -110 1 -103 -7 -161 2
-83 12 34 4 22 6 -47 7 -62 2 -93 6 -96 15 -4 10 -6 10 -6 0 -1 -7 -8 -13 -17
-13 -10 0 -14 6 -10 15 3 9 0 15 -9 15 -9 0 -12 -6 -8 -17 5 -11 3 -14 -6 -9
-7 5 -10 17 -7 28 5 20 2 21 -332 17 -185 -2 -509 1 -719 5 l-383 9 0 -69z
m1321 32 c-10 -12 -19 -12 -44 -4 -47 16 -46 18 8 18 40 0 46 -2 36 -14z
m3099 -2 c0 -2 -7 -4 -15 -4 -8 0 -15 4 -15 10 0 5 7 7 15 4 8 -4 15 -8 15
-10z m-3031 -3 c8 -5 9 -11 3 -15 -6 -3 -13 -2 -17 3 -3 6 -13 8 -23 5 -14 -5
-15 -4 -2 5 18 13 21 13 39 2z m884 2 c-7 -2 -19 -2 -25 0 -7 3 -2 5 12 5 14
0 19 -2 13 -5z m127 0 c0 -5 -24 -9 -53 -11 -37 -2 -48 1 -37 8 17 11 90 14
90 3z m-1290 -13 c0 -5 -5 -10 -11 -10 -5 0 -7 5 -4 10 3 6 8 10 11 10 2 0 4
-4 4 -10z m1085 0 c3 -5 -1 -10 -10 -10 -9 0 -13 5 -10 10 3 6 8 10 10 10 2 0
7 -4 10 -10z m-95 -30 c-13 -9 -13 -11 0 -20 12 -8 11 -10 -7 -10 -17 0 -21 4
-16 17 5 13 2 15 -15 11 -12 -4 -25 -2 -28 3 -3 5 14 9 38 9 32 0 39 -3 28
-10z m-303 -16 c-3 -3 -12 -4 -19 -1 -8 3 -5 6 6 6 11 1 17 -2 13 -5z m350
-10 c-3 -3 -12 -4 -19 -1 -8 3 -5 6 6 6 11 1 17 -2 13 -5z"/>
<path d="M6126 1676 c-3 -23 -9 -51 -12 -63 l-6 -23 146 0 146 0 0 35 c0 27
-4 35 -17 35 -15 0 -16 2 -3 10 8 5 11 10 5 10 -5 0 -3 5 5 10 11 7 5 10 -23
10 -23 0 -36 4 -32 10 4 6 -31 9 -98 8 l-105 -2 -6 -40z m201 8 c-3 -3 -12 -4
-19 -1 -8 3 -5 6 6 6 11 1 17 -2 13 -5z"/>
<path d="M1486 1701 c17 -16 54 -23 54 -11 0 8 11 11 30 8 17 -3 30 -1 30 4 0
4 -28 8 -62 8 -37 0 -58 -4 -52 -9z"/>
<path d="M1860 1701 c58 -4 132 -4 165 0 37 4 -2 6 -105 6 -150 0 -156 -1 -60
-6z"/>
<path d="M4848 1673 c6 -2 18 -2 25 0 6 3 1 5 -13 5 -14 0 -19 -2 -12 -5z"/>
<path d="M2298 1573 c7 -3 16 -2 19 1 4 3 -2 6 -13 5 -11 0 -14 -3 -6 -6z"/>
<path d="M0 1435 l0 -65 508 2 c279 2 768 2 1087 0 319 -1 1395 -1 2390 2 996
3 1946 5 2113 5 204 1 302 4 302 11 0 7 -21 9 -62 4 -78 -8 -72 3 8 16 l59 9
-70 -5 c-38 -3 -74 -9 -80 -15 -5 -5 -45 -8 -90 -8 -44 1 -68 4 -52 6 15 2 27
9 27 14 0 15 -50 10 -56 -6 -8 -20 -84 -21 -84 -1 0 10 13 16 38 19 20 3 3 2
-38 0 -41 -3 -94 -6 -117 -7 -41 -2 -57 7 -30 17 9 4 9 6 0 6 -6 1 -15 -3 -18
-9 -3 -5 -15 -10 -26 -10 -10 0 -19 5 -19 10 0 6 -7 10 -16 10 -8 0 -12 -4 -9
-10 10 -16 -11 -12 -25 5 -15 19 -64 21 -55 3 4 -7 1 -6 -7 2 -14 16 -41 21
-120 24 -39 1 -44 3 -35 15 10 12 7 13 -17 9 -17 -3 -39 -3 -50 1 -12 4 -39 4
-61 0 l-40 -6 47 -2 c46 -1 68 -13 48 -26 -5 -3 -10 -1 -10 4 0 6 -4 11 -10
11 -5 0 -7 -7 -3 -16 5 -13 2 -15 -15 -10 -17 6 -19 3 -15 -14 7 -25 -12 -27
-26 -2 -7 11 -10 13 -11 3 0 -10 -12 -12 -51 -9 -35 4 -55 1 -64 -8 -7 -8 -29
-16 -49 -18 -28 -4 -34 -2 -29 10 7 18 -28 19 -46 2 -10 -11 -11 -10 -6 3 5
13 -1 16 -34 16 -43 0 -49 -5 -29 -25 9 -9 9 -12 0 -12 -7 0 -12 4 -12 9 0 5
-10 12 -22 16 -31 11 -128 12 -128 3 0 -5 19 -8 42 -8 55 0 46 -6 -22 -13 -30
-4 -49 -3 -43 1 19 12 -43 31 -97 30 -25 0 -49 1 -55 2 -5 1 -14 2 -18 1 -4
-1 -10 6 -13 14 -4 8 -15 15 -26 15 -10 0 -16 5 -13 10 4 6 -8 11 -27 12 -18
1 26 5 97 8 72 3 -439 6 -1135 6 -696 0 -1220 -3 -1165 -6 l100 -6 -95 -4
c-52 -1 -107 -2 -122 -1 -16 1 -28 -3 -28 -8 0 -6 -7 -11 -15 -11 -8 0 -15 5
-15 10 0 13 -37 13 -44 1 -4 -5 -19 -4 -36 2 -25 10 -33 9 -40 -3 -8 -12 -14
-12 -45 -1 -38 13 -61 7 -35 -9 11 -7 8 -10 -12 -10 -16 0 -28 6 -28 13 -1 7
-6 5 -14 -5 -7 -10 -16 -18 -18 -18 -6 0 -21 41 -19 53 1 4 -52 6 -116 5
l-118 -2 105 -5 c101 -6 105 -7 108 -30 2 -13 0 -21 -6 -17 -6 3 -110 7 -231
7 -122 1 -221 6 -221 10 0 5 -26 8 -57 7 l-58 -1 45 -7 45 -7 -40 -1 c-23 -1
-45 2 -50 7 -17 15 -213 22 -219 8 -5 -9 -7 -9 -12 1 -7 14 -84 17 -84 3 0 -5
-26 -9 -57 -9 -32 1 -48 3 -35 5 12 3 22 9 22 14 0 14 28 11 33 -3 3 -10 7
-10 18 -1 10 8 84 10 254 9 132 -1 251 1 265 5 14 4 -327 8 -757 8 l-783 1 0
-65z m750 51 c0 -9 -39 -13 -51 -5 -10 6 -4 9 19 9 17 0 32 -2 32 -4z m147 -2
c-3 -3 -12 -4 -19 -1 -8 3 -5 6 6 6 11 1 17 -2 13 -5z m60 0 c-3 -3 -12 -4
-19 -1 -8 3 -5 6 6 6 11 1 17 -2 13 -5z m1600 0 c-3 -3 -12 -4 -19 -1 -8 3 -5
6 6 6 11 1 17 -2 13 -5z m96 -1 c-7 -2 -21 -2 -30 0 -10 3 -4 5 12 5 17 0 24
-2 18 -5z m-1623 -37 c0 -2 -7 -6 -15 -10 -8 -3 -15 -1 -15 4 0 6 7 10 15 10
8 0 15 -2 15 -4z m4447 -12 c-3 -3 -12 -4 -19 -1 -8 3 -5 6 6 6 11 1 17 -2 13
-5z m-10 -40 c-3 -3 -12 -4 -19 -1 -8 3 -5 6 6 6 11 1 17 -2 13 -5z m366 -1
c-7 -2 -19 -2 -25 0 -7 3 -2 5 12 5 14 0 19 -2 13 -5z m65 0 c-10 -2 -26 -2
-35 0 -10 3 -2 5 17 5 19 0 27 -2 18 -5z m80 0 c-10 -2 -28 -2 -40 0 -13 2 -5
4 17 4 22 1 32 -1 23 -4z"/>
<path d="M1588 1493 c12 -2 30 -2 40 0 9 3 -1 5 -23 4 -22 0 -30 -2 -17 -4z"/>
<path d="M1963 1493 c7 -7 149 -4 156 3 2 2 -33 4 -79 4 -46 0 -80 -3 -77 -7z"/>
<path d="M2198 1493 c23 -2 59 -2 80 0 20 2 1 4 -43 4 -44 0 -61 -2 -37 -4z"/>
<path d="M4888 1493 c7 -3 16 -2 19 1 4 3 -2 6 -13 5 -11 0 -14 -3 -6 -6z"/>
<path d="M5585 1480 c11 -5 27 -9 35 -9 13 -1 13 0 0 9 -8 5 -24 9 -35 9 l-20
0 20 -9z"/>
<path d="M6258 1483 c12 -2 32 -2 45 0 12 2 2 4 -23 4 -25 0 -35 -2 -22 -4z"/>
<path d="M4688 1473 c7 -3 16 -2 19 1 4 3 -2 6 -13 5 -11 0 -14 -3 -6 -6z"/>
<path d="M4728 1473 c6 -2 18 -2 25 0 6 3 1 5 -13 5 -14 0 -19 -2 -12 -5z"/>
<path d="M1858 1463 c12 -2 32 -2 45 0 12 2 2 4 -23 4 -25 0 -35 -2 -22 -4z"/>
<path d="M5225 1440 c-3 -5 3 -10 15 -10 12 0 18 5 15 10 -3 6 -10 10 -15 10
-5 0 -12 -4 -15 -10z"/>
<path d="M6200 1420 l-45 -7 40 -1 c22 0 51 4 65 8 32 10 5 10 -60 0z"/>
<path d="M2258 673 c6 -2 18 -2 25 0 6 3 1 5 -13 5 -14 0 -19 -2 -12 -5z"/>
<path d="M2585 650 c-3 -5 1 -10 10 -10 9 0 13 5 10 10 -3 6 -8 10 -10 10 -2
0 -7 -4 -10 -10z"/>
<path d="M4758 643 c7 -3 16 -2 19 1 4 3 -2 6 -13 5 -11 0 -14 -3 -6 -6z"/>
<path d="M2628 633 c6 -2 18 -2 25 0 6 3 1 5 -13 5 -14 0 -19 -2 -12 -5z"/>
<path d="M2698 633 c7 -3 16 -2 19 1 4 3 -2 6 -13 5 -11 0 -14 -3 -6 -6z"/>
<path d="M2598 613 c23 -2 61 -2 85 0 23 2 4 4 -43 4 -47 0 -66 -2 -42 -4z"/>
<path d="M2788 593 c12 -2 30 -2 40 0 9 3 -1 5 -23 4 -22 0 -30 -2 -17 -4z"/>
<path d="M3280 560 c0 -6 7 -10 15 -10 8 0 15 2 15 4 0 2 -7 6 -15 10 -8 3
-15 1 -15 -4z"/>
<path d="M3505 540 c-17 -7 -14 -9 13 -9 20 -1 31 3 27 9 -7 12 -13 12 -40 0z"/>
</g>
</svg>
