<?xml version="1.0" standalone="no"?>
<!DOCTYPE svg PUBLIC "-//W3C//DTD SVG 20010904//EN"
 "http://www.w3.org/TR/2001/REC-SVG-20010904/DTD/svg10.dtd">
<svg version="1.0" xmlns="http://www.w3.org/2000/svg"
 width="640.000000pt" height="640.000000pt" viewBox="0 0 640.000000 640.000000"
 preserveAspectRatio="xMidYMid meet">

<g transform="translate(0.000000,640.000000) scale(0.100000,-0.100000)"
fill="#000000" stroke="none">
<path d="M0 5786 l0 -614 38 -6 c20 -3 114 -13 207 -21 161 -14 306 -22 785
-45 273 -13 711 -40 730 -45 8 -2 96 -7 195 -10 99 -4 205 -8 235 -10 138 -6
537 -27 755 -39 132 -7 254 -13 270 -13 142 1 839 -32 945 -44 117 -14 192
-17 600 -24 195 -3 371 -9 390 -15 19 -5 64 -11 100 -14 124 -9 200 -19 200
-27 0 -4 10 -9 23 -11 13 -2 23 -11 25 -24 6 -40 52 -46 365 -44 161 1 347 4
415 7 l122 6 0 530 c0 476 -2 528 -15 517 -9 -7 -42 -14 -74 -14 -49 -1 -64 4
-94 27 -70 53 -69 146 4 198 37 26 141 40 153 20 20 -32 26 2 26 159 l0 170
-3200 0 -3200 0 0 -614z m5786 230 c49 -49 56 -84 29 -136 -19 -37 -43 -50
-92 -50 -46 0 -98 43 -108 90 -14 66 37 139 98 140 21 0 41 -12 73 -44z m-719
-95 c43 -32 63 -88 65 -176 2 -65 -1 -78 -26 -114 -35 -50 -86 -71 -172 -71
-89 0 -117 17 -148 86 -39 89 -27 200 29 254 57 55 191 66 252 21z m-949 -42
c50 -27 76 -70 69 -115 -7 -43 -49 -98 -87 -114 -73 -30 -160 29 -160 107 0
42 41 106 80 125 44 23 50 22 98 -3z m-281 -55 c16 -12 39 -36 51 -55 30 -43
27 -112 -7 -181 l-24 -46 31 -39 c17 -21 34 -50 37 -65 14 -54 -35 -142 -96
-173 -20 -11 -62 -15 -149 -15 -131 0 -168 9 -209 54 -20 21 -33 26 -74 26
-59 0 -110 22 -137 60 -26 36 -63 222 -56 280 7 53 50 119 91 139 18 9 68 16
125 18 52 2 133 7 180 12 129 14 205 9 237 -15z m-3104 -33 c10 -4 19 -11 20
-16 1 -6 7 -9 14 -9 7 1 12 -1 11 -5 -1 -3 2 -13 5 -21 28 -69 24 -123 -12
-170 -18 -23 -27 -25 -93 -25 -58 1 -81 5 -110 23 -38 24 -48 44 -48 106 0 34
7 46 45 83 42 40 49 43 98 42 28 0 60 -4 70 -8z m562 -26 c38 -8 96 -15 128
-15 110 0 161 -46 161 -147 0 -59 -19 -93 -73 -130 -31 -21 -42 -22 -200 -20
-189 3 -224 13 -267 76 -34 51 -34 131 2 182 45 65 119 81 249 54z m1465 -19
c22 -15 59 -25 100 -29 45 -5 68 -12 75 -23 6 -10 18 -24 28 -33 19 -17 21
-46 10 -153 -4 -53 -9 -68 -22 -68 -14 0 -14 -2 -1 -10 12 -9 8 -16 -25 -45
-32 -28 -48 -35 -84 -35 -38 0 -48 5 -88 45 -28 29 -51 44 -61 41 -10 -2 -46
-8 -82 -11 -36 -4 -68 -12 -72 -19 -6 -8 -12 -8 -26 0 -9 6 -32 15 -50 19 -21
4 -37 16 -47 34 -7 15 -21 33 -29 40 -13 11 -16 9 -22 -14 -4 -15 -29 -61 -56
-101 -50 -74 -79 -94 -144 -94 -26 0 -74 36 -74 56 0 8 -4 14 -10 14 -5 0 -10
8 -10 18 0 14 2 15 10 2 6 -9 10 -10 10 -3 0 6 -6 18 -13 25 -8 7 -17 35 -20
63 -4 27 -12 54 -17 59 -16 16 -11 84 9 124 35 67 74 95 139 100 68 5 109 -12
144 -58 27 -36 35 -37 50 -5 21 47 75 73 173 83 112 12 160 7 205 -22z m-1940
-22 c0 -8 -4 -12 -10 -9 -5 3 -10 10 -10 16 0 5 5 9 10 9 6 0 10 -7 10 -16z"/>
<path d="M240 4975 c0 -11 11 -15 43 -14 23 0 51 4 62 8 16 7 14 9 -14 14 -57
12 -91 8 -91 -8z"/>
<path d="M502 4967 c-10 -12 -6 -14 28 -12 38 2 71 15 39 15 -8 0 -23 3 -35 6
-12 3 -25 -1 -32 -9z"/>
<path d="M998 4943 c12 -2 30 -2 40 0 9 3 -1 5 -23 4 -22 0 -30 -2 -17 -4z"/>
<path d="M1088 4944 c21 -10 13 -20 -27 -34 -42 -14 -88 -51 -113 -91 -9 -13
-26 -77 -38 -141 -12 -65 -28 -124 -34 -133 -16 -21 -251 -24 -273 -3 -17 17
-42 151 -43 225 0 46 -5 58 -35 92 -19 21 -35 43 -35 49 0 14 -25 22 -69 22
-50 0 -97 -43 -113 -105 -7 -26 -20 -51 -30 -56 -13 -7 -19 -1 -34 37 -27 72
-49 94 -93 94 -60 0 -93 -49 -129 -190 -15 -59 -17 -266 -19 -2388 l-3 -2322
961 0 c528 0 959 3 957 8 -23 45 -42 97 -58 158 -17 70 -41 116 -75 144 -24
20 -18 37 18 43 40 6 62 -5 79 -41 14 -28 46 -39 76 -26 9 3 27 8 39 10 12 1
42 16 67 33 25 17 51 31 60 31 8 0 21 6 28 13 7 7 40 19 73 27 33 8 64 20 68
27 4 7 16 13 25 13 10 0 26 6 37 13 18 12 112 51 125 52 3 0 16 10 28 21 13
12 44 30 70 39 26 10 128 57 227 105 99 48 191 91 205 95 14 4 39 15 55 25 17
10 118 63 225 117 l195 98 105 0 c92 0 111 3 155 25 93 47 350 183 360 190 6
4 73 40 150 81 77 40 165 88 195 106 30 18 58 33 62 33 4 0 74 35 155 79 185
98 297 157 538 283 105 55 233 123 285 151 228 121 625 315 658 320 9 2 52 20
94 40 43 20 82 37 88 37 5 0 10 5 10 11 0 5 5 7 11 4 5 -4 19 1 30 11 16 14
19 31 19 101 0 80 -5 94 -25 74 -11 -10 -302 -157 -445 -224 -52 -24 -184 -88
-292 -141 -108 -53 -199 -96 -203 -96 -4 0 -19 -8 -33 -18 -15 -10 -61 -33
-102 -52 -41 -18 -138 -63 -215 -100 -285 -137 -312 -150 -320 -150 -5 0 -16
-6 -24 -13 -9 -7 -51 -28 -94 -46 -43 -19 -135 -62 -204 -96 -111 -55 -129
-61 -139 -47 -9 13 -12 12 -17 -9 -4 -15 -21 -30 -44 -41 -80 -35 -149 -69
-183 -89 -19 -11 -44 -25 -55 -32 -11 -6 -25 -10 -31 -9 -7 1 -14 -8 -17 -20
-4 -12 -9 -19 -13 -15 -3 3 -14 -3 -24 -15 -16 -20 -17 -19 -34 53 -23 95 -59
190 -98 259 -38 68 -60 95 -129 156 -30 26 -55 50 -57 53 -1 4 25 7 58 8 33 0
66 5 73 11 15 12 291 122 306 122 6 0 19 4 29 10 53 29 159 71 193 76 21 4 39
10 39 14 0 4 8 10 18 13 9 3 67 26 127 52 61 25 200 82 310 127 110 44 214 86
230 93 17 7 50 20 75 30 25 9 59 23 75 30 17 7 84 36 150 64 66 27 165 69 220
92 89 37 146 60 210 83 28 11 50 20 128 55 38 17 71 31 73 31 3 0 24 9 47 19
23 11 78 33 122 51 44 17 96 38 115 46 19 9 55 25 80 36 25 11 61 27 80 37
l35 17 3 222 c1 122 0 222 -2 222 -3 0 -25 -6 -48 -14 -24 -7 -86 -25 -138
-40 -52 -15 -104 -31 -115 -35 -48 -19 -94 -34 -145 -47 -81 -21 -192 -55
-405 -122 -104 -33 -251 -79 -325 -102 -74 -23 -144 -46 -155 -51 -11 -4 -92
-32 -180 -60 -88 -28 -226 -73 -306 -100 -81 -27 -154 -49 -163 -49 -9 0 -16
-3 -16 -8 0 -4 -21 -13 -47 -20 -27 -7 -66 -17 -88 -23 -21 -5 -44 -14 -50
-18 -14 -12 -75 -19 -75 -9 0 16 -18 8 -22 -10 -4 -13 -23 -22 -64 -31 -32 -8
-71 -22 -86 -32 -32 -23 -42 -24 -62 -4 -13 13 -15 12 -21 -13 -3 -16 -11 -29
-18 -30 -7 0 -32 -6 -57 -13 -25 -6 -55 -11 -67 -10 -13 0 -23 -3 -23 -8 0 -5
-20 -14 -45 -20 -25 -6 -45 -16 -45 -22 0 -8 -12 -10 -34 -6 -30 5 -35 2 -40
-18 -4 -17 -11 -22 -26 -18 -14 4 -20 0 -20 -10 0 -10 11 -17 28 -19 l27 -3
-32 -12 -31 -11 -12 71 c-25 152 -78 283 -150 369 -27 33 -53 65 -57 72 -5 7
-19 20 -33 29 -19 13 -21 17 -7 17 9 0 17 -4 17 -10 0 -5 18 -10 41 -10 22 0
50 -5 61 -11 14 -8 18 -8 14 0 -4 6 5 13 21 17 15 4 39 12 53 19 14 7 77 23
140 35 113 22 203 48 267 77 23 11 36 12 52 4 24 -13 61 -14 61 -2 0 16 133
57 218 67 24 3 67 12 95 20 29 8 68 19 87 23 19 4 44 12 55 18 11 6 56 19 99
28 44 9 82 18 86 20 9 5 225 62 260 68 87 16 106 20 115 27 6 3 48 15 95 24
47 10 101 24 120 31 19 7 60 16 90 20 30 4 60 10 65 14 11 7 140 39 193 48 17
3 32 10 32 15 0 6 8 7 17 4 9 -4 19 -2 23 4 4 7 40 16 81 21 96 11 129 19 129
28 0 4 6 8 13 8 6 0 47 10 89 21 43 12 116 28 162 37 47 8 101 21 120 29 19 8
68 22 110 31 l76 17 0 79 c0 78 0 78 -23 70 -13 -5 -50 -12 -83 -16 -32 -4
-84 -13 -114 -20 -30 -8 -68 -16 -85 -19 -16 -2 -73 -14 -125 -26 -106 -24
-222 -49 -510 -111 -107 -23 -256 -55 -330 -71 -74 -16 -175 -38 -225 -47 -49
-10 -119 -24 -155 -31 -36 -7 -148 -33 -250 -57 -203 -49 -296 -69 -380 -84
-30 -5 -82 -16 -115 -25 -33 -8 -94 -24 -135 -34 -41 -10 -92 -24 -114 -30
-77 -23 -136 -28 -152 -13 -12 12 -15 11 -25 -11 -10 -21 -22 -27 -61 -32 -27
-4 -51 -11 -54 -15 -8 -13 -78 -11 -92 3 -8 8 -14 5 -21 -15 -8 -20 -16 -25
-36 -22 -16 1 -29 -3 -32 -11 -3 -8 -16 -14 -28 -14 -22 0 -132 -22 -182 -36
-19 -5 -23 -2 -24 17 l-1 24 -7 -25 c-4 -15 -15 -26 -29 -28 -12 -2 -22 -11
-22 -19 0 -38 -12 1 -21 67 -28 196 -143 392 -250 420 -51 14 -50 23 4 18 23
-3 101 4 172 14 169 24 239 31 205 19 -14 -5 -41 -10 -60 -10 -19 -1 -66 -8
-105 -17 -38 -8 -90 -15 -115 -15 l-44 -1 27 -16 c15 -9 27 -20 27 -25 0 -4 9
-3 20 3 11 6 24 9 28 6 5 -3 26 -1 48 4 21 5 56 12 77 15 25 4 35 10 30 18 -4
7 0 6 10 -2 15 -12 22 -12 42 -1 28 15 78 17 113 5 16 -5 22 -3 22 8 0 11 15
17 53 22 29 4 62 6 73 4 10 -1 27 1 37 6 10 4 31 2 48 -5 35 -15 52 -4 26 15
-17 12 -14 13 23 10 24 -1 57 1 74 7 17 5 45 11 61 13 17 2 55 9 85 15 90 17
161 28 240 39 132 19 343 51 395 60 28 6 69 13 93 16 23 4 42 10 42 14 0 4 25
9 57 10 31 1 69 9 84 17 15 8 47 14 71 14 24 0 99 9 168 20 116 18 166 26 430
65 93 14 200 28 230 31 8 1 22 4 30 6 33 12 457 81 700 114 63 9 125 18 138
20 21 4 22 8 22 130 l0 126 -62 -6 c-35 -3 -133 -11 -218 -17 -85 -6 -225 -18
-310 -25 -85 -8 -227 -21 -315 -29 -88 -8 -225 -22 -305 -30 -80 -8 -181 -17
-225 -20 -44 -3 -91 -8 -105 -10 -14 -3 -47 -7 -75 -11 -27 -3 -61 -8 -75 -10
-14 -2 -67 -8 -118 -13 -51 -6 -100 -12 -110 -15 -9 -3 -75 -8 -147 -11 -71
-4 -132 -10 -135 -13 -7 -10 -21 -12 -110 -13 -44 -1 -83 -5 -86 -10 -3 -5
-20 -9 -37 -9 -18 0 -48 -4 -67 -9 -19 -5 -62 -12 -95 -15 -33 -3 -75 -8 -92
-12 -25 -5 -33 -3 -33 7 0 9 -3 10 -8 3 -9 -13 -194 -44 -277 -45 -33 -1 -76
-5 -96 -10 -19 -5 -73 -11 -120 -14 -46 -3 -133 -12 -194 -20 -106 -14 -209
-23 -344 -30 -35 -2 -66 -6 -69 -9 -3 -3 -12 -1 -19 6 -10 8 -17 8 -21 2 -8
-12 -273 -42 -407 -48 l-30 -1 -6 90 c-9 118 -36 214 -87 310 -22 41 -32 50
-88 80 -62 33 -119 33 -187 -1 -41 -21 -67 -27 -122 -28 l-70 -1 -2 45 c-5 74
-34 232 -54 285 -11 31 -37 68 -64 95 -43 42 -49 45 -100 45 -46 0 -58 -4 -84
-29 l-31 -30 -30 29 c-16 16 -30 37 -30 47 0 16 8 18 88 13 87 -5 101 -6 125
-4 6 0 102 -1 212 -3 110 -2 178 0 150 4 -69 10 -268 29 -340 32 -33 2 -114 6
-180 10 -66 3 -114 3 -107 0z m-198 -574 c0 -5 -9 -10 -19 -10 -11 0 -23 5
-26 10 -4 6 5 10 19 10 14 0 26 -4 26 -10z m30 -96 c0 -24 -17 -15 -22 11 -4
20 -3 23 8 14 8 -6 14 -18 14 -25z m2597 -560 c-3 -3 -12 -4 -19 -1 -8 3 -5 6
6 6 11 1 17 -2 13 -5z m-84 -11 c-7 -2 -19 -2 -25 0 -7 3 -2 5 12 5 14 0 19
-2 13 -5z m-163 -22 c-18 -10 -107 -25 -99 -16 4 3 26 9 50 14 59 12 67 12 49
2z m-263 -77 c-3 -3 -12 -4 -19 -1 -8 3 -5 6 6 6 11 1 17 -2 13 -5z m-577
-124 c0 -16 -38 -50 -56 -50 -8 0 -24 -5 -35 -10 -19 -11 -19 -12 5 -53 26
-44 46 -147 29 -147 -5 0 -14 15 -20 33 -6 17 -25 70 -42 117 -17 47 -31 89
-31 93 0 5 19 8 43 6 23 -1 53 3 67 9 32 14 40 14 40 2z m1467 -316 c-3 -3
-12 -4 -19 -1 -8 3 -5 6 6 6 11 1 17 -2 13 -5z m-100 -20 c-3 -3 -12 -4 -19
-1 -8 3 -5 6 6 6 11 1 17 -2 13 -5z m-70 -20 c-3 -3 -12 -4 -19 -1 -8 3 -5 6
6 6 11 1 17 -2 13 -5z m-57 -14 c-14 -4 -36 -8 -50 -8 l-25 0 25 8 c14 4 36 8
50 8 l25 0 -25 -8z m-110 -31 c0 -7 -10 -9 -25 -7 -14 3 -28 1 -31 -3 -3 -5
-20 -9 -39 -9 -18 0 -35 -5 -37 -10 -2 -6 -21 -12 -43 -15 -22 -3 -53 -7 -70
-10 l-30 -5 30 11 c17 6 37 11 45 13 8 1 29 8 45 16 61 26 155 38 155 19z
m-322 -66 c-10 -2 -18 -9 -18 -14 0 -12 -67 -12 -75 0 -5 9 33 17 85 18 15 1
18 -1 8 -4z m-1958 -122 c13 -46 13 -91 0 -91 -19 0 -41 50 -47 107 l-6 58 21
-19 c12 -10 26 -35 32 -55z m1269 -40 c59 -30 135 -120 165 -195 40 -102 31
-124 -13 -31 -47 99 -108 177 -169 216 -52 33 -41 39 17 10z m-850 -140 c22
-31 27 -66 11 -76 -12 -7 -36 31 -45 73 -8 40 7 42 34 3z m491 -64 c0 -18 -2
-19 -10 -7 -13 20 -13 43 0 35 6 -3 10 -16 10 -28z m1800 -52 c-46 -18 -74
-17 -35 0 17 8 39 14 50 14 13 0 8 -5 -15 -14z m-175 -54 c-6 -4 -23 -11 -40
-14 l-30 -6 30 14 c35 16 54 19 40 6z m-90 -31 c-7 -11 -72 -30 -100 -29 -11
1 5 9 35 19 65 22 73 23 65 10z m150 -150 c-27 -12 -43 -12 -25 0 8 5 22 9 30
9 10 0 8 -3 -5 -9z m-145 -50 c-8 -5 -19 -10 -25 -10 -5 0 -3 5 5 10 8 5 20
10 25 10 6 0 3 -5 -5 -10z m-70 -24 c0 -6 -123 -47 -127 -42 -2 2 22 13 54 24
62 22 73 24 73 18z m-2067 -279 c-9 -14 -23 4 -23 31 l1 27 13 -25 c8 -14 12
-28 9 -33z m1661 -116 c14 -15 23 -18 42 -11 24 9 54 4 54 -9 0 -10 -70 -85
-74 -80 -2 2 -11 19 -20 36 -39 78 -40 106 -2 64z m151 -1 c3 -5 -1 -10 -10
-10 -9 0 -13 5 -10 10 3 6 8 10 10 10 2 0 7 -4 10 -10z m-1298 -46 c22 -41 30
-94 13 -94 -9 0 -46 76 -57 118 -9 38 18 23 44 -24z m893 -574 c22 -11 46 -20
55 -20 8 0 15 -3 15 -7 0 -13 -121 -65 -164 -71 -22 -3 -55 -15 -73 -28 -19
-13 -51 -28 -71 -35 -47 -15 -152 -56 -174 -69 -26 -15 -48 -1 -48 30 0 31 23
55 45 47 8 -4 18 0 22 7 5 7 33 25 63 38 30 14 76 35 102 47 26 11 58 21 72
21 14 0 37 13 54 30 36 35 50 37 102 10z"/>
<path d="M864 4888 c-4 -6 5 -21 22 -35 29 -23 29 -23 32 -2 6 36 -36 66 -54
37z"/>
<path d="M1753 4866 c-46 -17 -51 -26 -14 -26 43 0 121 -20 121 -31 0 -5 5 -9
11 -9 8 0 8 4 0 14 -6 7 -9 21 -5 30 4 11 -2 19 -21 26 -32 12 -50 11 -92 -4z"/>
<path d="M1870 4870 c0 -18 55 -37 127 -43 75 -6 103 -16 141 -50 19 -18 22
-18 22 -4 0 9 -6 17 -12 17 -7 0 -2 9 12 20 15 13 36 19 53 17 15 -2 27 0 27
4 0 4 9 5 20 2 12 -3 22 1 26 11 3 9 12 16 19 16 8 0 16 4 19 9 7 10 -119 9
-130 -1 -4 -5 -16 -8 -26 -8 -11 0 -17 3 -15 8 3 4 -31 8 -74 10 -51 2 -79 0
-79 -7 0 -14 -87 -14 -95 -1 -8 13 -35 13 -35 0z"/>
<path d="M2640 4869 c0 -8 -41 -10 -137 -8 -120 4 -138 2 -141 -12 -2 -13 12
-17 90 -23 159 -12 526 -19 968 -20 501 -1 570 13 150 30 -151 7 -347 16 -435
21 -135 8 -268 9 -385 3 -13 -1 -26 3 -28 9 -5 15 -82 14 -82 0z"/>
<path d="M728 4863 c6 -2 18 -2 25 0 6 3 1 5 -13 5 -14 0 -19 -2 -12 -5z"/>
<path d="M1578 4853 c7 -3 16 -2 19 1 4 3 -2 6 -13 5 -11 0 -14 -3 -6 -6z"/>
<path d="M1658 4843 c7 -3 16 -2 19 1 4 3 -2 6 -13 5 -11 0 -14 -3 -6 -6z"/>
<path d="M3938 4803 c12 -2 32 -2 45 0 12 2 2 4 -23 4 -25 0 -35 -2 -22 -4z"/>
<path d="M4033 4803 c15 -2 39 -2 55 0 15 2 2 4 -28 4 -30 0 -43 -2 -27 -4z"/>
<path d="M5256 4572 c-5 -4 -307 -12 -621 -17 -154 -3 -352 -7 -440 -10 -88
-3 -365 -12 -615 -20 -250 -8 -552 -19 -670 -25 -118 -5 -267 -10 -330 -10
-65 0 -122 -5 -130 -11 -12 -8 -9 -9 12 -5 14 3 35 3 45 -1 16 -6 15 -8 -7
-14 -46 -13 -98 -10 -104 6 -3 9 -18 15 -38 15 -23 0 -29 -3 -19 -9 25 -16 0
-31 -53 -31 -103 0 -266 -13 -266 -22 0 -4 9 -8 20 -8 11 0 23 -7 26 -15 5
-12 19 -14 72 -9 189 15 274 19 278 12 7 -11 42 -10 46 1 2 5 51 11 110 13 97
3 109 1 137 -20 l31 -22 -6 30 c-6 25 3 39 19 28 1 -1 12 4 24 10 16 9 24 9
29 1 7 -12 209 -6 280 7 16 3 97 8 179 10 296 9 681 23 735 28 56 5 299 23
425 31 39 3 237 12 440 20 493 20 617 27 609 34 -5 6 -213 9 -218 3z"/>
<path d="M2062 4473 c-45 -2 -81 -7 -78 -11 2 -4 62 -5 133 -3 80 2 121 6 108
11 -11 5 -33 8 -50 7 -16 0 -67 -3 -113 -4z"/>
<path d="M1945 4460 c4 -6 11 -8 16 -5 14 9 11 15 -7 15 -8 0 -12 -5 -9 -10z"/>
<path d="M4017 3040 c15 -16 29 -30 31 -30 6 0 -22 45 -32 52 -26 18 -26 6 1
-22z"/>
<path d="M6305 2275 c-44 -24 -102 -57 -128 -72 -27 -15 -61 -35 -75 -43 -15
-8 -54 -31 -87 -51 -33 -20 -112 -63 -175 -97 -63 -33 -167 -88 -230 -122 -63
-34 -180 -96 -260 -137 -80 -42 -156 -84 -170 -93 -24 -17 -329 -182 -550
-298 -58 -30 -109 -58 -115 -62 -5 -4 -73 -40 -150 -80 -77 -40 -145 -76 -151
-81 -37 -30 -1617 -819 -1638 -819 -10 0 -32 -11 -50 -25 -40 -30 -163 -95
-180 -95 -7 0 -24 -8 -37 -18 -20 -16 -162 -84 -301 -146 -21 -9 -38 -21 -38
-26 0 -6 107 -10 274 -10 258 0 276 1 288 19 7 10 34 25 58 32 25 7 61 25 80
40 19 15 71 46 115 69 44 24 92 51 106 61 14 10 63 38 110 62 102 54 200 107
214 117 10 7 56 33 165 93 30 17 71 40 90 52 19 12 64 36 100 54 36 19 106 57
155 86 50 29 119 67 155 85 35 18 100 54 143 81 43 27 81 49 84 49 2 0 35 17
71 39 37 21 92 52 122 68 30 16 98 54 150 85 52 30 124 70 160 90 36 19 90 50
120 68 61 36 93 54 225 125 50 26 131 71 180 100 50 29 126 71 170 94 44 23
101 55 126 70 25 16 81 47 123 69 43 23 83 45 90 50 6 5 65 38 131 72 66 35
127 68 135 75 8 6 31 18 50 25 19 8 63 30 97 51 34 20 88 49 120 64 32 15 64
32 71 38 17 14 123 57 140 57 9 0 12 25 12 90 0 50 -3 90 -7 90 -5 -1 -44 -21
-88 -45z"/>
<path d="M6380 2070 c0 -5 -6 -10 -14 -10 -8 0 -34 -15 -58 -32 -74 -56 -124
-88 -136 -88 -7 0 -12 -4 -12 -8 0 -5 -12 -15 -27 -23 -16 -7 -59 -35 -98 -60
-38 -26 -83 -54 -100 -63 -16 -9 -39 -22 -50 -29 -10 -6 -58 -35 -105 -64 -47
-29 -90 -57 -97 -63 -7 -5 -14 -10 -17 -10 -2 0 -34 -18 -70 -40 -36 -22 -68
-40 -71 -40 -3 0 -18 -8 -33 -19 -15 -10 -139 -85 -277 -166 -137 -81 -284
-168 -325 -192 -85 -51 -125 -75 -190 -111 -25 -14 -57 -32 -72 -41 -93 -55
-471 -278 -511 -302 -27 -16 -50 -29 -52 -29 -3 0 -35 -19 -72 -42 -38 -22
-95 -55 -128 -73 -33 -17 -112 -64 -177 -103 -64 -40 -118 -72 -121 -72 -3 0
-45 -23 -94 -52 -48 -28 -124 -72 -168 -98 -44 -26 -158 -89 -253 -141 l-173
-94 332 -3 333 -2 125 76 c69 42 154 95 188 118 68 45 208 134 318 201 79 49
210 133 299 191 33 22 67 44 76 49 8 6 40 26 70 46 154 101 261 169 310 198
30 17 66 40 80 51 22 16 186 123 345 225 28 17 88 56 135 86 92 60 194 123
244 152 17 11 40 27 52 38 11 10 23 19 27 19 4 0 38 20 77 45 39 25 73 45 76
45 3 0 28 15 57 33 29 19 58 32 66 29 8 -3 11 0 7 7 -4 6 3 15 17 20 14 6 28
15 32 21 3 5 11 8 16 4 6 -3 19 2 30 12 15 14 19 14 19 2 0 -16 -51 -68 -67
-68 -6 0 -13 -7 -17 -15 -3 -8 -15 -15 -26 -15 -11 0 -23 -6 -26 -14 -3 -7
-26 -28 -52 -47 -26 -18 -51 -39 -55 -46 -4 -7 -15 -13 -22 -13 -8 0 -23 -7
-32 -16 -71 -63 -322 -240 -663 -467 -63 -42 -149 -101 -190 -131 -41 -31
-118 -82 -170 -115 -52 -33 -99 -64 -105 -69 -5 -4 -55 -37 -110 -73 -55 -36
-188 -124 -295 -194 -187 -123 -528 -347 -566 -372 -16 -10 9 -12 131 -10
l150 3 68 44 c38 25 89 60 115 78 26 17 151 102 277 187 127 85 259 175 295
200 36 25 115 79 175 120 61 42 175 120 255 175 80 55 153 105 164 112 10 7
47 34 82 61 35 26 67 47 72 47 5 0 17 9 28 21 10 12 39 33 64 47 25 15 51 32
59 40 7 7 45 33 85 59 39 25 94 62 121 83 28 20 86 63 130 96 112 83 191 138
258 182 l57 37 0 242 c0 155 -4 243 -10 243 -5 0 -10 -4 -10 -10z"/>
<path d="M4350 2054 c0 -7 27 -34 34 -34 4 0 1 9 -6 20 -12 19 -28 27 -28 14z"/>
<path d="M4104 1955 c11 -8 24 -15 30 -15 5 0 1 7 -10 15 -10 8 -23 14 -29 14
-5 0 -1 -6 9 -14z"/>
<path d="M6365 1357 c-16 -12 -58 -42 -92 -67 -34 -25 -104 -75 -155 -113 -51
-37 -130 -94 -175 -127 -45 -33 -86 -60 -91 -60 -5 0 -19 -12 -33 -26 -13 -15
-41 -37 -62 -50 -20 -14 -45 -31 -55 -39 -9 -8 -38 -30 -63 -47 -42 -30 -152
-109 -289 -208 -181 -131 -349 -254 -435 -317 -55 -40 -145 -105 -200 -146
-55 -40 -126 -90 -159 -112 l-59 -40 98 -3 c109 -3 147 9 220 73 42 36 92 75
263 203 57 42 148 111 202 152 54 41 108 82 120 90 12 8 38 29 57 45 51 43
123 92 161 110 17 8 32 20 32 25 0 6 7 10 15 10 8 0 19 9 25 20 6 11 17 20 24
20 8 0 16 7 20 15 3 8 15 15 26 15 11 0 20 4 20 8 0 5 12 15 28 23 15 8 36 22
47 32 11 10 32 21 48 24 15 3 27 11 27 17 0 12 74 66 90 66 5 0 10 5 12 11 4
12 38 1 38 -12 0 -5 -11 -15 -25 -21 -14 -6 -25 -17 -25 -25 0 -7 -3 -13 -7
-13 -5 0 -27 -17 -50 -38 -42 -37 -75 -65 -165 -139 -25 -21 -106 -87 -179
-148 -73 -60 -165 -135 -205 -165 -62 -47 -355 -281 -464 -370 l-35 -29 207 0
c190 -1 208 1 230 18 152 127 280 238 348 301 15 14 53 48 85 75 33 28 107 93
165 144 58 52 110 98 115 102 6 5 52 44 103 88 51 44 124 106 162 137 l70 58
0 228 c0 125 -1 228 -2 227 -2 0 -16 -10 -33 -22z m-185 -316 c0 -13 -29 -35
-37 -28 -7 8 15 37 28 37 5 0 9 -4 9 -9z m-82 -63 c-5 -15 -23 -11 -26 6 -2
11 2 14 13 10 9 -4 14 -11 13 -16z"/>
<path d="M6324 702 c-39 -37 -84 -78 -101 -92 -17 -14 -78 -70 -135 -125 -58
-55 -152 -143 -209 -195 -57 -52 -131 -120 -164 -151 -33 -31 -80 -75 -105
-98 l-45 -41 418 0 417 1 0 384 c0 212 -1 385 -2 385 -2 0 -35 -31 -74 -68z"/>
</g>
</svg>
