<?xml version="1.0" encoding="UTF-8"?>
<svg version="1.1" xmlns="http://www.w3.org/2000/svg" width="640" height="640">
<path d="M0 0 C211.2 0 422.4 0 640 0 C640 211.2 640 422.4 640 640 C428.8 640 217.6 640 0 640 C0 428.8 0 217.6 0 0 Z " fill="#111214" transform="translate(0,0)"/>
<path d="M0 0 C2.16665279 0.32772417 4.09000597 1.03085628 6.16064453 1.74072266 C12.81884752 4.00537044 18.87393787 4.46854795 25.875 4.375 C26.92985596 4.36919922 27.98471191 4.36339844 29.0715332 4.35742188 C35.63056255 4.2479273 41.48015546 3.73008667 47.73046875 1.65625 C50.30974307 0.91043574 52.32717223 0.75740947 55 1 C56.82928221 2.08401909 58.6508194 3.18458277 60.41796875 4.3671875 C64.36324934 6.86208506 68.50009187 8.97829948 72.63232422 11.14453125 C84.65726944 17.46785916 84.65726944 17.46785916 89 23 C89.875 25.875 89.875 25.875 90 28 C90.66 28 91.32 28 92 28 C96.52196903 37.10977318 96.65110355 45.90823461 96.57641602 55.84545898 C96.56239275 58.45747616 96.59690746 61.06600979 96.63476562 63.67773438 C96.63571561 65.34635504 96.63386451 67.01498018 96.62890625 68.68359375 C96.64216446 69.45964462 96.65542267 70.2356955 96.66908264 71.03526306 C96.61048356 74.42494594 96.37792656 76.52984878 94.22743225 79.2051239 C89.21209534 81.99430975 84.37620036 81.53988317 78.72998047 81.48583984 C76.86342804 81.49153488 76.86342804 81.49153488 74.95916748 81.49734497 C71.55404892 81.50347876 68.14990421 81.49176169 64.74490118 81.47143888 C61.180211 81.45384527 57.61553651 81.45739337 54.05081177 81.4581604 C48.06715102 81.4562889 42.08369347 81.43894315 36.10009766 81.41162109 C29.18073956 81.38014311 22.2616037 81.36962597 15.34217918 81.3710922 C8.68450008 81.37231246 2.02689335 81.36210623 -4.63076401 81.34550858 C-7.46403442 81.33844532 -10.29727922 81.33478244 -13.13055801 81.33372116 C-17.08337525 81.33134089 -21.03600731 81.31192501 -24.98876953 81.29052734 C-26.16702301 81.29143372 -27.34527649 81.29234009 -28.55923462 81.29327393 C-29.63314453 81.28474396 -30.70705444 81.27621399 -31.81350708 81.26742554 C-32.74816362 81.26407385 -33.68282017 81.26072216 -34.64579964 81.25726891 C-37 81 -37 81 -40 79 C-40 78.34 -40 77.68 -40 77 C-40.66 77 -41.32 77 -42 77 C-42.12536964 72.12948576 -42.21515355 67.25994856 -42.2746582 62.38818359 C-42.29951117 60.73762617 -42.33340662 59.0871753 -42.37719727 57.43701172 C-42.73340389 43.64971988 -41.46736778 30.96446834 -32.0859375 19.96484375 C-26.24246805 14.46060193 -19.33694406 11.06817661 -12 8 C-5.60541565 4.53972835 -5.60541565 4.53972835 0 0 Z " fill="#04AFFE" transform="translate(295,316)"/>
<path d="M0 0 C7.16231657 6.0799086 12.06803553 15.27009077 12.92578125 24.671875 C12.9686679 37.30914009 10.53423607 48.34454926 1.3984375 57.640625 C-8.30851008 65.96086578 -18.35343882 68.51943136 -30.921875 67.94921875 C-40.37305351 67.06594993 -48.42654259 61.40512452 -54.7265625 54.546875 C-61.25410551 45.94660506 -64.35274268 36.11489224 -63.375 25.375 C-61.28735905 12.73498645 -56.43569925 5.19419631 -46.375 -2.625 C-31.79073351 -13.00285699 -13.784123 -9.99863251 0 0 Z " fill="#0498FD" transform="translate(347.375,238.625)"/>
<path d="M0 0 C0 1.32 0 2.64 0 4 C-0.66 4 -1.32 4 -2 4 C-2 4.99 -2 5.98 -2 7 C-1.113125 7.12375 -0.22625 7.2475 0.6875 7.375 C3.70387502 7.94412736 6.20326054 8.76614436 9 10 C9 10.66 9 11.32 9 12 C9.99 12.33 10.98 12.66 12 13 C12 14.32 12 15.64 12 17 C14.64 17 17.28 17 20 17 C20 18.32 20 19.64 20 21 C20.14697979 22.58528205 20.31397926 24.1688237 20.5 25.75 C20.5928125 26.54921875 20.685625 27.3484375 20.78125 28.171875 C20.88953125 29.07679688 20.88953125 29.07679688 21 30 C21.66 30 22.32 30 23 30 C24.98362069 32.91708924 24.9876191 34.12380904 24.625 37.75 C24.315625 39.35875 24.315625 39.35875 24 41 C25.32 41.66 26.64 42.32 28 43 C27.39816251 45.02045442 26.72693904 47.02111039 26 49 C25.01 49.495 25.01 49.495 24 50 C23.34387507 52.17945365 23.34387507 52.17945365 22.9375 54.75 C22.70353516 56.04164063 22.70353516 56.04164063 22.46484375 57.359375 C22.23474609 58.66648437 22.23474609 58.66648437 22 60 C21.22471025 64.07950081 20.17212962 68.01475929 19 72 C15.535 72.495 15.535 72.495 12 73 C11.938125 73.556875 11.87625 74.11375 11.8125 74.6875 C10.29128805 79.01710324 6.71531598 81.52312268 3 84 C-0.1875 84.125 -0.1875 84.125 -3 84 C-3.33 84.66 -3.66 85.32 -4 86 C-2.515 86.495 -2.515 86.495 -1 87 C-1.66 87.66 -2.32 88.32 -3 89 C-2.33613281 88.98839844 -1.67226563 88.97679687 -0.98828125 88.96484375 C8.49073157 88.86797793 8.49073157 88.86797793 12 90 C12.33 90.66 12.66 91.32 13 92 C13.763125 92.45375 14.52625 92.9075 15.3125 93.375 C18 95 18 95 19.9375 97.0625 C22.44144386 99.41468968 24.71852832 100.10505318 28 101 C28 101.66 28 102.32 28 103 C29.423125 102.7215625 29.423125 102.7215625 30.875 102.4375 C34 102 34 102 36 103 C36 103.66 36 104.32 36 105 C37.98 105 39.96 105 42 105 C42.12375 105.763125 42.2475 106.52625 42.375 107.3125 C42.88102792 110.20267136 42.88102792 110.20267136 45 113 C47.05925139 113.72382467 47.05925139 113.72382467 49 114 C49.185625 115.7015625 49.185625 115.7015625 49.375 117.4375 C49.58125 118.613125 49.7875 119.78875 50 121 C50.66 121.33 51.32 121.66 52 122 C57.25905409 134.90858731 56.90519454 149.42548892 55 163 C55.04997081 164.37551233 55.11272098 165.7506131 55.1875 167.125 C54.96119881 171.80189135 54.31502297 173.68497703 51 177 C45.16386506 178.42925562 38.79085946 178.14780861 32.8125 178.1328125 C31.96031387 178.13408646 31.10812775 178.13536041 30.2301178 178.13667297 C27.48670947 178.13846464 24.74339844 178.1321498 22 178.125 C21.06203583 178.12444611 20.12407166 178.12389221 19.15768433 178.12332153 C7.11478715 178.11496618 -4.8757014 177.90136624 -16.90405273 177.28564453 C-23.60437854 176.97094536 -30.14148484 177.18448555 -36.82714844 177.66162109 C-44.33218026 178.14328732 -51.75662664 177.78779268 -59.26049805 177.40625 C-66.571879 177.03608353 -73.82980972 176.94128049 -81.1484375 177.0625 C-84 177 -84 177 -86 176 C-86 175.34 -86 174.68 -86 174 C-86.66 174 -87.32 174 -88 174 C-90.13383353 169.70157405 -90.20409497 165.89676405 -90.01171875 161.20703125 C-89.98906448 160.46096115 -89.96641022 159.71489105 -89.94306946 158.94621277 C-89.89325016 157.37014393 -89.8383083 155.7942297 -89.77856445 154.21850586 C-89.68846352 151.83795708 -89.61327633 149.45732225 -89.54101562 147.07617188 C-89.29146734 139.34503827 -88.90397565 131.68765617 -88 124 C-87.34 124 -86.68 124 -86 124 C-85.814375 122.8553125 -85.814375 122.8553125 -85.625 121.6875 C-85 119 -85 119 -83 116 C-82.34 116 -81.68 116 -81 116 C-80.7525 115.278125 -80.505 114.55625 -80.25 113.8125 C-78.87122087 110.71024696 -77.29054328 108.49877449 -75 106 C-73.515 105.505 -73.515 105.505 -72 105 C-71.67 104.34 -71.34 103.68 -71 103 C-70.01 103 -69.02 103 -68 103 C-68 101.02 -68 99.04 -68 97 C-67.34 97 -66.68 97 -66 97 C-66 97.66 -66 98.32 -66 99 C-65.25234375 98.7834375 -64.5046875 98.566875 -63.734375 98.34375 C-62.74953125 98.0653125 -61.7646875 97.786875 -60.75 97.5 C-59.77546875 97.2215625 -58.8009375 96.943125 -57.796875 96.65625 C-55 96 -55 96 -51 96 C-51.185625 94.88625 -51.37125 93.7725 -51.5625 92.625 C-52 89 -52 89 -51 87 C-47.9375 86.375 -47.9375 86.375 -45 86 C-44.67 83.03 -44.34 80.06 -44 77 C-44.99 77 -45.98 77 -47 77 C-49.96668552 73.22421843 -51.68535639 69.60125265 -53 65 C-54.65 64.67 -56.3 64.34 -58 64 C-59.84057248 59.33260973 -60.18305167 55.62985045 -59.9765625 50.6328125 C-59.95153656 49.95322479 -59.92651062 49.27363708 -59.90072632 48.57345581 C-59.81918563 46.42341206 -59.7223486 44.27438008 -59.625 42.125 C-59.56669266 40.65889421 -59.50939093 39.19274806 -59.453125 37.7265625 C-59.3137081 34.15050099 -59.16057533 30.57518113 -59 27 C-58.34 27 -57.68 27 -57 27 C-57 26.34 -57 25.68 -57 25 C-56.34 25 -55.68 25 -55 25 C-55 22.36 -55 19.72 -55 17 C-53.9275 16.773125 -52.855 16.54625 -51.75 16.3125 C-47.93430519 15.35312738 -47.93430519 15.35312738 -46.125 12.625 C-43.08032033 8.86392511 -39.44464348 7.69598238 -35 6 C-34.278125 5.7215625 -33.55625 5.443125 -32.8125 5.15625 C-30.87997365 4.42423244 -28.94020734 3.71140936 -27 3 C-25.6078125 2.38125 -25.6078125 2.38125 -24.1875 1.75 C-22 1 -22 1 -19 2 C-18.34 1.67 -17.68 1.34 -17 1 C-11.34434825 0.0495689 -5.72120315 -0.10402188 0 0 Z M-48.4375 21.375 C-52.79518976 26.87878735 -55.41941574 34.0329889 -56 41 C-56.06316406 41.71414063 -56.12632812 42.42828125 -56.19140625 43.1640625 C-56.66146009 52.71676959 -53.81780009 61.80830089 -47.6875 69.1953125 C-40.18835069 77.21523606 -32.70900538 83.07252804 -21.43334961 83.54150391 C-8.95082749 83.65204833 -0.03110252 80.88165762 9.546875 72.5625 C18.32105409 63.39711547 20.52200819 52.73416689 20.3125 40.46484375 C19.49727393 31.42602471 14.69738002 22.63418656 8.2578125 16.28125 C-0.29972395 9.3215938 -9.69923678 6.17395112 -20.68359375 6.65625 C-32.008422 7.83008379 -40.63621918 13.08245464 -48.4375 21.375 Z M-45 93 C-46.71956118 94.26438322 -48.3719908 95.61973133 -50 97 C-54.5050508 99.98780571 -58.97844488 102.78448163 -64.125 104.5 C-71.99807732 107.24605318 -77.83537469 112.90106603 -82 120 C-87.29637486 131.07475794 -87.63126691 140.86290036 -87.3125 152.875 C-87.28734617 154.54553895 -87.26454569 156.21611505 -87.24414062 157.88671875 C-87.18979582 161.92542 -87.10393299 165.96228316 -87 170 C-86.34 170 -85.68 170 -85 170 C-84.67 170.99 -84.34 171.98 -84 173 C-81.48345825 174.25827087 -79.75126216 174.1343014 -76.9337616 174.14717102 C-75.32495872 174.15790398 -75.32495872 174.15790398 -73.68365479 174.16885376 C-72.50180603 174.17154266 -71.31995728 174.17423157 -70.10229492 174.17700195 C-68.24121849 174.18685875 -68.24121849 174.18685875 -66.34254456 174.19691467 C-62.93333257 174.21327085 -59.52418269 174.22487716 -56.11494613 174.2331202 C-53.98517536 174.23826987 -51.85540895 174.24434562 -49.72564125 174.25063133 C-43.06265438 174.26968432 -36.3996786 174.28391513 -29.73666972 174.2922433 C-22.04429105 174.3020167 -14.35220007 174.32833809 -6.65992278 174.36874419 C-0.71505271 174.39890029 5.22973486 174.41371168 11.17467993 174.41702431 C14.7257171 174.41937543 18.27644697 174.4283432 21.82740211 174.45348549 C25.78973229 174.481087 29.7516837 174.47693657 33.71411133 174.4699707 C34.88988739 174.48278076 36.06566345 174.49559082 37.27706909 174.50878906 C43.52348331 174.49325778 43.52348331 174.49325778 49.22842407 172.20611572 C51.86502147 168.92280233 51.69777321 165.71462568 51.62890625 161.68359375 C51.63252419 160.46604149 51.63252419 160.46604149 51.63621521 159.22389221 C51.63523656 157.50492475 51.62183845 155.78592585 51.59692383 154.06713867 C51.56292629 151.4700643 51.57618304 148.87645638 51.59570312 146.27929688 C51.58552188 137.18022255 51.13247345 129.32511137 47 121 C46.34 121 45.68 121 45 121 C44.814375 120.154375 44.62875 119.30875 44.4375 118.4375 C40.3246463 108.60241507 30.9520117 105.18695575 21.87939453 100.90478516 C12.28657315 96.28657315 12.28657315 96.28657315 10 94 C5.86271351 94.36940058 1.98100907 94.98382415 -2.03515625 96.0234375 C-7.66647918 97.28906603 -13.18631762 97.33059686 -18.9375 97.3125 C-19.95779297 97.32861328 -20.97808594 97.34472656 -22.02929688 97.36132812 C-28.8879349 97.36570505 -34.5435235 96.22680018 -41 94 C-43.0746327 93.27105556 -43.0746327 93.27105556 -45 93 Z " fill="#041740" transform="translate(340,223)"/>
<path d="M0 0 C0.98484375 0.02707031 1.9696875 0.05414063 2.984375 0.08203125 C3.73203125 0.11683594 4.4796875 0.15164063 5.25 0.1875 C5.25 0.8475 5.25 1.5075 5.25 2.1875 C6.013125 2.331875 6.77625 2.47625 7.5625 2.625 C10.25 3.1875 10.25 3.1875 13.25 4.1875 C14.87567079 4.33465199 16.50586857 4.43471867 18.13671875 4.50390625 C19.07451172 4.54580078 20.01230469 4.58769531 20.97851562 4.63085938 C21.95498047 4.67017578 22.93144531 4.70949219 23.9375 4.75 C24.92556641 4.79318359 25.91363281 4.83636719 26.93164062 4.88085938 C29.37095546 4.98691654 31.81037113 5.08897714 34.25 5.1875 C34.25 5.5175 34.25 5.8475 34.25 6.1875 C30.45848417 6.27579061 26.66723835 6.32831946 22.875 6.375 C21.28365234 6.41270508 21.28365234 6.41270508 19.66015625 6.45117188 C12.60994836 6.51605109 6.87929954 5.50874067 0.25 3.1875 C-1.82300967 2.45759113 -1.82300967 2.45759113 -3.75 2.1875 C-5.46956118 3.45188322 -7.1219908 4.80723133 -8.75 6.1875 C-13.27561005 9.18894086 -17.78321798 11.98510966 -22.9375 13.75 C-30.548825 16.41472948 -35.68039306 21.30103106 -39.75 28.1875 C-44.94186964 39.15983325 -45.5231426 49.15271141 -45.5625 61.0625 C-45.58570735 62.73310467 -45.61108531 64.40368065 -45.63867188 66.07421875 C-45.70072723 70.11208682 -45.73368815 74.14919879 -45.75 78.1875 C-45.09 78.1875 -44.43 78.1875 -43.75 78.1875 C-43.10649849 78.91821433 -43.10649849 78.91821433 -42.44999695 79.66369057 C-40.11577382 81.75599504 -38.65565372 81.56470309 -35.55004883 81.56845093 C-34.4732486 81.5769104 -33.39644836 81.58536987 -32.28701782 81.59408569 C-31.10562225 81.588013 -29.92422668 81.58194031 -28.70703125 81.57568359 C-27.46295502 81.58094055 -26.21887878 81.58619751 -24.93710327 81.59161377 C-21.52377363 81.60256715 -18.11098838 81.5999832 -14.69768906 81.59047651 C-11.1276348 81.58288724 -7.55760399 81.58992348 -3.98754883 81.59463501 C2.00801781 81.60009472 8.00347362 81.59289538 13.99902344 81.57861328 C20.93314717 81.56228627 27.8670063 81.56757463 34.80112362 81.5840925 C40.75194789 81.5977013 46.70269245 81.59963002 52.65352726 81.59177649 C56.20887147 81.5870966 59.76409125 81.58648367 63.31942749 81.59638596 C67.28206692 81.60665149 71.24440935 81.59242802 75.20703125 81.57568359 C76.38842682 81.58175629 77.56982239 81.58782898 78.78701782 81.59408569 C80.40221817 81.58139648 80.40221817 81.58139648 82.05004883 81.56845093 C82.98730301 81.56731985 83.92455719 81.56618877 84.89021301 81.56502342 C87.68829344 81.11738094 88.4210204 80.26435854 90.25 78.1875 C90.91 78.1875 91.57 78.1875 92.25 78.1875 C92.18077416 72.92174677 92.09264088 67.65676134 91.98754883 62.39160156 C91.95444965 60.60327729 91.92637174 58.81485232 91.90356445 57.02636719 C91.86974044 54.44422801 91.81741377 51.86299924 91.76171875 49.28125 C91.75213387 48.09638 91.75213387 48.09638 91.74235535 46.88757324 C91.59881147 41.37484566 90.32047569 37.29189574 88.25 32.1875 C88.25 31.1975 88.25 30.2075 88.25 29.1875 C87.59 29.1875 86.93 29.1875 86.25 29.1875 C85.87875 28.32125 85.5075 27.455 85.125 26.5625 C81.20491527 19.50634749 75.9835437 16.11610892 68.875 12.8125 C68.13894531 12.45800781 67.40289062 12.10351562 66.64453125 11.73828125 C64.85170587 10.87679373 63.05158251 10.03052079 61.25 9.1875 C63.109375 8.1328125 63.109375 8.1328125 65.25 7.1875 C67.5 8.0625 67.5 8.0625 69.25 9.1875 C69.25 9.8475 69.25 10.5075 69.25 11.1875 C70.19875 11.001875 71.1475 10.81625 72.125 10.625 C75.25 10.1875 75.25 10.1875 77.25 11.1875 C77.25 11.8475 77.25 12.5075 77.25 13.1875 C79.23 13.1875 81.21 13.1875 83.25 13.1875 C83.37375 13.950625 83.4975 14.71375 83.625 15.5 C84.13102792 18.39017136 84.13102792 18.39017136 86.25 21.1875 C88.30925139 21.91132467 88.30925139 21.91132467 90.25 22.1875 C90.37375 23.321875 90.4975 24.45625 90.625 25.625 C90.83125 26.800625 91.0375 27.97625 91.25 29.1875 C91.91 29.5175 92.57 29.8475 93.25 30.1875 C98.50905409 43.09608731 98.15519454 57.61298892 96.25 71.1875 C96.29997081 72.56301233 96.36272098 73.9381131 96.4375 75.3125 C96.21119881 79.98939135 95.56502297 81.87247703 92.25 85.1875 C86.41386506 86.61675562 80.04085946 86.33530861 74.0625 86.3203125 C73.21031387 86.32158646 72.35812775 86.32286041 71.4801178 86.32417297 C68.73670947 86.32596464 65.99339844 86.3196498 63.25 86.3125 C62.31203583 86.31194611 61.37407166 86.31139221 60.40768433 86.31082153 C48.36478715 86.30246618 36.3742986 86.08886624 24.34594727 85.47314453 C17.64562146 85.15844536 11.10851516 85.37198555 4.42285156 85.84912109 C-3.08218026 86.33078732 -10.50662664 85.97529268 -18.01049805 85.59375 C-25.321879 85.22358353 -32.57980972 85.12878049 -39.8984375 85.25 C-42.75 85.1875 -42.75 85.1875 -44.75 84.1875 C-44.75 83.5275 -44.75 82.8675 -44.75 82.1875 C-45.41 82.1875 -46.07 82.1875 -46.75 82.1875 C-48.88383353 77.88907405 -48.95409497 74.08426405 -48.76171875 69.39453125 C-48.73906448 68.64846115 -48.71641022 67.90239105 -48.69306946 67.13371277 C-48.64325016 65.55764393 -48.5883083 63.9817297 -48.52856445 62.40600586 C-48.43846352 60.02545708 -48.36327633 57.64482225 -48.29101562 55.26367188 C-48.04146734 47.53253827 -47.65397565 39.87515617 -46.75 32.1875 C-46.09 32.1875 -45.43 32.1875 -44.75 32.1875 C-44.62625 31.424375 -44.5025 30.66125 -44.375 29.875 C-43.75 27.1875 -43.75 27.1875 -41.75 24.1875 C-41.09 24.1875 -40.43 24.1875 -39.75 24.1875 C-39.37875 23.1046875 -39.37875 23.1046875 -39 22 C-37.62122087 18.89774696 -36.04054328 16.68627449 -33.75 14.1875 C-32.76 13.8575 -31.77 13.5275 -30.75 13.1875 C-30.42 12.5275 -30.09 11.8675 -29.75 11.1875 C-28.76 11.1875 -27.77 11.1875 -26.75 11.1875 C-26.75 9.2075 -26.75 7.2275 -26.75 5.1875 C-26.09 5.1875 -25.43 5.1875 -24.75 5.1875 C-24.75 5.8475 -24.75 6.5075 -24.75 7.1875 C-22.33007408 6.59455795 -19.91466442 5.98870861 -17.5 5.375 C-16.81808594 5.20935547 -16.13617188 5.04371094 -15.43359375 4.87304688 C-12.46243508 4.10862256 -10.08119982 3.44077045 -7.625 1.5625 C-5.0300791 -0.34044199 -3.17143161 -0.11326541 0 0 Z " fill="#001855" transform="translate(298.75,314.8125)"/>
<path d="M0 0 C1.76450168 -0.00543603 3.52899881 -0.01256691 5.29348755 -0.02124023 C10.035113 -0.03929665 14.77638587 -0.03248118 19.51801658 -0.01972389 C24.5073659 -0.00950838 29.49668754 -0.01901263 34.48603821 -0.02526855 C42.8571203 -0.03251826 51.22806059 -0.0230258 59.59912109 -0.00390625 C69.24799206 0.01787867 78.89652507 0.0107885 88.54538792 -0.01121187 C96.86604392 -0.02941698 105.18659875 -0.03189993 113.50726825 -0.0214572 C118.46115167 -0.01525302 123.41487667 -0.01430167 128.36874962 -0.02760315 C133.02542297 -0.0392366 137.68166406 -0.03100043 142.33829117 -0.00802612 C144.03731001 -0.00277971 145.73636583 -0.0041822 147.43536949 -0.01307678 C160.49705737 -0.07510514 171.81395382 1.69379809 183.2746582 8.45507812 C184.3987207 9.10347656 185.5227832 9.751875 186.6809082 10.41992188 C189.78925613 12.52747596 192.18833069 14.80788235 194.7746582 17.51757812 C195.82258425 18.36916588 196.8822537 19.20692595 197.9621582 20.01757812 C200.81838719 22.55644834 201.51632119 24.03295256 202.7746582 27.51757812 C203.7646582 27.84757812 204.7546582 28.17757812 205.7746582 28.51757812 C206.1046582 30.82757813 206.4346582 33.13757813 206.7746582 35.51757812 C206.1146582 35.51757812 205.4546582 35.51757812 204.7746582 35.51757812 C203.7980957 33.72721354 202.8215332 31.93684896 201.8449707 30.14648438 C200.86055796 28.35139497 200.86055796 28.35139497 198.7746582 27.51757812 C198.4446582 26.52757812 198.1146582 25.53757813 197.7746582 24.51757812 C194.05413133 20.19696627 189.64083841 17.27623441 184.8840332 14.16601562 C182.7746582 12.51757812 182.7746582 12.51757812 181.7746582 9.51757812 C181.07719577 9.39447045 180.37973333 9.27136278 179.66113567 9.14452457 C176.54448685 8.46758463 173.61991733 7.48387414 170.59101868 6.48643494 C161.92935178 4.00087679 153.6696049 3.96058217 144.71289062 4.01586914 C142.94219536 4.01207704 141.17150307 4.00656971 139.40081787 3.99949646 C134.63453713 3.98564581 129.86862155 3.99663558 125.10236144 4.01320767 C120.09511961 4.0271512 115.08789699 4.02058798 110.0806427 4.01707458 C101.68081842 4.01438102 93.28113775 4.0277786 84.88134766 4.05102539 C75.18590341 4.07767307 65.49069845 4.07936526 55.79523009 4.06763703 C46.43957486 4.05684262 37.08400572 4.06305659 27.72835732 4.07719231 C23.7584764 4.08293331 19.78865888 4.08288443 15.81877708 4.07812691 C11.14414171 4.07333949 6.4697671 4.08353164 1.79518127 4.10508156 C0.0848103 4.110624 -1.62558586 4.11113822 -3.33595848 4.10612869 C-15.58560566 4.01273691 -15.58560566 4.01273691 -27.2253418 7.51757812 C-27.5553418 8.17757812 -27.8853418 8.83757812 -28.2253418 9.51757812 C-28.8853418 9.51757812 -29.5453418 9.51757812 -30.2253418 9.51757812 C-30.2253418 8.85757813 -30.2253418 8.19757813 -30.2253418 7.51757812 C-33.49564785 8.52981571 -36.42975868 9.62371766 -39.4753418 11.20507812 C-40.3828418 11.63820312 -41.2903418 12.07132813 -42.2253418 12.51757812 C-42.8853418 12.18757812 -43.5453418 11.85757813 -44.2253418 11.51757812 C-40.93729199 8.60530544 -38.62648576 7.02056601 -34.2253418 6.51757812 C-34.2253418 5.85757813 -34.2253418 5.19757813 -34.2253418 4.51757812 C-22.64398472 1.04712306 -12.05287587 -0.06334763 0 0 Z " fill="#686C70" transform="translate(250.225341796875,172.482421875)"/>
<path d="M0 0 C1.15049835 -0.00419449 2.3009967 -0.00838898 3.48635864 -0.01271057 C5.37435432 -0.00428131 5.37435432 -0.00428131 7.30049133 0.00431824 C8.64294019 0.00324489 9.98538859 0.00130542 11.32783508 -0.00143433 C14.97536326 -0.00628343 18.62276911 0.00137871 22.27028251 0.01151872 C26.10203133 0.02032238 29.93377657 0.01854116 33.76553345 0.01815796 C40.21421847 0.01909512 46.66285651 0.02777738 53.11152649 0.04142761 C60.52644186 0.05706704 67.94130548 0.06242867 75.35623616 0.06169206 C83.28681193 0.06101103 91.2173682 0.06799269 99.14793801 0.07713866 C101.41163157 0.07925169 103.67532189 0.07997738 105.93901634 0.08037758 C136.24752082 0.09061773 136.24752082 0.09061773 150.35639954 1.24723816 C150.68639954 2.56723816 151.01639954 3.88723816 151.35639954 5.24723816 C97.89639954 5.24723816 44.43639954 5.24723816 -10.64360046 5.24723816 C-9.64360046 2.24723816 -9.64360046 2.24723816 -7.93382549 1.07519054 C-5.16172147 0.07303132 -2.94919433 -0.0016078 0 0 Z " fill="#010521" transform="translate(249.6436004638672,459.7527618408203)"/>
<path d="M0 0 C5.78461538 4.30769231 5.78461538 4.30769231 6.875 7.8125 C6.91625 8.534375 6.9575 9.25625 7 10 C7.66 10 8.32 10 9 10 C13.52196903 19.10977318 13.65110355 27.90823461 13.57641602 37.84545898 C13.56239275 40.45747616 13.59690746 43.06600979 13.63476562 45.67773438 C13.63571561 47.34635504 13.63386451 49.01498018 13.62890625 50.68359375 C13.64216446 51.45964462 13.65542267 52.2356955 13.66908264 53.03526306 C13.61048356 56.42494594 13.37792656 58.52984878 11.22743225 61.2051239 C6.21209534 63.99430975 1.37620036 63.53988317 -4.27001953 63.48583984 C-6.13657196 63.49153488 -6.13657196 63.49153488 -8.04083252 63.49734497 C-11.44595108 63.50347876 -14.85009579 63.49176169 -18.25509882 63.47143888 C-21.819789 63.45384527 -25.38446349 63.45739337 -28.94918823 63.4581604 C-34.93284898 63.4562889 -40.91630653 63.43894315 -46.89990234 63.41162109 C-53.81926044 63.38014311 -60.7383963 63.36962597 -67.65782082 63.3710922 C-74.31549992 63.37231246 -80.97310665 63.36210623 -87.63076401 63.34550858 C-90.46403442 63.33844532 -93.29727922 63.33478244 -96.13055801 63.33372116 C-100.08337525 63.33134089 -104.03600731 63.31192501 -107.98876953 63.29052734 C-109.16702301 63.29143372 -110.34527649 63.29234009 -111.55923462 63.29327393 C-112.63314453 63.28474396 -113.70705444 63.27621399 -114.81350708 63.26742554 C-115.74816362 63.26407385 -116.68282017 63.26072216 -117.64579964 63.25726891 C-120 63 -120 63 -123 61 C-123 60.34 -123 59.68 -123 59 C-123.66 59 -124.32 59 -125 59 C-125.12536964 54.12948576 -125.21515355 49.25994856 -125.2746582 44.38818359 C-125.29951117 42.73762617 -125.33340662 41.0871753 -125.37719727 39.43701172 C-125.67983667 27.7230866 -125.80582923 15.2589542 -117.32543945 6.11669922 C-116.17434692 5.06893311 -116.17434692 5.06893311 -115 4 C-115.66010476 6.84550012 -116.51724966 9.52325999 -117.5625 12.25 C-117.83191406 12.95640625 -118.10132813 13.6628125 -118.37890625 14.390625 C-118.58386719 14.92171875 -118.78882813 15.4528125 -119 16 C-119.66 16 -120.32 16 -121 16 C-120.979375 16.969375 -120.95875 17.93875 -120.9375 18.9375 C-121 22 -121 22 -122 23 C-122.21916236 27.3449398 -122.18578941 31.69549832 -122.18530273 36.04541016 C-122.18747717 38.22708998 -122.20559394 40.40825431 -122.22460938 42.58984375 C-122.22754571 43.98176911 -122.2295289 45.37369686 -122.23046875 46.765625 C-122.23457764 48.03180664 -122.23868652 49.29798828 -122.24291992 50.60253906 C-122.14682423 54.36815596 -122.14682423 54.36815596 -120 59 C-77.76 59 -35.52 59 8 59 C8.33 58.34 8.66 57.68 9 57 C9.66 57.33 10.32 57.66 11 58 C11 45.13 11 32.26 11 19 C10.34 19 9.68 19 9 19 C8.01 16.03 7.02 13.06 6 10 C5.34 10 4.68 10 4 10 C4 9.01 4 8.02 4 7 C2.68 6.34 1.36 5.68 0 5 C0 3.35 0 1.7 0 0 Z " fill="#1AA8F5" transform="translate(378,334)"/>
<path d="M0 0 C5.78461538 4.30769231 5.78461538 4.30769231 6.875 7.8125 C6.91625 8.534375 6.9575 9.25625 7 10 C7.66 10 8.32 10 9 10 C13.52196903 19.10977318 13.65110355 27.90823461 13.57641602 37.84545898 C13.56239275 40.45747616 13.59690746 43.06600979 13.63476562 45.67773438 C13.63571561 47.34635504 13.63386451 49.01498018 13.62890625 50.68359375 C13.64216446 51.45964462 13.65542267 52.2356955 13.66908264 53.03526306 C13.61050829 56.42351541 13.37644564 58.53048167 11.23040771 61.20710754 C6.19928097 63.99940808 1.34260323 63.52314822 -4.31762695 63.45410156 C-5.56681412 63.45468567 -6.81600128 63.45526978 -8.1030426 63.45587158 C-11.52037389 63.45356516 -14.93673408 63.43353057 -18.35389352 63.40557575 C-21.92797235 63.38054039 -25.50206466 63.37821843 -29.07621765 63.37347412 C-35.84062528 63.36105055 -42.60477376 63.32823755 -49.36906737 63.28807616 C-57.07153942 63.24333901 -64.77402395 63.22136656 -72.47659361 63.20129442 C-88.31787906 63.15950418 -104.15890609 63.08916444 -120 63 C-120 62.67 -120 62.34 -120 62 C-118.89564102 61.98969254 -117.79128204 61.97938507 -116.65345764 61.96876526 C-106.08279103 61.86964937 -95.51216563 61.76682663 -84.94156742 61.66066074 C-79.51127171 61.60623294 -74.08097054 61.55297124 -68.65063477 61.50268555 C-54.43320302 61.37032459 -40.21654054 61.20745073 -26 61 C-24.66099766 60.9814307 -24.66099766 60.9814307 -23.29494476 60.96248627 C-18.43502826 60.89403793 -13.5759214 60.81068737 -8.71679497 60.69907951 C-7.29257442 60.66823807 -5.86823808 60.64230232 -4.4438343 60.62158394 C-2.52536056 60.59243755 -0.60722914 60.54283238 1.31079102 60.49194336 C2.37056656 60.46933945 3.4303421 60.44673553 4.52223206 60.42344666 C5.33989548 60.28370926 6.1575589 60.14397186 7 60 C7.66 59.01 8.32 58.02 9 57 C9.66 57.33 10.32 57.66 11 58 C11 45.13 11 32.26 11 19 C10.34 19 9.68 19 9 19 C8.01 16.03 7.02 13.06 6 10 C5.34 10 4.68 10 4 10 C4 9.01 4 8.02 4 7 C2.68 6.34 1.36 5.68 0 5 C0 3.35 0 1.7 0 0 Z " fill="#1F86D1" transform="translate(378,334)"/>
<path d="M0 0 C1.75 0.0625 1.75 0.0625 4 1 C9.81435337 9.37950926 10.30822061 17.75664153 10.1875 27.6875 C10.18685547 28.70650391 10.18621094 29.72550781 10.18554688 30.77539062 C10.14295609 38.01109182 9.04733002 44.03907794 7 51 C3.535 51.495 3.535 51.495 0 52 C-0.061875 52.556875 -0.12375 53.11375 -0.1875 53.6875 C-1.70871195 58.01710324 -5.28468402 60.52312268 -9 63 C-11 63 -13 63 -15 63 C-17.01151741 63.63106429 -19.01363702 64.29373761 -21 65 C-21.99 65 -22.98 65 -24 65 C-24 64.34 -24 63.68 -24 63 C-27.96 63 -31.92 63 -36 63 C-36 62.67 -36 62.34 -36 62 C-35.11699219 61.97421875 -34.23398437 61.9484375 -33.32421875 61.921875 C-20.41088453 61.31157779 -10.15279143 58.60161482 -1 49 C6.25283286 38.68385885 8.16328205 28.47374731 7 16 C6.03237085 12.44408204 4.67377647 9.27556256 3 6 C2.69191406 5.35804688 2.38382812 4.71609375 2.06640625 4.0546875 C1.40327342 2.69034724 0.70651899 1.34238609 0 0 Z " fill="#031746" transform="translate(352,244)"/>
<path d="M0 0 C0 1.32 0 2.64 0 4 C-0.66 4 -1.32 4 -2 4 C-2 4.99 -2 5.98 -2 7 C-1.113125 7.12375 -0.22625 7.2475 0.6875 7.375 C3.70387502 7.94412736 6.20326054 8.76614436 9 10 C9 10.66 9 11.32 9 12 C9.99 12.33 10.98 12.66 12 13 C12 14.32 12 15.64 12 17 C14.64 17 17.28 17 20 17 C20 18.32 20 19.64 20 21 C20.14697979 22.58528205 20.31397926 24.1688237 20.5 25.75 C20.5928125 26.54921875 20.685625 27.3484375 20.78125 28.171875 C20.88953125 29.07679688 20.88953125 29.07679688 21 30 C21.66 30 22.32 30 23 30 C24.98362069 32.91708924 24.9876191 34.12380904 24.625 37.75 C24.41875 38.8225 24.2125 39.895 24 41 C25.32 41.66 26.64 42.32 28 43 C27.39816251 45.02045442 26.72693904 47.02111039 26 49 C25.01 49.495 25.01 49.495 24 50 C23.59270772 52.32156597 23.25561323 54.6568787 23 57 C22.67 57 22.34 57 22 57 C21.98541748 56.44127197 21.97083496 55.88254395 21.95581055 55.30688477 C21.88039202 52.72479948 21.78405119 50.14387816 21.6875 47.5625 C21.65366211 46.24475586 21.65366211 46.24475586 21.61914062 44.90039062 C21.28431845 36.65158981 19.27895528 29.13159214 15 22 C14.01 21.67 13.02 21.34 12 21 C9.92469613 18.07920195 9 16.62453269 9 13 C-4.12325174 7.62571596 -15.8254335 5.18046323 -30 5 C-27.29811996 3.19874664 -25.06942297 1.99756247 -22 1 C-21.01 1.33 -20.02 1.66 -19 2 C-18.34 1.67 -17.68 1.34 -17 1 C-11.34434825 0.0495689 -5.72120315 -0.10402188 0 0 Z " fill="#122344" transform="translate(340,223)"/>
<path d="M0 0 C1.98 0.66 3.96 1.32 6 2 C6 2.66 6 3.32 6 4 C6.94875 3.814375 7.8975 3.62875 8.875 3.4375 C12 3 12 3 14 4 C14 4.66 14 5.32 14 6 C15.98 6 17.96 6 20 6 C20.12375 6.763125 20.2475 7.52625 20.375 8.3125 C20.88102792 11.20267136 20.88102792 11.20267136 23 14 C25.05925139 14.72382467 25.05925139 14.72382467 27 15 C27.12375 16.134375 27.2475 17.26875 27.375 18.4375 C27.58125 19.613125 27.7875 20.78875 28 22 C28.66 22.33 29.32 22.66 30 23 C35.25905409 35.90858731 34.90519454 50.42548892 33 64 C32.92122638 66.67366928 32.95222132 69.32439385 33 72 C32.01 72.495 32.01 72.495 31 73 C30.67 58.81 30.34 44.62 30 30 C29.01 30 28.02 30 27 30 C25.74335022 27.09399739 25 25.20395416 25 22 C24.34 22 23.68 22 23 22 C22.443125 20.700625 22.443125 20.700625 21.875 19.375 C17.95491527 12.31884749 12.7335437 8.92860892 5.625 5.625 C4.88894531 5.27050781 4.15289062 4.91601562 3.39453125 4.55078125 C1.60170587 3.68929373 -0.19841749 2.84302079 -2 2 C-1.34 1.34 -0.68 0.68 0 0 Z " fill="#031039" transform="translate(362,322)"/>
<path d="M0 0 C1.7945483 0.01072305 3.58910509 0.0200961 5.38366699 0.02822876 C10.23019855 0.05398527 15.07639374 0.09851379 19.92274904 0.14652658 C24.99687855 0.19356582 30.07110975 0.22318366 35.14535522 0.25468445 C44.74286801 0.31689486 54.34018835 0.39467253 63.93753755 0.47810477 C74.86855603 0.57236836 85.79967561 0.64918395 96.73083806 0.7245661 C119.20662915 0.87995016 141.68220568 1.0571412 164.15771484 1.2487793 C164.15771484 1.5787793 164.15771484 1.9087793 164.15771484 2.2487793 C163.2589541 2.25116765 162.36019335 2.253556 161.43419743 2.25601673 C139.54984609 2.3151923 117.66560465 2.39075885 95.78137302 2.48449421 C85.19825296 2.52943033 74.61516639 2.56885008 64.03198242 2.59521484 C54.80602862 2.61821256 45.58018098 2.65163049 36.35431141 2.69748086 C31.47078092 2.72138908 26.58735542 2.74013361 21.70376778 2.7463932 C17.10316849 2.75245488 12.50283777 2.77249393 7.90233803 2.80305481 C6.21778989 2.81181767 4.53320663 2.81556126 2.84863663 2.81378746 C-9.2974197 2.76096661 -9.2974197 2.76096661 -20.84228516 6.2487793 C-21.17228516 6.9087793 -21.50228516 7.5687793 -21.84228516 8.2487793 C-22.50228516 8.2487793 -23.16228516 8.2487793 -23.84228516 8.2487793 C-23.84228516 7.5887793 -23.84228516 6.9287793 -23.84228516 6.2487793 C-27.11259121 7.26101689 -30.04670204 8.35491883 -33.09228516 9.9362793 C-33.99978516 10.3694043 -34.90728516 10.8025293 -35.84228516 11.2487793 C-36.50228516 10.9187793 -37.16228516 10.5887793 -37.84228516 10.2487793 C-34.55423535 7.33650661 -32.24342912 5.75176718 -27.84228516 5.2487793 C-27.84228516 4.5887793 -27.84228516 3.9287793 -27.84228516 3.2487793 C-18.76796294 -0.51710808 -9.62053965 -0.11786987 0 0 Z " fill="#4E5258" transform="translate(243.84228515625,173.751220703125)"/>
<path d="M0 0 C2.8888683 0.02392795 5.77682676 0.02048456 8.66577148 0.01391602 C17.69839247 0.02871455 26.48668383 0.062437 35.29663086 2.33618164 C35.29663086 2.66618164 35.29663086 2.99618164 35.29663086 3.33618164 C34.67546387 3.30588867 34.05429687 3.2755957 33.41430664 3.24438477 C11.71517469 2.21354714 -10.02918645 1.50271604 -31.70336914 3.33618164 C-31.70336914 3.99618164 -31.70336914 4.65618164 -31.70336914 5.33618164 C-32.93120117 5.39612305 -32.93120117 5.39612305 -34.18383789 5.45727539 C-58.92186582 7.56874037 -85.37291633 17.73432978 -106.35180664 31.01245117 C-108.70336914 32.33618164 -108.70336914 32.33618164 -111.70336914 32.33618164 C-111.70336914 31.67618164 -111.70336914 31.01618164 -111.70336914 30.33618164 C-109.43926593 29.20413004 -107.17439233 28.07390962 -104.90649414 26.94946289 C-102.67517551 25.82564021 -100.45722378 24.67504796 -98.25024414 23.50415039 C-83.40782466 15.6958491 -67.81425408 10.17232475 -51.57836914 6.02368164 C-50.68698242 5.79342285 -49.7955957 5.56316406 -48.87719727 5.32592773 C-32.66328271 1.3936207 -16.65583789 -0.14737147 0 0 Z " fill="#08080A" transform="translate(319.703369140625,100.663818359375)"/>
<path d="M0 0 C0.66 0 1.32 0 2 0 C3.07674127 7.7980348 3.32544381 15.47371292 3.4050293 23.33740234 C3.42677571 24.95317743 3.46107113 26.56882972 3.50756836 28.18408203 C3.57438252 30.53470399 3.6019691 32.88293967 3.62109375 35.234375 C3.64892441 35.9542157 3.67675507 36.6740564 3.70542908 37.41571045 C3.69702148 39.45996094 3.69702148 39.45996094 3 43 C-0.81060342 46.50663258 -3.762189 47.50020473 -8.87109375 47.42578125 C-10.05968994 47.41804688 -11.24828613 47.4103125 -12.47290039 47.40234375 C-14.4353772 47.35787109 -14.4353772 47.35787109 -16.4375 47.3125 C-17.83258179 47.29525194 -19.22768519 47.27968623 -20.62280273 47.265625 C-24.75175139 47.21720296 -28.8797739 47.13904104 -33.00817871 47.05718994 C-37.55028282 46.97036568 -42.09260943 46.89804344 -46.63493347 46.82377625 C-61.42393152 46.58092447 -76.21207753 46.30086887 -91 46 C-91 45.67 -91 45.34 -91 45 C-89.37507881 44.99120064 -89.37507881 44.99120064 -87.71733093 44.98222351 C-77.51983026 44.92506738 -67.3225443 44.85234325 -57.12526226 44.76428509 C-51.88243324 44.71951373 -46.63968314 44.68027261 -41.39672852 44.65356445 C-36.33914463 44.62759887 -31.28186338 44.58724462 -26.22446632 44.53681374 C-24.29276093 44.52009926 -22.36100313 44.5086136 -20.42923546 44.50238609 C-17.72813388 44.49279466 -15.02781463 44.46479563 -12.3269043 44.43237305 C-11.52417587 44.43380814 -10.72144745 44.43524323 -9.89439392 44.4367218 C-5.68368168 44.43781614 -5.68368168 44.43781614 -2.10456848 42.47297668 C-1.74006088 41.98689438 -1.37555328 41.50081207 -1 41 C-0.34 41 0.32 41 1 41 C0.67 27.47 0.34 13.94 0 0 Z " fill="#002364" transform="translate(390,352)"/>
<path d="M0 0 C0.8041333 -0.01087646 1.6082666 -0.02175293 2.43676758 -0.03295898 C3.33854736 -0.04609131 4.24032715 -0.05922363 5.16943359 -0.07275391 C6.13034912 -0.05833252 7.09126465 -0.04391113 8.08129883 -0.02905273 C9.06348389 -0.02172119 10.04566895 -0.01438965 11.05761719 -0.00683594 C21.6074649 0.27216972 32.03711643 2.4811169 40.89379883 8.53344727 C42.76879883 11.09594727 42.76879883 11.09594727 43.89379883 13.53344727 C43.56379883 14.19344727 43.23379883 14.85344727 42.89379883 15.53344727 C42.1280957 14.86249023 42.1280957 14.86249023 41.34692383 14.17797852 C32.13556048 6.5181746 23.31765384 2.6580859 11.21020508 3.18969727 C2.11013604 4.13293175 -3.62795761 7.18526405 -10.85620117 12.79125977 C-13.10620117 14.53344727 -13.10620117 14.53344727 -15.10620117 15.53344727 C-15.43620117 14.54344727 -15.76620117 13.55344727 -16.10620117 12.53344727 C-15.11620117 12.20344727 -14.12620117 11.87344727 -13.10620117 11.53344727 C-12.83807617 10.91469727 -12.56995117 10.29594727 -12.29370117 9.65844727 C-10.60096004 6.62933156 -8.17300969 6.03555756 -5.10620117 4.53344727 C-4.64173584 3.85419189 -4.17727051 3.17493652 -3.69873047 2.47509766 C-2.10620117 0.53344727 -2.10620117 0.53344727 0 0 Z " fill="#07346C" transform="translate(308.106201171875,227.466552734375)"/>
<path d="M0 0 C-2.64738916 1.4606285 -3.89448334 2 -7 2 C-7 2.66 -7 3.32 -7 4 C-8.5159375 4.309375 -8.5159375 4.309375 -10.0625 4.625 C-17.75199943 6.88844137 -22.01502258 12.73954065 -25.77734375 19.51171875 C-30.46955275 29.06103866 -29.97362872 40.73713064 -28 51 C-27.401875 51.020625 -26.80375 51.04125 -26.1875 51.0625 C-24 52 -24 52 -22.1875 55.375 C-21 59 -21 59 -22 62 C-28.82118473 54.26932397 -32.82382525 45.00981017 -32.3203125 34.5703125 C-30.76426044 22.08394353 -26.86518703 13.88187221 -17.27734375 5.76171875 C-12.0222182 1.69643295 -6.76890007 -2.17571788 0 0 Z " fill="#1D8CE1" transform="translate(316,232)"/>
<path d="M0 0 C0.66 0.33 1.32 0.66 2 1 C-1.75 4 -1.75 4 -4 4 C-3.67 5.32 -3.34 6.64 -3 8 C-5.31 8 -7.62 8 -10 8 C-10.22816406 8.54269531 -10.45632812 9.08539063 -10.69140625 9.64453125 C-12.40076735 12.72138123 -14.57122181 15.08494147 -16.9375 17.6875 C-17.81277344 18.66074219 -18.68804687 19.63398438 -19.58984375 20.63671875 C-22 23 -22 23 -25 24 C-23.71100992 20.47386849 -22.17631398 17.61478036 -20 14.5625 C-18.06005496 11.76656003 -16.98528111 9.94701201 -16.0625 6.625 C-15 4 -15 4 -11.75 2.125 C-8.21686422 1.06505927 -5.64565446 0.83043468 -2 1 C-1.34 0.67 -0.68 0.34 0 0 Z " fill="#2D313A" transform="translate(210,183)"/>
<path d="M0 0 C1.75 0.0625 1.75 0.0625 4 1 C9.79723874 9.35484407 10.34406299 17.83922266 10.3125 27.75 C10.32861328 28.77738281 10.34472656 29.80476563 10.36132812 30.86328125 C10.36197266 31.85199219 10.36261719 32.84070313 10.36328125 33.859375 C10.36775269 35.19693848 10.36775269 35.19693848 10.37231445 36.56152344 C9.92700071 39.47810947 8.87357627 40.76527017 7 43 C6.28837557 44.64797236 5.60968047 46.31165408 5 48 C4.01 48 3.02 48 2 48 C1.34 48.99 0.68 49.98 0 51 C-0.66 50.67 -1.32 50.34 -2 50 C-1.60167969 49.39414062 -1.20335937 48.78828125 -0.79296875 48.1640625 C5.79958928 37.73787583 8.31093068 28.42534293 7 16 C6.02575298 12.44686382 4.67346453 9.27495209 3 6 C2.53787109 5.03707031 2.53787109 5.03707031 2.06640625 4.0546875 C1.40327342 2.69034724 0.70651899 1.34238609 0 0 Z " fill="#022459" transform="translate(352,244)"/>
<path d="M0 0 C0.99 0.66 1.98 1.32 3 2 C2.34 3.65 1.68 5.3 1 7 C0.34 7 -0.32 7 -1 7 C-1.16818126 13.63842252 -1.32807995 20.27700721 -1.48217773 26.91577148 C-1.53559999 29.1749322 -1.59092952 31.43404863 -1.64819336 33.69311523 C-1.73009772 36.93724012 -1.80517779 40.18146155 -1.87890625 43.42578125 C-1.90594131 44.43836502 -1.93297638 45.45094879 -1.96083069 46.49421692 C-1.98092697 47.43496567 -2.00102325 48.37571442 -2.02172852 49.3449707 C-2.04171402 50.17325882 -2.06169952 51.00154694 -2.08229065 51.85493469 C-2.09293394 54.18724479 -2.09293394 54.18724479 -1 57 C-0.34 57 0.32 57 1 57 C1 57.66 1 58.32 1 59 C1.66 59.33 2.32 59.66 3 60 C0.69 60 -1.62 60 -4 60 C-4.495 58.515 -4.495 58.515 -5 57 C-4.505 56.505 -4.505 56.505 -4 56 C-4.10600256 54.57493869 -4.27324844 53.15437712 -4.46484375 51.73828125 C-5.1544165 45.50998933 -4.88160435 39.43387605 -4.5625 33.1875 C-4.45703718 30.99361294 -4.35417216 28.79959946 -4.25390625 26.60546875 C-4.17873779 24.98523804 -4.17873779 24.98523804 -4.10205078 23.33227539 C-3.96380711 18.81818949 -4.05250679 14.31518544 -4.17553711 9.80126953 C-3.91373257 5.62332059 -2.46930898 3.31813395 0 0 Z " fill="#031037" transform="translate(253,340)"/>
<path d="M0 0 C0 0.66 0 1.32 0 2 C0.763125 2.144375 1.52625 2.28875 2.3125 2.4375 C5 3 5 3 8 4 C9.62567079 4.14715199 11.25586857 4.24721867 12.88671875 4.31640625 C13.82451172 4.35830078 14.76230469 4.40019531 15.72851562 4.44335938 C16.70498047 4.48267578 17.68144531 4.52199219 18.6875 4.5625 C19.67556641 4.60568359 20.66363281 4.64886719 21.68164062 4.69335938 C24.12095546 4.79941654 26.56037113 4.90147714 29 5 C29 5.33 29 5.66 29 6 C25.20848417 6.08829061 21.41723835 6.14081946 17.625 6.1875 C16.03365234 6.22520508 16.03365234 6.22520508 14.41015625 6.26367188 C7.35994836 6.32855109 1.62929954 5.32124067 -5 3 C-7.07300967 2.27009113 -7.07300967 2.27009113 -9 2 C-10.71956118 3.26438322 -12.3719908 4.61973133 -14 6 C-18.56844781 9.0298514 -23.11748097 11.82445363 -28.3125 13.625 C-31.92426413 14.97175951 -34.10028287 16.52671186 -37 19 C-37.66 19 -38.32 19 -39 19 C-39 18.01 -39 17.02 -39 16 C-37.56705502 15.15885829 -36.12845595 14.32734313 -34.6875 13.5 C-33.88699219 13.0359375 -33.08648437 12.571875 -32.26171875 12.09375 C-30 11 -30 11 -27 11 C-27 10.34 -27 9.68 -27 9 C-26.34773438 8.76925781 -25.69546875 8.53851563 -25.0234375 8.30078125 C-19.02017403 6.12351759 -19.02017403 6.12351759 -14.0625 2.25 C-9.56392599 -1.05507479 -5.40332532 -0.4326506 0 0 Z " fill="#012B6A" transform="translate(304,315)"/>
<path d="M0 0 C1.98 0.66 3.96 1.32 6 2 C6 2.66 6 3.32 6 4 C6.94875 3.814375 7.8975 3.62875 8.875 3.4375 C12 3 12 3 14 4 C14 4.66 14 5.32 14 6 C15.98 6 17.96 6 20 6 C20.103125 6.680625 20.20625 7.36125 20.3125 8.0625 C20.88246991 10.49782599 21.55876943 12.42437164 22.5625 14.6875 C24 18 24 18 24 20 C24.66 20 25.32 20 26 20 C27.625 23.3125 27.625 23.3125 29 27 C28.34 27.99 27.68 28.98 27 30 C25.74335022 27.09399739 25 25.20395416 25 22 C24.34 22 23.68 22 23 22 C22.443125 20.700625 22.443125 20.700625 21.875 19.375 C17.95491527 12.31884749 12.7335437 8.92860892 5.625 5.625 C4.88894531 5.27050781 4.15289062 4.91601562 3.39453125 4.55078125 C1.60170587 3.68929373 -0.19841749 2.84302079 -2 2 C-1.34 1.34 -0.68 0.68 0 0 Z " fill="#04143C" transform="translate(362,322)"/>
<path d="M0 0 C-6.5 4 -6.5 4 -11 4 C-11 4.66 -11 5.32 -11 6 C-12.62249941 6.83819158 -14.24808497 7.6704116 -15.875 8.5 C-16.77992188 8.9640625 -17.68484375 9.428125 -18.6171875 9.90625 C-21 11 -21 11 -23 11 C-23.04125 11.845625 -23.0825 12.69125 -23.125 13.5625 C-24.6242868 19.45255528 -28.96086841 23.70518319 -34 27 C-33.45276317 23.62537285 -32.9451 21.91765 -31 19 C-30.34 19 -29.68 19 -29 19 C-28.7525 18.278125 -28.505 17.55625 -28.25 16.8125 C-26.87122087 13.71024696 -25.29054328 11.49877449 -23 9 C-22.01 8.67 -21.02 8.34 -20 8 C-19.67 7.34 -19.34 6.68 -19 6 C-18.01 6 -17.02 6 -16 6 C-16 4.02 -16 2.04 -16 0 C-15.34 0 -14.68 0 -14 0 C-14 0.66 -14 1.32 -14 2 C-12.86111328 1.65775391 -12.86111328 1.65775391 -11.69921875 1.30859375 C-10.70535156 1.02113281 -9.71148437 0.73367188 -8.6875 0.4375 C-7.70136719 0.14746094 -6.71523438 -0.14257812 -5.69921875 -0.44140625 C-3 -1 -3 -1 0 0 Z M-36 27 C-35.01 27.495 -35.01 27.495 -34 28 C-34.33 29.98 -34.66 31.96 -35 34 C-35.33 34 -35.66 34 -36 34 C-36 31.69 -36 29.38 -36 27 Z " fill="#011846" transform="translate(288,320)"/>
<path d="M0 0 C3.17280351 0.43762807 6.05667611 1.77361505 9 3 C9 3.33 9 3.66 9 4 C6.03 4 3.06 4 0 4 C-0.66 5.32 -1.32 6.64 -2 8 C-2.33 8.66 -2.66 9.32 -3 10 C-4.216875 9.938125 -5.43375 9.87625 -6.6875 9.8125 C-10.58249203 9.80559399 -12.87690125 10.53937675 -16 13 C-16.33 13.66 -16.66 14.32 -17 15 C-17.94875 15.309375 -18.8975 15.61875 -19.875 15.9375 C-22.94574508 16.72482017 -22.94574508 16.72482017 -24.5 18.5 C-26.66475544 20.66475544 -29.10574036 21.16388055 -32 22 C-29.80465507 16.22611593 -24.12203727 13.91057271 -19 11 C-16.67518826 9.98034573 -14.34205301 8.97940398 -12 8 C-5.60541565 4.53972835 -5.60541565 4.53972835 0 0 Z " fill="#169DF1" transform="translate(295,316)"/>
<path d="M0 0 C-0.54269531 0.31453125 -1.08539063 0.6290625 -1.64453125 0.953125 C-8.16002031 4.78455361 -8.16002031 4.78455361 -11.6875 11.25 C-11.8421875 12.11625 -11.8421875 12.11625 -12 13 C-12.99 13 -13.98 13 -15 13 C-15.66 14.65 -16.32 16.3 -17 18 C-17.66 18 -18.32 18 -19 18 C-21.17808026 25.26026753 -21.59722507 32.45326965 -22 40 C-22.33 40 -22.66 40 -23 40 C-23 32.74 -23 25.48 -23 18 C-22.34 18 -21.68 18 -21 18 C-21 17.34 -21 16.68 -21 16 C-20.34 16 -19.68 16 -19 16 C-19 13.36 -19 10.72 -19 8 C-17.9275 7.773125 -16.855 7.54625 -15.75 7.3125 C-11.51938515 5.8317848 -10.61420418 4.48560557 -8 1 C-4.61376211 -0.8170057 -3.70785988 -1.23595329 0 0 Z " fill="#102341" transform="translate(304,232)"/>
<path d="M0 0 C0 0.66 0 1.32 0 2 C-1.79243951 3.16938263 -3.63807584 4.257259 -5.5 5.3125 C-18.82061479 13.1817496 -35.33913626 25.00870439 -44 38 C-44.66 38 -45.32 38 -46 38 C-46 38.66 -46 39.32 -46 40 C-47.485 40.495 -47.485 40.495 -49 41 C-48.67 39.68 -48.34 38.36 -48 37 C-47.34 37 -46.68 37 -46 37 C-46 36.34 -46 35.68 -46 35 C-44.34997172 33.64613064 -42.6825613 32.31321858 -41 31 C-40.67 30.34 -40.34 29.68 -40 29 C-39.34 29 -38.68 29 -38 29 C-38 28.34 -38 27.68 -38 27 C-36.49609375 25.484375 -36.49609375 25.484375 -34.4375 23.75 C-33.70144531 23.12609375 -32.96539062 22.5021875 -32.20703125 21.859375 C-31.47871094 21.24578125 -30.75039062 20.6321875 -30 20 C-29.42636719 19.48953125 -28.85273438 18.9790625 -28.26171875 18.453125 C-24.16549573 14.81638284 -19.80449768 11.69825067 -15.2890625 8.6015625 C-12.87514606 6.95535686 -12.87514606 6.95535686 -10.25 4.75 C-7.23485248 2.40488526 -3.9227086 0 0 0 Z " fill="#0A0A0C" transform="translate(208,133)"/>
<path d="M0 0 C0.495 1.485 0.495 1.485 1 3 C-4.39717676 5.23654307 -9.20839797 5.27564504 -14.9453125 5.23046875 C-15.91040741 5.23001053 -16.87550232 5.22955231 -17.86984253 5.2290802 C-19.91568224 5.22606401 -21.96151978 5.21819669 -24.00732422 5.20581055 C-27.06616826 5.18784553 -30.12470304 5.18529927 -33.18359375 5.18554688 C-45.81597775 5.16213509 -58.39076577 4.75662371 -71 4 C-71 3.67 -71 3.34 -71 3 C-69.73212898 2.98786972 -69.73212898 2.98786972 -68.43864441 2.97549438 C-60.47801294 2.89759549 -52.51755168 2.81031915 -44.5571394 2.71247292 C-40.46447841 2.66249932 -36.37184337 2.61616948 -32.27905273 2.578125 C-28.33023742 2.54128546 -24.38163862 2.49492935 -20.43300819 2.44193649 C-18.92554835 2.42338541 -17.41804209 2.40828007 -15.91051292 2.39665604 C-13.80103701 2.37980549 -11.69205772 2.35077441 -9.58276367 2.31884766 C-7.78073738 2.29886215 -7.78073738 2.29886215 -5.94230652 2.2784729 C-2.81159613 2.21661073 -2.81159613 2.21661073 0 0 Z " fill="#001048" transform="translate(391,396)"/>
<path d="M0 0 C0.33 0.99 0.66 1.98 1 3 C-0.60875 2.938125 -0.60875 2.938125 -2.25 2.875 C-5.79036458 2.69856771 -5.79036458 2.69856771 -7.7265625 3.99609375 C-11.11570024 5.49267176 -14.49022119 5.24927173 -18.125 5.1875 C-19.21748047 5.1865332 -19.21748047 5.1865332 -20.33203125 5.18554688 C-25.71851504 5.14074248 -25.71851504 5.14074248 -28 4 C-28 3.01 -28 2.02 -28 1 C-23.89665829 0.63580335 -19.7922563 0.2853607 -15.6875 -0.0625 C-14.52025391 -0.16626953 -13.35300781 -0.27003906 -12.15039062 -0.37695312 C-11.03212891 -0.47041016 -9.91386719 -0.56386719 -8.76171875 -0.66015625 C-7.73006592 -0.74918213 -6.69841309 -0.83820801 -5.63549805 -0.92993164 C-3 -1 -3 -1 0 0 Z " fill="#031739" transform="translate(349,313)"/>
<path d="M0 0 C0.66 0.33 1.32 0.66 2 1 C1.65066406 1.79664063 1.30132812 2.59328125 0.94140625 3.4140625 C0.48636719 4.47367188 0.03132813 5.53328125 -0.4375 6.625 C-0.88996094 7.66914063 -1.34242188 8.71328125 -1.80859375 9.7890625 C-5.74638657 20.40173691 -4.05806129 30.40600195 -1 41 C-4 40 -4 40 -5.6640625 38.11328125 C-7.64653019 33.49331999 -7.43440452 29.16097874 -7.375 24.1875 C-7.38660156 23.22779297 -7.39820313 22.26808594 -7.41015625 21.27929688 C-7.38509538 15.16026837 -6.50054517 10.58984304 -4 5 C-3.34 5 -2.68 5 -2 5 C-1.34 3.35 -0.68 1.7 0 0 Z " fill="#022B66" transform="translate(289,245)"/>
<path d="M0 0 C5.12039872 0.45313263 7.73500297 1.94076309 11.625 5.25 C13.00558594 6.40242187 13.00558594 6.40242187 14.4140625 7.578125 C16.90631986 9.91226331 19.01532953 12.22332488 21 15 C21 15.66 21 16.32 21 17 C21.99 17.33 22.98 17.66 24 18 C24.33 20.31 24.66 22.62 25 25 C24.34 25 23.68 25 23 25 C22.0234375 23.20963542 21.046875 21.41927083 20.0703125 19.62890625 C19.08589976 17.83381685 19.08589976 17.83381685 17 17 C16.67 16.01 16.34 15.02 16 14 C12.27677896 9.67625944 7.84028346 6.70705302 3.109375 3.55078125 C1 2 1 2 0 0 Z " fill="#32363B" transform="translate(432,183)"/>
<path d="M0 0 C0.66 0 1.32 0 2 0 C3.07674127 7.7980348 3.32544381 15.47371292 3.4050293 23.33740234 C3.42677571 24.95317743 3.46107113 26.56882972 3.50756836 28.18408203 C3.57438252 30.53470399 3.6019691 32.88293967 3.62109375 35.234375 C3.64892441 35.9542157 3.67675507 36.6740564 3.70542908 37.41571045 C3.69702148 39.45996094 3.69702148 39.45996094 3 43 C-0.03881836 45.48535156 -0.03881836 45.48535156 -3 47 C-1.125 43.125 -1.125 43.125 0 42 C0.08874135 38.89748799 0.11518455 35.8173188 0.09765625 32.71484375 C0.0962413 31.78402481 0.09482635 30.85320587 0.09336853 29.8941803 C0.08775172 26.90858809 0.0751964 23.92306971 0.0625 20.9375 C0.05748716 18.91862087 0.05292388 16.89974057 0.04882812 14.88085938 C0.03777683 9.92054428 0.02050095 4.96028468 0 0 Z " fill="#001657" transform="translate(390,352)"/>
<path d="M0 0 C0.33 0.99 0.66 1.98 1 3 C-0.29296875 5.453125 -0.29296875 5.453125 -2.1875 8.25 C-2.84105469 9.23613281 -3.49460938 10.22226563 -4.16796875 11.23828125 C-4.77253906 12.14964844 -5.37710938 13.06101563 -6 14 C-7.46332281 16.51343573 -7.46332281 16.51343573 -8.8984375 19.04296875 C-10.44712989 21.79436905 -12.03677066 24.52125206 -13.625 27.25 C-14.21539062 28.26578125 -14.80578125 29.2815625 -15.4140625 30.328125 C-16.55577119 32.25159481 -17.75925148 34.13887723 -19 36 C-19 32.34730198 -18.84861991 31.17090374 -17.390625 28.06640625 C-17.04773438 27.33486328 -16.70484375 26.60332031 -16.3515625 25.84960938 C-15.98804687 25.09486328 -15.62453125 24.34011719 -15.25 23.5625 C-14.90195313 22.81162109 -14.55390625 22.06074219 -14.1953125 21.28710938 C-12.19399424 17.07322259 -10.07101813 13.55388262 -7 10 C-5.65729179 8.00628175 -4.32346506 6.0065438 -3 4 C-2.01133494 2.65824027 -1.0161846 1.32103998 0 0 Z " fill="#0B0B0D" transform="translate(143,192)"/>
<path d="M0 0 C-0.33 0.99 -0.66 1.98 -1 3 C-28.90773761 8.49648291 -28.90773761 8.49648291 -41 3 C-41 2.67 -41 2.34 -41 2 C-39.75295288 2.01571045 -39.75295288 2.01571045 -38.48071289 2.03173828 C-35.35523529 2.0661057 -32.22985498 2.09103659 -29.10424805 2.10986328 C-27.10263623 2.12470245 -25.10111188 2.15013361 -23.09960938 2.17578125 C-15.21066627 2.21552404 -7.65743971 0 0 0 Z " fill="#1CA6EF" transform="translate(345,318)"/>
<path d="M0 0 C2.53632772 1.26816386 2.66440085 2.06283263 3.625 4.6875 C6.982183 15.44418838 5.69368317 26.85484239 0.5703125 36.765625 C-3.32638889 43.55092593 -3.32638889 43.55092593 -7 46 C-7 45.01 -7 44.02 -7 43 C-6.34 43 -5.68 43 -5 43 C-4.72285156 42.26910156 -4.44570313 41.53820312 -4.16015625 40.78515625 C-3 38 -3 38 -1.74609375 35.80859375 C3.26991242 26.71989003 2.89094881 17.12193281 3 7 C2.34 7 1.68 7 1 7 C0.67 4.69 0.34 2.38 0 0 Z " fill="#198EE1" transform="translate(355,250)"/>
<path d="M0 0 C0.33 0.99 0.66 1.98 1 3 C0.04504326 4.69287785 -0.9590934 6.35857037 -2 8 C-2.69579454 10.19130534 -2.69579454 10.19130534 -3 12 C-3.66 12 -4.32 12 -5 12 C-4.95875 12.9075 -4.9175 13.815 -4.875 14.75 C-5 18 -5 18 -5.98193359 19.72753906 C-7.42907735 22.95775826 -7.35673497 26.12943924 -7.4140625 29.609375 C-7.43342865 30.33618469 -7.4527948 31.06299438 -7.4727478 31.81182861 C-7.53234271 34.12443448 -7.57884758 36.43709067 -7.625 38.75 C-7.66319836 40.32163582 -7.70225117 41.89325113 -7.7421875 43.46484375 C-7.83802743 47.30972842 -7.92213195 51.15471107 -8 55 C-8.33 55 -8.66 55 -9 55 C-9.12536964 50.12948576 -9.21515355 45.25994856 -9.2746582 40.38818359 C-9.29951117 38.73762617 -9.33340662 37.0871753 -9.37719727 35.43701172 C-9.71587245 22.32828984 -9.01197579 10.42757642 0 0 Z " fill="#1372C6" transform="translate(262,338)"/>
<path d="M0 0 C4.51318815 2.25659407 8.24587182 4.71580062 11 9 C10.01 9.33 9.02 9.66 8 10 C6.23828125 8.96875 6.23828125 8.96875 4.3125 7.5 C1.28233665 5.48730434 -0.4878645 4.63632536 -4.125 5.125 C-6.043125 5.558125 -6.043125 5.558125 -8 6 C-9.7325 6.2784375 -9.7325 6.2784375 -11.5 6.5625 C-12.325 6.706875 -13.15 6.85125 -14 7 C-14 6.34 -14 5.68 -14 5 C-9.37802694 2.78145293 -6.23175837 1.61718841 -1 2 C-0.67 1.34 -0.34 0.68 0 0 Z " fill="#071446" transform="translate(350,313)"/>
<path d="M0 0 C0 3 0 3 -1.35546875 4.61328125 C-1.96003906 5.17402344 -2.56460937 5.73476563 -3.1875 6.3125 C-5.57696075 8.58587358 -7.76552706 10.85120485 -9.8125 13.4375 C-10.8953125 14.7059375 -10.8953125 14.7059375 -12 16 C-12.66 16 -13.32 16 -14 16 C-14 16.66 -14 17.32 -14 18 C-15.46875 19.48046875 -15.46875 19.48046875 -17.5 21.1875 C-18.221875 21.80109375 -18.94375 22.4146875 -19.6875 23.046875 C-20.8321875 24.01367188 -20.8321875 24.01367188 -22 25 C-23.50251281 26.30962265 -25.00265323 27.62197391 -26.5 28.9375 C-27.66666667 29.95833333 -28.83333333 30.97916667 -30 32 C-30.66 31.67 -31.32 31.34 -32 31 C-29.40323752 28.51297873 -26.79638805 26.03679365 -24.1875 23.5625 C-23.08051758 22.50192383 -23.08051758 22.50192383 -21.95117188 21.41992188 C-21.23896484 20.74638672 -20.52675781 20.07285156 -19.79296875 19.37890625 C-19.1383667 18.7557251 -18.48376465 18.13254395 -17.80932617 17.49047852 C-16 16 -16 16 -13 15 C-12.72414063 14.43796875 -12.44828125 13.8759375 -12.1640625 13.296875 C-10.51209086 10.03727995 -7.9714223 7.76075354 -5.375 5.25 C-4.859375 4.74339844 -4.34375 4.23679687 -3.8125 3.71484375 C-2.54616661 2.47196098 -1.2736856 1.23534724 0 0 Z " fill="#2B2B2D" transform="translate(488,464)"/>
<path d="M0 0 C0.86625 0.4640625 0.86625 0.4640625 1.75 0.9375 C3.84294184 1.92583364 5.74535275 2.5168613 8 3 C8 3.66 8 4.32 8 5 C8.99 5 9.98 5 11 5 C11 5.66 11 6.32 11 7 C11.94875 7.309375 12.8975 7.61875 13.875 7.9375 C17 9 17 9 19 10 C21.39417312 10.09843033 23.79130905 10.12973088 26.1875 10.125 C27.48042969 10.12757813 28.77335937 10.13015625 30.10546875 10.1328125 C33.84481562 10.00529215 37.31601375 9.60205223 41 9 C36.69462617 13.30537383 29.9097693 12.45837066 24.14794922 12.5300293 C16.19588761 12.36805172 10.34548646 9.9258506 4 5 C1.6484375 2.26171875 1.6484375 2.26171875 0 0 Z " fill="#1C8DE1" transform="translate(295,294)"/>
<path d="M0 0 C0.66 0 1.32 0 2 0 C1.52140759 1.60433809 1.04210442 3.20846416 0.5625 4.8125 C0.29566406 5.70582031 0.02882813 6.59914063 -0.24609375 7.51953125 C-0.80387873 9.35473055 -1.39344575 11.18033726 -2 13 C-2.15322359 15.58330229 -2.25706889 18.14492239 -2.31640625 20.73046875 C-2.33718735 21.48088943 -2.35796844 22.23131012 -2.37937927 23.00447083 C-2.44469926 25.39872184 -2.50367792 27.79308139 -2.5625 30.1875 C-2.60570193 31.81186013 -2.64931676 33.43620933 -2.69335938 35.06054688 C-2.80036263 39.04025371 -2.90167937 43.02006958 -3 47 C-3.33 47 -3.66 47 -4 47 C-4.04966586 41.85881945 -4.08584495 36.71778049 -4.10986328 31.57641602 C-4.11988268 29.82964645 -4.13350195 28.0828935 -4.15087891 26.33618164 C-4.17530669 23.81652715 -4.18652389 21.29709561 -4.1953125 18.77734375 C-4.20563507 18.00414291 -4.21595764 17.23094208 -4.22659302 16.43431091 C-4.22783592 10.34382206 -3.45339662 5.18009493 0 0 Z " fill="#001E69" transform="translate(256,344)"/>
<path d="M0 0 C1.670625 0.061875 1.670625 0.061875 3.375 0.125 C3.375 2.435 3.375 4.745 3.375 7.125 C4.48875 7.269375 5.6025 7.41375 6.75 7.5625 C10.375 8.125 10.375 8.125 12.375 9.125 C12.375 9.785 12.375 10.445 12.375 11.125 C13.365 11.455 14.355 11.785 15.375 12.125 C14.055 12.455 12.735 12.785 11.375 13.125 C11.045 12.465 10.715 11.805 10.375 11.125 C9.281875 11.0425 8.18875 10.96 7.0625 10.875 C3.375 10.125 3.375 10.125 1.25 7.1875 C0.63125 6.176875 0.0125 5.16625 -0.625 4.125 C-3.22937233 2.71309436 -3.22937233 2.71309436 -5.625 2.125 C-3.625 0.125 -3.625 0.125 0 0 Z " fill="#071234" transform="translate(356.625,312.875)"/>
<path d="M0 0 C1.75 0.0625 1.75 0.0625 4 1 C7.55431455 6.38224775 9.13720043 10.49912973 9.09765625 16.984375 C9.09443359 17.91894531 9.09121094 18.85351562 9.08789062 19.81640625 C9.07951172 20.78449219 9.07113281 21.75257813 9.0625 22.75 C9.05798828 23.73355469 9.05347656 24.71710938 9.04882812 25.73046875 C9.03706483 28.15370791 9.02062684 30.57682273 9 33 C8.01 33.495 8.01 33.495 7 34 C7.04640625 32.81664062 7.0928125 31.63328125 7.140625 30.4140625 C7.38635594 21.44630648 7.41245998 14.06578706 3 6 C2.41564124 4.79216224 1.83216461 3.58389685 1.25 2.375 C0.8375 1.59125 0.425 0.8075 0 0 Z " fill="#013474" transform="translate(352,244)"/>
<path d="M0 0 C1.76923828 0.01353516 1.76923828 0.01353516 3.57421875 0.02734375 C4.47785156 0.03894531 5.38148438 0.05054688 6.3125 0.0625 C3.3125 2.0625 3.3125 2.0625 0.1875 3.0625 C-2.81261062 3.7311673 -2.81261062 3.7311673 -3.6875 6.0625 C-4.3475 6.0625 -5.0075 6.0625 -5.6875 6.0625 C-5.6875 5.4025 -5.6875 4.7425 -5.6875 4.0625 C-8.95780606 5.07473759 -11.89191689 6.16863954 -14.9375 7.75 C-15.845 8.183125 -16.7525 8.61625 -17.6875 9.0625 C-18.3475 8.7325 -19.0075 8.4025 -19.6875 8.0625 C-16.39945019 5.15022731 -14.08864397 3.56548788 -9.6875 3.0625 C-9.6875 2.4025 -9.6875 1.7425 -9.6875 1.0625 C-6.26517028 -0.07827657 -3.60076783 -0.03565117 0 0 Z " fill="#3A3E45" transform="translate(225.6875,175.9375)"/>
<path d="M0 0 C2.98595651 3.59798486 4.85901141 7.56881553 6.875 11.75 C9.07387277 16.2600522 11.2718885 20.63049117 14.0625 24.8125 C15.0215625 26.3903125 15.0215625 26.3903125 16 28 C15.67 28.99 15.34 29.98 15 31 C10.51505541 25.14319 7.28188503 18.75789335 4.125 12.125 C3.51700562 10.85789185 3.51700562 10.85789185 2.89672852 9.56518555 C2.33296509 8.36116089 2.33296509 8.36116089 1.7578125 7.1328125 C1.4189502 6.40980957 1.08008789 5.68680664 0.73095703 4.94189453 C0 3 0 3 0 0 Z " fill="#18181A" transform="translate(120,408)"/>
<path d="M0 0 C3.3125 0.5625 3.3125 0.5625 7 2 C8.90017846 4.7192209 10 7.64244391 10 11 C10.66 11 11.32 11 12 11 C13.625 14.3125 13.625 14.3125 15 18 C14.34 18.99 13.68 19.98 13 21 C11.74335022 18.09399739 11 16.20395416 11 13 C10.34 13 9.68 13 9 13 C8.443125 11.7315625 8.443125 11.7315625 7.875 10.4375 C5.7017243 6.45316122 3.04761595 3.33363816 0 0 Z " fill="#012158" transform="translate(376,331)"/>
<path d="M0 0 C-4.31414962 3.80660261 -8.153766 6 -14 6 C-14 5.34 -14 4.68 -14 4 C-17.96 4 -21.92 4 -26 4 C-26 3.67 -26 3.34 -26 3 C-25.09378906 2.96261719 -24.18757813 2.92523438 -23.25390625 2.88671875 C-16.68751392 2.53234202 -10.8709811 2.06668046 -4.76953125 -0.4765625 C-3 -1 -3 -1 0 0 Z " fill="#032E6F" transform="translate(342,303)"/>
<path d="M0 0 C1.125 1.625 1.125 1.625 2 4 C1.125 7.25 1.125 7.25 0 10 C-2.31 10.33 -4.62 10.66 -7 11 C-7.103125 11.639375 -7.20625 12.27875 -7.3125 12.9375 C-7.539375 13.618125 -7.76625 14.29875 -8 15 C-8.99 15.33 -9.98 15.66 -11 16 C-10.49111733 11.58968355 -7.96550928 9.10672401 -5 6 C-4.01 6 -3.02 6 -2 6 C-1.34 4.02 -0.68 2.04 0 0 Z " fill="#06183E" transform="translate(359,285)"/>
<path d="M0 0 C9.65597913 -0.64277968 17.5280063 0.01647429 26 5 C28.3359375 7.171875 28.3359375 7.171875 30 9 C28.53890937 8.74445946 27.08111904 8.46999628 25.625 8.1875 C24.40683594 7.96126953 24.40683594 7.96126953 23.1640625 7.73046875 C21 7 21 7 19 4 C12.88410437 1.60682345 6.50557566 1.40593083 0 1 C0 0.67 0 0.34 0 0 Z " fill="#2189DE" transform="translate(316,230)"/>
<path d="M0 0 C4.62675657 1.3922459 8.64686231 3.29520984 12.875 5.625 C14.02742188 6.25664062 15.17984375 6.88828125 16.3671875 7.5390625 C17.67042969 8.26222656 17.67042969 8.26222656 19 9 C19 9.99 19 10.98 19 12 C16.69 11.34 14.38 10.68 12 10 C12 9.01 12 8.02 12 7 C11.30132812 6.82984375 10.60265625 6.6596875 9.8828125 6.484375 C8.97273438 6.24203125 8.06265625 5.9996875 7.125 5.75 C5.76761719 5.40195312 5.76761719 5.40195312 4.3828125 5.046875 C2 4 2 4 0.6796875 1.890625 C0.45539063 1.26671875 0.23109375 0.6428125 0 0 Z " fill="#1A90DB" transform="translate(358,323)"/>
<path d="M0 0 C-3.75 3 -3.75 3 -6 3 C-5.67 4.32 -5.34 5.64 -5 7 C-12.625 8 -12.625 8 -16 8 C-6.22469824 -3.11234912 -6.22469824 -3.11234912 0 0 Z " fill="#3D4249" transform="translate(212,184)"/>
<path d="M0 0 C-6.5 4 -6.5 4 -11 4 C-11 4.66 -11 5.32 -11 6 C-13.64 6.33 -16.28 6.66 -19 7 C-18.01 6.67 -17.02 6.34 -16 6 C-16 4.02 -16 2.04 -16 0 C-15.34 0 -14.68 0 -14 0 C-14 0.66 -14 1.32 -14 2 C-13.24074219 1.77183594 -12.48148437 1.54367187 -11.69921875 1.30859375 C-10.70535156 1.02113281 -9.71148437 0.73367188 -8.6875 0.4375 C-7.70136719 0.14746094 -6.71523438 -0.14257812 -5.69921875 -0.44140625 C-3 -1 -3 -1 0 0 Z " fill="#061642" transform="translate(288,320)"/>
<path d="M0 0 C0.66 0 1.32 0 2 0 C2.5775 0.639375 3.155 1.27875 3.75 1.9375 C6.48382274 4.44350418 8.36785602 4.66980509 12 5 C12.625 7.375 12.625 7.375 13 10 C12.34 10.66 11.68 11.32 11 12 C8.95880212 10.38405168 6.95927063 8.7143618 5 7 C5 6.34 5 5.68 5 5 C3.02 4.34 1.04 3.68 -1 3 C-0.67 2.01 -0.34 1.02 0 0 Z " fill="#222428" transform="translate(435,180)"/>
<path d="M0 0 C3.7602985 0.58107632 6.53035032 1.65199496 9.8125 3.5625 C10.60269531 4.01753906 11.39289063 4.47257813 12.20703125 4.94140625 C12.79871094 5.29074219 13.39039063 5.64007813 14 6 C14 6.66 14 7.32 14 8 C14.928125 8.2475 15.85625 8.495 16.8125 8.75 C20.16458325 10.06454245 21.1877803 10.97963384 23 14 C22.01 14 21.02 14 20 14 C20 13.34 20 12.68 20 12 C17.525 11.505 17.525 11.505 15 11 C15 10.34 15 9.68 15 9 C14.28457031 8.73316406 13.56914062 8.46632812 12.83203125 8.19140625 C9.94497833 6.97685295 7.36818236 5.55385218 4.6875 3.9375 C3.80449219 3.41027344 2.92148437 2.88304687 2.01171875 2.33984375 C1.34785156 1.89769531 0.68398438 1.45554688 0 1 C0 0.67 0 0.34 0 0 Z " fill="#0A0A0C" transform="translate(424,127)"/>
<path d="M0 0 C3.7979622 3.68747603 7.24307393 7.55553951 10.625 11.625 C14.62891198 16.47990924 14.62891198 16.47990924 19 21 C18.67 21.66 18.34 22.32 18 23 C11.16834292 16.60440614 5.15795602 9.8161934 0 2 C0 1.34 0 0.68 0 0 Z " fill="#212123" transform="translate(144,451)"/>
<path d="M0 0 C-0.33 0.99 -0.66 1.98 -1 3 C-7.53686384 3.98831156 -13.89577115 4.11883529 -20.5 4.0625 C-21.51320313 4.05798828 -22.52640625 4.05347656 -23.5703125 4.04882812 C-26.04693827 4.03714593 -28.52343657 4.02076582 -31 4 C-31 3.67 -31 3.34 -31 3 C-29.73285156 2.95101563 -28.46570313 2.90203125 -27.16015625 2.8515625 C-25.46091904 2.77645809 -23.76170124 2.70091368 -22.0625 2.625 C-20.81629883 2.57859375 -20.81629883 2.57859375 -19.54492188 2.53125 C-14.4979792 2.29559509 -9.80831516 1.65827859 -4.90795898 0.41552734 C-3 0 -3 0 0 0 Z " fill="#1D88D6" transform="translate(345,318)"/>
<path d="M0 0 C0.515625 0.680625 1.03125 1.36125 1.5625 2.0625 C4.50071413 5.60342473 7.70787019 8.79109819 11 12 C8 13 8 13 5.95703125 12.03125 C3.75721817 10.46052736 1.8248796 8.99928534 0 7 C-0.5 3.125 -0.5 3.125 0 0 Z " fill="#032B70" transform="translate(288,286)"/>
<path d="M0 0 C1.5619389 4.45101542 0.0913411 7.20372315 -1.67578125 11.3828125 C-3.65615071 15.29681704 -6.19015232 18.6469151 -9 22 C-9.33 21.01 -9.66 20.02 -10 19 C-9.34 19 -8.68 19 -8 19 C-7.58427734 17.93652344 -7.58427734 17.93652344 -7.16015625 16.8515625 C-5.6007082 13.01857572 -3.85522302 9.27985996 -2.12109375 5.5234375 C-0.93154689 2.95494272 -0.93154689 2.95494272 0 0 Z " fill="#248ADE" transform="translate(358,274)"/>
<path d="M0 0 C6.38520354 0.15963009 9.66008365 3.78124883 14 8 C13.67 8.66 13.34 9.32 13 10 C11.20360704 8.90353942 9.41302846 7.79754852 7.625 6.6875 C6.62726563 6.07261719 5.62953125 5.45773438 4.6015625 4.82421875 C2 3 2 3 0 0 Z " fill="#3E4248" transform="translate(432,183)"/>
<path d="M0 0 C5.04575556 -0.18020556 9.24393629 0.13467395 14.1015625 1.48828125 C16.70440416 2.18987026 19.3364541 2.60046812 22 3 C22 3.66 22 4.32 22 5 C22.66 5.33 23.32 5.66 24 6 C23.01 6 22.02 6 21 6 C21 5.34 21 4.68 21 4 C19.98679687 3.93941406 18.97359375 3.87882812 17.9296875 3.81640625 C16.57811486 3.73193296 15.22655291 3.64728843 13.875 3.5625 C13.20984375 3.52318359 12.5446875 3.48386719 11.859375 3.44335938 C7.84981183 3.187848 3.95005804 2.73217587 0 2 C0 1.34 0 0.68 0 0 Z " fill="#1C1C1E" transform="translate(344,104)"/>
<path d="M0 0 C0.66 0 1.32 0 2 0 C0.51299286 4.82829428 -2.21283256 7.7487769 -5.625 11.3125 C-6.3984375 12.13717773 -6.3984375 12.13717773 -7.1875 12.97851562 C-8.45200618 14.32498054 -9.72514922 15.66332535 -11 17 C-11 13.07289862 -9.67475926 12.04272956 -7.1875 9.0625 C-4.17985485 5.44647589 -4.17985485 5.44647589 -1.36328125 1.68359375 C-0.91339844 1.12800781 -0.46351563 0.57242188 0 0 Z " fill="#09090B" transform="translate(156,175)"/>
<path d="M0 0 C0.66 0.33 1.32 0.66 2 1 C1.21625 1.2475 0.4325 1.495 -0.375 1.75 C-3.09873976 2.71679916 -3.09873976 2.71679916 -3.9375 4.875 C-5.50874039 8.01748078 -8.05927508 9.20999352 -11 11 C-11.66 10.67 -12.32 10.34 -13 10 C-9.23156953 5.87827917 -5.11095695 2.36931779 0 0 Z " fill="#1D8BDC" transform="translate(276,327)"/>
<path d="M0 0 C0.66 0.66 1.32 1.32 2 2 C1.0479279 3.00596297 0.08812654 4.00461563 -0.875 5 C-1.40867188 5.556875 -1.94234375 6.11375 -2.4921875 6.6875 C-4 8 -4 8 -6 8 C-6.33 8.99 -6.66 9.98 -7 11 C-7.83051911 8.67454648 -8.09394201 7.34445404 -7.4375 4.9375 C-5.43427975 2.23750749 -3.03882186 1.3212269 0 0 Z " fill="#1E2126" transform="translate(201,184)"/>
<path d="M0 0 C3.86933162 0.57323431 6.15222057 2.38953552 9 5 C9 5.66 9 6.32 9 7 C6.36 6.67 3.72 6.34 1 6 C0 1.125 0 1.125 0 0 Z " fill="#070709" transform="translate(185,497)"/>
<path d="M0 0 C0.66 0.33 1.32 0.66 2 1 C0.13238675 2.46870557 -1.74317188 3.92470221 -3.625 5.375 C-4.40810547 5.99375 -4.40810547 5.99375 -5.20703125 6.625 C-8.66504478 9.27187456 -11.80482361 10.85357042 -16 12 C-12.8980055 8.65707389 -9.56424638 6.23755199 -5.75 3.75 C-4.67234375 3.04359375 -3.5946875 2.3371875 -2.484375 1.609375 C-1.66453125 1.07828125 -0.8446875 0.5471875 0 0 Z " fill="#2A2A2C" transform="translate(447,501)"/>
<path d="M0 0 C3.17280351 0.43762807 6.05667611 1.77361505 9 3 C9 3.33 9 3.66 9 4 C8.030625 3.95875 7.06125 3.9175 6.0625 3.875 C1.55110276 3.85651067 -2.64837652 4.89482578 -7 6 C-6.21625 5.38125 -5.4325 4.7625 -4.625 4.125 C-2.03162353 2.10141339 -2.03162353 2.10141339 0 0 Z " fill="#1D8FDD" transform="translate(295,316)"/>
<path d="M0 0 C0.33 0.99 0.66 1.98 1 3 C-0.03125 2.95875 -1.0625 2.9175 -2.125 2.875 C-5.86829627 2.99575149 -8.53734547 3.64872018 -12 5 C-11.67 3.68 -11.34 2.36 -11 1 C-3.375 -1.125 -3.375 -1.125 0 0 Z " fill="#051445" transform="translate(349,313)"/>
<path d="M0 0 C5.28 0.33 10.56 0.66 16 1 C16 1.66 16 2.32 16 3 C13.70839681 3.02692484 11.41670454 3.04636124 9.125 3.0625 C7.84882813 3.07410156 6.57265625 3.08570313 5.2578125 3.09765625 C2 3 2 3 0 2 C0 1.34 0 0.68 0 0 Z " fill="#011C5A" transform="translate(312,306)"/>
<path d="M0 0 C-3.3 2.64 -6.6 5.28 -10 8 C-10.66 7.01 -11.32 6.02 -12 5 C-11.01 4.67 -10.02 4.34 -9 4 C-8.5359375 3.01 -8.5359375 3.01 -8.0625 2 C-7 0 -7 0 -5.0625 -0.8125 C-3 -1 -3 -1 0 0 Z " fill="#043771" transform="translate(304,235)"/>
<path d="M0 0 C-0.6875 1.9375 -0.6875 1.9375 -2 4 C-5.32999173 5.07999732 -8.51955981 5.09944115 -12 5 C-3.89473684 -1.94736842 -3.89473684 -1.94736842 0 0 Z " fill="#070709" transform="translate(420,521)"/>
<path d="M0 0 C0 3 0 3 -1.35546875 4.61328125 C-2.26232422 5.45439453 -2.26232422 5.45439453 -3.1875 6.3125 C-6.39511259 9.37668275 -9.21992289 12.5459648 -12 16 C-12.33 15.01 -12.66 14.02 -13 13 C-8.71 8.71 -4.42 4.42 0 0 Z " fill="#222224" transform="translate(488,464)"/>
<path d="M0 0 C0.33 0.99 0.66 1.98 1 3 C-4.12919186 5.10428384 -8.5610835 5.21755666 -14 5 C-14.33 4.34 -14.66 3.68 -15 3 C-13.75283203 2.92652344 -13.75283203 2.92652344 -12.48046875 2.8515625 C-11.39378906 2.77679688 -10.30710937 2.70203125 -9.1875 2.625 C-8.10855469 2.55539062 -7.02960938 2.48578125 -5.91796875 2.4140625 C-2.81373814 2.18804267 -2.81373814 2.18804267 0 0 Z " fill="#020C37" transform="translate(391,396)"/>
<path d="M0 0 C0.721875 0.165 1.44375 0.33 2.1875 0.5 C1.1875 2.5 1.1875 2.5 -0.7109375 3.3671875 C-3.28408918 4.75420235 -4.03093929 6.09319073 -5.4375 8.625 C-6.6640625 10.8203125 -6.6640625 10.8203125 -7.8125 12.5 C-8.4725 12.5 -9.1325 12.5 -9.8125 12.5 C-10.1425 13.16 -10.4725 13.82 -10.8125 14.5 C-10.8125 12.85 -10.8125 11.2 -10.8125 9.5 C-9.8225 9.17 -8.8325 8.84 -7.8125 8.5 C-6.54426371 6.62947306 -6.54426371 6.62947306 -5.4375 4.4375 C-3.16510414 0.56268518 -3.16510414 0.56268518 0 0 Z " fill="#061230" transform="translate(266.8125,326.5)"/>
<path d="M0 0 C6.435 2.97 6.435 2.97 13 6 C11.02 6.99 11.02 6.99 9 8 C8.34 7.34 7.68 6.68 7 6 C5.989375 5.71125 4.97875 5.4225 3.9375 5.125 C2.968125 4.75375 1.99875 4.3825 1 4 C0.67 2.68 0.34 1.36 0 0 Z " fill="#002B6B" transform="translate(299,299)"/>
<path d="M0 0 C0 3.81133869 -1.2094518 5.01854683 -3.4375 8.0625 C-5.91762465 11.41060375 -5.91762465 11.41060375 -8 15 C-8.66 15 -9.32 15 -10 15 C-8.55693119 8.58636086 -4.52173041 4.52173041 0 0 Z " fill="#1E83D5" transform="translate(297,239)"/>
<path d="M0 0 C0.66 0.33 1.32 0.66 2 1 C1.65066406 1.79664063 1.30132812 2.59328125 0.94140625 3.4140625 C0.48636719 4.47367188 0.03132813 5.53328125 -0.4375 6.625 C-0.88996094 7.66914063 -1.34242188 8.71328125 -1.80859375 9.7890625 C-2.95801705 12.88685251 -3.57311223 15.73210054 -4 19 C-4.33 19 -4.66 19 -5 19 C-5.13833992 10.69960474 -5.13833992 10.69960474 -4 7 C-4 6.34 -4 5.68 -4 5 C-3.34 5 -2.68 5 -2 5 C-1.34 3.35 -0.68 1.7 0 0 Z " fill="#023875" transform="translate(289,245)"/>
<path d="M0 0 C3 1 3 1 4.75 4.375 C6 8 6 8 5 11 C0.07692308 5.70769231 0.07692308 5.70769231 -0.3125 2.125 C-0.209375 1.42375 -0.10625 0.7225 0 0 Z " fill="#148FE8" transform="translate(289,283)"/>
<path d="M0 0 C2.31 0.33 4.62 0.66 7 1 C6.67 1.99 6.34 2.98 6 4 C-0.625 4.25 -0.625 4.25 -4 2 C-2.68 2 -1.36 2 0 2 C0 1.34 0 0.68 0 0 Z " fill="#272729" transform="translate(337,97)"/>
<path d="M0 0 C2.31 0 4.62 0 7 0 C3.87378374 3.39417765 1.43458973 5.6062718 -3 7 C-2.01 4.69 -1.02 2.38 0 0 Z " fill="#050507" transform="translate(445,497)"/>
<path d="M0 0 C-2.51580319 2.51580319 -4.45487928 2.4301519 -7.890625 2.78125 C-10.61606404 3.06388812 -13.30182191 3.52781883 -16 4 C-16 3.34 -16 2.68 -16 2 C-10.23826317 -1.06475363 -6.37259801 -1.19937786 0 0 Z " fill="#022A6C" transform="translate(352,316)"/>
<path d="M0 0 C3.96 0 7.92 0 12 0 C11.01 0.495 11.01 0.495 10 1 C10 1.99 10 2.98 10 4 C8.72125 3.71125 7.4425 3.4225 6.125 3.125 C5.40570313 2.96257812 4.68640625 2.80015625 3.9453125 2.6328125 C2 2 2 2 0 0 Z " fill="#202538" transform="translate(328,226)"/>
<path d="M0 0 C1.32 0 2.64 0 4 0 C4 1.32 4 2.64 4 4 C4.30404678 5.67225729 4.63128912 7.34080104 5 9 C4.01 9 3.02 9 2 9 C0.50178941 5.62902617 0 3.79557881 0 0 Z " fill="#122138" transform="translate(356,240)"/>
<path d="M0 0 C0.6875 1.6875 0.6875 1.6875 1 4 C-0.67292823 7.69805188 -2.18712958 9.55373881 -6 11 C-4.54955729 6.89041233 -2.48889248 3.56741255 0 0 Z " fill="#23282E" transform="translate(191,196)"/>
<path d="M0 0 C4.25742137 0.47304682 6.25705098 2.8863822 9 6 C9.33 6.99 9.66 7.98 10 9 C7.525 8.01 7.525 8.01 5 7 C5 6.34 5 5.68 5 5 C4.360625 4.731875 3.72125 4.46375 3.0625 4.1875 C1 3 1 3 0 0 Z " fill="#0C0C0E" transform="translate(460,151)"/>
<path d="M0 0 C2.95294288 0.64367519 5.48281988 1.59277161 8.1875 2.9375 C8.88230469 3.27652344 9.57710938 3.61554688 10.29296875 3.96484375 C12 5 12 5 13 7 C7.83572624 5.7605743 4.24563172 4.21011179 0 1 C0 0.67 0 0.34 0 0 Z " fill="#0B0B0D" transform="translate(411,120)"/>
<path d="M0 0 C-8.261959 4.59225513 -8.261959 4.59225513 -13 4 C-12.01 3.67 -11.02 3.34 -10 3 C-9.67 2.01 -9.34 1.02 -9 0 C-2.25 -1.125 -2.25 -1.125 0 0 Z " fill="#060608" transform="translate(411,522)"/>
<path d="M0 0 C2.00720923 0.28674418 4.0085944 0.61866701 6 1 C4.35 2.98 2.7 4.96 1 7 C0.34 6.67 -0.32 6.34 -1 6 C-1.042721 4.33388095 -1.04063832 2.66617115 -1 1 C-0.67 0.67 -0.34 0.34 0 0 Z " fill="#060608" transform="translate(481,464)"/>
<path d="M0 0 C0.66 0.33 1.32 0.66 2 1 C1.60196439 3.88575819 1.20990931 4.82189513 -1.0625 6.75 C-1.701875 7.1625 -2.34125 7.575 -3 8 C-2.45276317 4.62537285 -1.9451 2.91765 0 0 Z M-5 8 C-4.01 8.495 -4.01 8.495 -3 9 C-3.33 10.98 -3.66 12.96 -4 15 C-4.33 15 -4.66 15 -5 15 C-5 12.69 -5 10.38 -5 8 Z " fill="#031648" transform="translate(257,339)"/>
<path d="M0 0 C-1.95330868 1.03041513 -3.91281528 2.0490893 -5.875 3.0625 C-6.96554688 3.63097656 -8.05609375 4.19945312 -9.1796875 4.78515625 C-10.11039063 5.18605469 -11.04109375 5.58695313 -12 6 C-12.66 5.67 -13.32 5.34 -14 5 C-9.43149396 1.08413768 -6.03922093 -1.77473934 0 0 Z " fill="#585D63" transform="translate(220,179)"/>
<path d="M0 0 C0.99 0.66 1.98 1.32 3 2 C3 2.66 3 3.32 3 4 C-0.3 3.34 -3.6 2.68 -7 2 C-7 1.34 -7 0.68 -7 0 C-3.8195064 -1.06016453 -3.04021693 -1.04507457 0 0 Z " fill="#060608" transform="translate(263,530)"/>
<path d="M0 0 C-5.625 4 -5.625 4 -9 4 C-9 2.68 -9 1.36 -9 0 C-3.375 -1.125 -3.375 -1.125 0 0 Z " fill="#1B93E8" transform="translate(345,299)"/>
<path d="M0 0 C6.24675325 6.07792208 6.24675325 6.07792208 8 9 C7.67 9.99 7.34 10.98 7 12 C5.82455195 10.56967163 4.65989738 9.13046758 3.5 7.6875 C2.8503125 6.88699219 2.200625 6.08648437 1.53125 5.26171875 C0 3 0 3 0 0 Z " fill="#18181A" transform="translate(136,439)"/>
<path d="M0 0 C0.66 0 1.32 0 2 0 C2 0.66 2 1.32 2 2 C3.65 2 5.3 2 7 2 C6.01 2.33 5.02 2.66 4 3 C4 3.66 4 4.32 4 5 C3.34 5 2.68 5 2 5 C2 5.66 2 6.32 2 7 C0.35 7 -1.3 7 -3 7 C-2.01 6.67 -1.02 6.34 0 6 C0 4.02 0 2.04 0 0 Z " fill="#061333" transform="translate(272,320)"/>
<path d="M0 0 C5.36716665 -0.83861979 8.79627239 2.07929595 13 5 C10 6 10 6 7.51953125 5.00390625 C6.62621094 4.52824219 5.73289062 4.05257813 4.8125 3.5625 C3.91144531 3.08941406 3.01039063 2.61632812 2.08203125 2.12890625 C1.39496094 1.75636719 0.70789063 1.38382812 0 1 C0 0.67 0 0.34 0 0 Z " fill="#1F96E4" transform="translate(345,317)"/>
<path d="M0 0 C1.9375 1.0625 1.9375 1.0625 4 3 C4.75 6.6875 4.75 6.6875 5 10 C4.67 9.01 4.34 8.02 4 7 C1.99983534 5.79117904 1.99983534 5.79117904 0 5 C0 3.35 0 1.7 0 0 Z " fill="#189AE7" transform="translate(378,334)"/>
<path d="M0 0 C2.875 0.3125 2.875 0.3125 6 1 C6.66 1.99 7.32 2.98 8 4 C6 5 6 5 2.875 4.0625 C1.92625 3.711875 0.9775 3.36125 0 3 C0 2.01 0 1.02 0 0 Z " fill="#1993EB" transform="translate(370,330)"/>
<path d="M0 0 C0.66 0.66 1.32 1.32 2 2 C-2.01804691 2.84098656 -5.01803543 3.05404945 -9 2 C-5.54754176 -0.30163882 -4.05261287 -0.34490322 0 0 Z " fill="#060608" transform="translate(393,532)"/>
<path d="M0 0 C2.875 -0.125 2.875 -0.125 6 0 C6.66 0.66 7.32 1.32 8 2 C5.36 2.66 2.72 3.32 0 4 C0 2.68 0 1.36 0 0 Z " fill="#040406" transform="translate(376,530)"/>
<path d="M0 0 C0.66 0 1.32 0 2 0 C2 0.66 2 1.32 2 2 C2.99 2.33 3.98 2.66 5 3 C4.01 3 3.02 3 2 3 C2 3.99 2 4.98 2 6 C2.66 6.33 3.32 6.66 4 7 C2.35 6.67 0.7 6.34 -1 6 C-1.042721 4.33388095 -1.04063832 2.66617115 -1 1 C-0.67 0.67 -0.34 0.34 0 0 Z " fill="#050507" transform="translate(242,520)"/>
<path d="M0 0 C1.8125 0.0625 1.8125 0.0625 4 1 C5.875 4.375 5.875 4.375 7 8 C6.01 9.485 6.01 9.485 5 11 C3.74335022 8.09399739 3 6.20395416 3 3 C2.34 3 1.68 3 1 3 C0.67 2.01 0.34 1.02 0 0 Z " fill="#012C66" transform="translate(384,341)"/>
<path d="M0 0 C0 3 0 3 -1 6 C-3.31 6.33 -5.62 6.66 -8 7 C-5.42215154 4.35247996 -3.08351902 2.05567935 0 0 Z " fill="#03316D" transform="translate(349,295)"/>
<path d="M0 0 C0.99 0.33 1.98 0.66 3 1 C3.66 0.67 4.32 0.34 5 0 C5 0.66 5 1.32 5 2 C5.66 2.33 6.32 2.66 7 3 C5.02 3.99 3.04 4.98 1 6 C0.67 4.02 0.34 2.04 0 0 Z " fill="#1E2126" transform="translate(203,179)"/>
<path d="M0 0 C2.3431213 0.25561323 4.67843403 0.59270772 7 1 C7.33 1.66 7.66 2.32 8 3 C5.36 3.33 2.72 3.66 0 4 C0 2.68 0 1.36 0 0 Z " fill="#08080A" transform="translate(249,531)"/>
<path d="M0 0 C2 1 2 1 2 1 Z M-2 1 C-1.34 1.33 -0.68 1.66 0 2 C-1.28965176 3.37562854 -2.62689293 4.70766393 -4 6 C-4.66 6 -5.32 6 -6 6 C-6 6.66 -6 7.32 -6 8 C-6.99 7.67 -7.98 7.34 -9 7 C-8.34 6.67 -7.68 6.34 -7 6 C-6.67 5.34 -6.34 4.68 -6 4 C-4.69084721 2.96854629 -3.35917857 1.96457834 -2 1 Z " fill="#040406" transform="translate(435,511)"/>
<path d="M0 0 C0.94875 0.350625 1.8975 0.70125 2.875 1.0625 C2.875 2.0525 2.875 3.0425 2.875 4.0625 C-2.875 2.3125 -2.875 2.3125 -5.125 0.0625 C-3.125 -0.9375 -3.125 -0.9375 0 0 Z " fill="#052160" transform="translate(365.125,322.9375)"/>
<path d="M0 0 C3.31832766 0.98652984 4.76548627 1.68731503 6.875 4.5 C7.24625 5.325 7.6175 6.15 8 7 C7.67 7.66 7.34 8.32 7 9 C3.26115668 6.34345343 1.35021826 4.41889613 0 0 Z " fill="#073069" transform="translate(344,234)"/>
<path d="M0 0 C1.65 0 3.3 0 5 0 C5 1.32 5 2.64 5 4 C3.35 4 1.7 4 0 4 C-0.33 3.34 -0.66 2.68 -1 2 C-0.67 1.34 -0.34 0.68 0 0 Z " fill="#050507" transform="translate(360,539)"/>
<path d="M0 0 C0 0.66 0 1.32 0 2 C0.66 2.33 1.32 2.66 2 3 C-0.31 3 -2.62 3 -5 3 C-5.33 2.01 -5.66 1.02 -6 0 C-3.50907189 -1.24546405 -2.58919267 -0.7767578 0 0 Z " fill="#070825" transform="translate(254,397)"/>
<path d="M0 0 C0.33 0.66 0.66 1.32 1 2 C3.02463255 2.65213292 3.02463255 2.65213292 5 3 C3.625 4.5 3.625 4.5 2 6 C1.34 6 0.68 6 0 6 C-0.33 6.66 -0.66 7.32 -1 8 C-1.125 2.25 -1.125 2.25 0 0 Z " fill="#05A0FA" transform="translate(260,344)"/>
<path d="M0 0 C6.52307692 0.61538462 6.52307692 0.61538462 8.9375 2.5625 C9.288125 3.036875 9.63875 3.51125 10 4 C7 5 7 5 5.17578125 4.22265625 C3.45052083 3.1484375 1.72526042 2.07421875 0 1 C0 0.67 0 0.34 0 0 Z " fill="#02296A" transform="translate(351,318)"/>
<path d="M0 0 C0.33 0 0.66 0 1 0 C1.39169887 2.66355234 1.40564529 4.39224373 -0.11328125 6.66796875 C-1.36389317 8.1510888 -2.67864514 9.57954352 -4 11 C-4.66 10.67 -5.32 10.34 -6 10 C-5.02526874 8.33073546 -4.04510211 6.66464358 -3.0625 5 C-2.24458984 3.6078125 -2.24458984 3.6078125 -1.41015625 2.1875 C-0.71212891 1.1046875 -0.71212891 1.1046875 0 0 Z " fill="#012E6F" transform="translate(356,284)"/>
<path d="M0 0 C3.39417765 3.12621626 5.6062718 5.56541027 7 10 C6.401875 9.38125 5.80375 8.7625 5.1875 8.125 C2.99188856 5.86323046 2.99188856 5.86323046 0 4 C0 2.68 0 1.36 0 0 Z " fill="#1A7FD2" transform="translate(348,240)"/>
<path d="M0 0 C1.953125 0.35807292 3.90625 0.71614583 5.859375 1.07421875 C5.859375 1.40421875 5.859375 1.73421875 5.859375 2.07421875 C-0.080625 2.56921875 -0.080625 2.56921875 -6.140625 3.07421875 C-2.140625 0.07421875 -2.140625 0.07421875 0 0 Z " fill="#5B5E65" transform="translate(228.140625,173.92578125)"/>
<path d="M0 0 C0.33 0.99 0.66 1.98 1 3 C-0.9375 6.1875 -0.9375 6.1875 -3 9 C-3.66 8.67 -4.32 8.34 -5 8 C-1.125 1.125 -1.125 1.125 0 0 Z " fill="#2889DA" transform="translate(262,338)"/>
<path d="M0 0 C0.598125 0.309375 1.19625 0.61875 1.8125 0.9375 C4.08956772 2.10209704 4.08956772 2.10209704 7 3 C7.6875 5.0625 7.6875 5.0625 8 7 C4.5625 5.75 4.5625 5.75 1 4 C0.0625 1.8125 0.0625 1.8125 0 0 Z " fill="#091A4E" transform="translate(292,296)"/>
<path d="M0 0 C1.48199902 0.44909061 2.96055236 0.90956564 4.4375 1.375 C5.26121094 1.63023437 6.08492188 1.88546875 6.93359375 2.1484375 C9 3 9 3 10 5 C8.51793505 4.745504 7.03931385 4.47088238 5.5625 4.1875 C4.73878906 4.03667969 3.91507812 3.88585937 3.06640625 3.73046875 C2.38449219 3.48941406 1.70257813 3.24835938 1 3 C0.67 2.01 0.34 1.02 0 0 Z " fill="#108AE8" transform="translate(336,234)"/>
<path d="M0 0 C0.66 0.33 1.32 0.66 2 1 C2.40729228 3.32156597 2.74438677 5.6568787 3 8 C2.34 8 1.68 8 1 8 C0.01 6.02 -0.98 4.04 -2 2 C-1.34 2 -0.68 2 0 2 C0 1.34 0 0.68 0 0 Z " fill="#2D2E34" transform="translate(454,200)"/>
<path d="M0 0 C1.32 0 2.64 0 4 0 C3.67 1.98 3.34 3.96 3 6 C0.525 5.01 0.525 5.01 -2 4 C-1.34 2.68 -0.68 1.36 0 0 Z " fill="#22242A" transform="translate(431,176)"/>
<path d="M0 0 C0 4.38968456 -2.12805101 5.76905739 -5 9 C-5.33 8.34 -5.66 7.68 -6 7 C-4.02 4.69 -2.04 2.38 0 0 Z " fill="#1D1D1F" transform="translate(495,455)"/>
<path d="M0 0 C1.32 0.33 2.64 0.66 4 1 C2.35 2.98 0.7 4.96 -1 7 C-2 4 -2 4 -1.0625 1.8125 C-0.5365625 0.9153125 -0.5365625 0.9153125 0 0 Z " fill="#012567" transform="translate(260,336)"/>
<path d="M0 0 C1.98 0 3.96 0 6 0 C4.35 1.65 2.7 3.3 1 5 C0.34 4.67 -0.32 4.34 -1 4 C-0.67 2.68 -0.34 1.36 0 0 Z " fill="#071132" transform="translate(289,313)"/>
<path d="M0 0 C0.33 1.32 0.66 2.64 1 4 C-1.31 4 -3.62 4 -6 4 C-2.25 0 -2.25 0 0 0 Z " fill="#252B32" transform="translate(206,187)"/>
<path d="M0 0 C2.97 0.99 5.94 1.98 9 3 C5 5 5 5 2.8125 4.3125 C1 3 1 3 0 0 Z " fill="#2A2E37" transform="translate(423,179)"/>
<path d="M0 0 C0.66 0.66 1.32 1.32 2 2 C0.6875 3.5 0.6875 3.5 -1 5 C-1.99 5 -2.98 5 -4 5 C-2.25 1.125 -2.25 1.125 0 0 Z " fill="#040406" transform="translate(454,498)"/>
<path d="M0 0 C6.75 0.75 6.75 0.75 9 3 C7.3125 3.75 7.3125 3.75 5 4 C2.25 2.0625 2.25 2.0625 0 0 Z " fill="#022B6C" transform="translate(368,327)"/>
<path d="M0 0 C0.99 0 1.98 0 3 0 C2.67 1.32 2.34 2.64 2 4 C1.01 4 0.02 4 -1 4 C-1.33 4.99 -1.66 5.98 -2 7 C-2.33 6.34 -2.66 5.68 -3 5 C-2.67 4.34 -2.34 3.68 -2 3 C-1.34 3 -0.68 3 0 3 C0 2.01 0 1.02 0 0 Z " fill="#092A5A" transform="translate(290,241)"/>
<path d="M0 0 C3.37503669 1.1858237 5.64722731 2.27573689 8 5 C7.67 5.66 7.34 6.32 7 7 C5.83040013 6.02433888 4.66438823 5.044375 3.5 4.0625 C2.8503125 3.51722656 2.200625 2.97195312 1.53125 2.41015625 C1.0259375 1.94480469 0.520625 1.47945312 0 1 C0 0.67 0 0.34 0 0 Z " fill="#4B4E53" transform="translate(438,186)"/>
</svg>
