<?xml version="1.0" standalone="no"?>
<!DOCTYPE svg PUBLIC "-//W3C//DTD SVG 20010904//EN"
 "http://www.w3.org/TR/2001/REC-SVG-20010904/DTD/svg10.dtd">
<svg version="1.0" xmlns="http://www.w3.org/2000/svg"
 width="640.000000pt" height="640.000000pt" viewBox="0 0 640.000000 640.000000"
 preserveAspectRatio="xMidYMid meet">

<g transform="translate(0.000000,640.000000) scale(0.100000,-0.100000)"
fill="#000000" stroke="none">
<path d="M0 3200 l0 -3200 3200 0 3200 0 0 3200 0 3200 -3200 0 -3200 0 0
-3200z m3238 893 c-10 -2 -26 -2 -35 0 -10 3 -2 5 17 5 19 0 27 -2 18 -5z
m-48 -18 c10 -13 9 -15 -11 -15 -18 0 -20 3 -10 9 11 7 10 10 -5 14 -14 4 -15
5 -3 6 9 0 22 -6 29 -14z m148 -22 c-2 -14 -10 -28 -18 -30 -13 -4 -13 -3 0 6
12 9 13 14 2 31 -10 17 -10 20 4 20 11 0 14 -8 12 -27z m-268 -3 c-8 -5 -19
-10 -25 -10 -5 0 -3 5 5 10 8 5 20 10 25 10 6 0 3 -5 -5 -10z m50 2 c0 -5 -11
-14 -25 -20 -39 -18 -44 -14 -10 7 36 23 35 23 35 13z m284 -7 c11 -8 16 -15
10 -15 -5 0 -18 7 -28 15 -11 8 -16 15 -10 15 5 0 18 -7 28 -15z m-367 -28
c-2 -7 -16 -12 -31 -12 l-27 -1 23 17 c23 18 42 16 35 -4z m351 9 c-2 -1 -12
-8 -23 -16 -18 -14 -19 -13 -8 1 7 9 10 19 6 23 -4 4 1 4 10 0 10 -3 17 -7 15
-8z m67 -16 c10 -11 16 -20 13 -20 -3 0 -13 9 -23 20 -10 11 -16 20 -13 20 3
0 13 -9 23 -20z m34 -79 c-8 -2 -8 -5 1 -11 8 -5 5 -9 -9 -13 -16 -4 -26 2
-39 21 -12 18 -13 27 -5 29 7 3 9 12 6 21 -4 10 6 5 26 -13 18 -17 27 -31 20
-34z m-535 7 c-4 -44 -10 -56 -21 -44 -4 4 -1 16 6 27 19 32 6 34 -18 3 -11
-15 -21 -23 -21 -19 0 8 48 75 54 75 2 0 2 -19 0 -42z m430 26 c8 -21 -3 -56
-15 -49 -12 8 -12 65 0 65 5 0 12 -7 15 -16z m116 6 c0 -5 -4 -10 -10 -10 -5
0 -10 5 -10 10 0 6 5 10 10 10 6 0 10 -4 10 -10z m52 -89 c2 6 9 -1 16 -16 7
-14 8 -24 3 -21 -5 4 -11 1 -14 -6 -2 -7 -2 -3 0 9 2 16 -1 21 -11 17 -8 -3
-16 4 -19 18 -6 21 -5 22 7 5 9 -12 15 -14 18 -6z m-653 -18 c0 -25 -1 -25 -8
-8 -5 11 -7 23 -4 28 8 14 13 7 12 -20z m539 -11 c2 -7 -7 -12 -23 -12 -24 0
-26 2 -15 15 14 17 31 16 38 -3z m-561 -19 c-1 -16 -6 -31 -10 -34 -9 -7 2
-41 12 -35 3 2 4 -17 2 -42 -3 -37 -6 -43 -12 -27 -9 19 -9 19 -6 0 2 -17 9
-19 50 -16 40 2 47 0 47 -16 0 -16 6 -18 40 -15 41 4 56 27 23 35 -10 2 8 2
40 -1 l57 -5 0 42 0 41 40 0 c29 0 40 -4 40 -15 0 -11 11 -15 40 -15 29 0 40
4 40 15 0 11 11 15 40 15 36 0 40 -2 40 -25 0 -25 1 -25 79 -25 67 0 80 3 84
18 3 9 5 2 6 -15 0 -18 5 -33 10 -33 5 0 13 15 17 33 l8 32 9 -40 c16 -74 9
-130 -13 -95 -6 9 -10 10 -10 3 0 -6 5 -15 10 -18 15 -9 12 -23 -10 -42 -11
-10 -20 -25 -20 -34 0 -9 -9 -27 -21 -40 -17 -20 -22 -21 -30 -9 -7 11 -8 9
-7 -10 2 -18 -2 -25 -14 -24 -10 1 -16 -2 -13 -6 8 -13 -42 -40 -62 -34 -14 5
-15 4 -4 -4 11 -8 9 -12 -9 -22 -54 -29 -250 -33 -250 -5 0 6 -16 19 -35 28
-52 25 -56 21 -10 -8 22 -13 36 -24 30 -25 -15 0 -112 58 -121 72 -5 8 3 6 18
-4 23 -15 27 -15 32 -2 3 9 2 12 -4 9 -6 -3 -24 3 -40 15 -17 12 -30 18 -30
14 0 -4 -9 1 -20 11 -10 9 -19 25 -18 34 3 35 -2 61 -12 61 -6 0 -8 -12 -5
-27 5 -24 4 -25 -5 -10 -6 9 -8 27 -4 39 5 17 3 20 -10 15 -9 -4 -15 -3 -14 1
1 4 -2 16 -8 27 -14 26 -18 136 -4 115 8 -13 10 -12 10 3 0 10 -4 26 -10 36
-6 12 -6 31 1 55 12 43 18 47 16 9z m650 -15 c-3 -7 -5 -2 -5 12 0 14 2 19 5
13 2 -7 2 -19 0 -25z m10 -50 c-3 -7 -5 -2 -5 12 0 14 2 19 5 13 2 -7 2 -19 0
-25z m30 0 c-3 -8 -6 -5 -6 6 -1 11 2 17 5 13 3 -3 4 -12 1 -19z m33 -50 c0
-28 -3 -39 -10 -32 -9 9 -3 74 6 74 2 0 4 -19 4 -42z m-620 -499 c-12 -9 -12
-10 3 -5 11 3 39 -1 64 -9 76 -26 216 -30 308 -10 44 10 90 18 102 19 11 1 19
4 16 9 -8 13 7 7 45 -17 20 -13 84 -49 142 -79 58 -31 104 -61 102 -67 -1 -6
1 -9 6 -6 20 12 95 -93 86 -121 -4 -13 -3 -15 4 -4 7 10 14 1 26 -35 12 -37
16 -88 16 -231 0 -170 -1 -184 -20 -203 -20 -20 -33 -20 -658 -20 -570 0 -640
2 -661 16 -22 16 -22 17 -19 213 3 161 6 203 21 236 14 32 20 37 28 25 8 -11
9 -10 4 8 -7 24 25 76 74 119 28 24 47 31 35 11 -4 -7 -3 -8 5 -4 6 4 9 11 6
16 -7 11 93 62 107 54 7 -5 8 -2 3 6 -6 10 -4 12 9 7 9 -4 15 -3 12 2 -3 4 15
19 39 31 25 13 50 29 56 37 6 7 21 13 33 13 18 0 19 -2 6 -11z"/>
<path d="M3455 3940 c3 -5 8 -10 11 -10 2 0 4 5 4 10 0 6 -5 10 -11 10 -5 0
-7 -4 -4 -10z"/>
<path d="M3560 3645 c0 -8 5 -15 10 -15 6 0 10 7 10 15 0 8 -4 15 -10 15 -5 0
-10 -7 -10 -15z"/>
<path d="M3521 3634 c0 -11 3 -14 6 -6 3 7 2 16 -1 19 -3 4 -6 -2 -5 -13z"/>
<path d="M3547 3583 c-4 -3 -7 -11 -7 -17 0 -6 5 -5 12 2 6 6 9 14 7 17 -3 3
-9 2 -12 -2z"/>
<path d="M2938 3545 c2 -14 6 -25 8 -25 2 0 4 11 4 25 0 14 -4 25 -9 25 -4 0
-6 -11 -3 -25z"/>
<path d="M2930 3504 c0 -3 7 -12 15 -20 16 -17 18 -14 9 10 -6 15 -24 23 -24
10z"/>
<path d="M3450 3499 c0 -5 5 -7 10 -4 6 3 10 8 10 11 0 2 -4 4 -10 4 -5 0 -10
-5 -10 -11z"/>
<path d="M3015 3460 c3 -5 10 -10 16 -10 5 0 9 5 9 10 0 6 -7 10 -16 10 -8 0
-12 -4 -9 -10z"/>
<path d="M2615 2974 c-9 -15 -12 -23 -6 -20 11 7 35 46 28 46 -3 0 -12 -12
-22 -26z"/>
<path d="M2608 2453 c6 -2 18 -2 25 0 6 3 1 5 -13 5 -14 0 -19 -2 -12 -5z"/>
</g>
</svg>
